<mxfile host="app.diagrams.net" agent="Mozilla/5.0 (Windows NT 10.0; Win64; x64) AppleWebKit/537.36 (KHTML, like Gecko) Chrome/138.0.0.0 Safari/537.36" version="28.0.6">
  <diagram name="Page-1" id="Ckp1hUFT_6P9iYaKbGDF">
    <mxGraphModel dx="4300" dy="2952" grid="1" gridSize="10" guides="1" tooltips="1" connect="1" arrows="1" fold="1" page="1" pageScale="1" pageWidth="827" pageHeight="1169" math="0" shadow="0">
      <root>
        <mxCell id="0" />
        <mxCell id="1" parent="0" />
        <mxCell id="fgWm4qZZ9KspV6PaIqnZ-11" value="" style="rounded=0;whiteSpace=wrap;html=1;rotation=90;" vertex="1" parent="1">
          <mxGeometry x="-1071.87" y="-169.37" width="3430" height="2508.75" as="geometry" />
        </mxCell>
        <mxCell id="fgWm4qZZ9KspV6PaIqnZ-2" value="&#xa;&lt;img alt=&quot;Data Monitoring Icons in PNG &amp;amp; SVG&quot; src=&quot;data:image/png;base64,iVBORw0KGgoAAAANSUhEUgAAAOEAAADhCAMAAAAJbSJIAAABblBMVEUAAAD////s7/HY7P6nm6eKyf7c8P8SEhKcnJzq7e/E4v/v8vTc3NxNTU3CxMbd4OJxcnNaW12hr73xuoTQ0NQiIiO4uryusbKgoaRSUlQqKitUXGPH5f9NWGOtvcxCQUTHx8ff9P+IlJ+bkJt9tuY6U2m+z98sP1AyMjJlZmd2gYqZqLQQEBBt9sOCeYJw/8pm57YvalRcZGsXNCr/ZnH/4XfWvWSvmlIPDQc7NTt7b3vHT1euRUyOz//P4vNub3AfDA2Fh4hDSU99f4CSqL52rNkRGB9DYXsdGx18iJJUe5uOj5FtnsgiMj8bJzFJREnTo3RIaoVfiq+CpsZkg52qzOlVQi+R1P9FnHsbPjFTvJU3fmQkUkFJpoMvKha+p1ibiUg8NRyXPEI4FhkLGhRbz6P12HJ4MDUwRlmSv+VWa30oJB8dFQ1AOTKVs8+INjx3aThTf6NylbRgVmAzLCTFmGypg11FNSZbRjJ0Wj82nxQ6AAAUOklEQVR4nO2d/X/aVpaHwS4CrQQCR0iAtwiIjQUoaYammzQNuDaxjY3j1HbatLNt2snMtnHiZDdv05n/fiXdd+kKhAEZ/PH3FxsQQo/OfTn33KN7Y/GrrthlX8DMdU24+LomXHxdEy6+rgkXX9eEiy8eoazphdTiqaBrchhCbTNt5vtJK7lospL9vJne1EYQDqzYossaDCHUF5/PUVIPIJSzl31pU1NW5hFWipd9XVNUseInrBiXfVVTlVHxEsom9XHfKOYWT0WjTyPKHkJiwWQvI8vKIkqWM9kkQWQJSSPTU5akxdWSQkiyNKGG0EsZ+6hFliRVSqiuZSjCHLKsuth8jiQV1bgcIdQgtplZfEAbsQJbzZKGCXsQWoeHSJK4iJJQDdNRm4II5TR4Y1Nxj5DkVC+7iOqlZACgbAKgtAwJNeCOJnXwuVYkTe5iKVnUAAJ0sJMaJCyAz3NuMyNlzCHnmHeBlkRSYaksAEIJVsOBy68stv+dVRwIcQu82pJcQqUBXqZc/MqiFlGgfsW10wC8aiguoQx6w34BFNJLvLxpyC2mYgq4qDkZEIJCW9KvEGEh775IDyHcXlkgPXK0PSbhalVYHP2no8/HJRSW51gOFvXyP2xdLcJua39/pU5eXzHCbguOHYxyF17k1SKst0m72a6Dq5yUUFiuj6Hl2d6a+jbdNawCxEkJV5rt1fBqrsyUcDXGqNmdnLBby8fGUn6/OzMzVmueH+u3hEkJhdb4kf72zBCrvotpdyclrK96zxlC2/XZIApl9Asbj+E/ZlmYjFAoj1lGocqzIWzC0+886xzugn9bExNecDA1k/amCnuK9U4isbY3LUJY8q0wohFrM6iMNGFiaoTAhuZAHy0mOmA1x6yMQtXW8K8I++Dcu4fPEidH0yU0MiFC6gW2oLbHQazWa01btXp1GCFqaR4f78GmprQypVJqZEKEYj2EMSM0otBtgomjvtEc5hRVY15N3FsQG16AMGaVh1mEtg3li5nB96Va9v1CbdIe/yI2fPKBXEEtFCHbYJcCEVf4Jozchh8++0CmKpshmtSuZ/p5tc4/rlyKeVSc3PO+iA2N27e/pu/yKETB62wGWL7sm4efxuhpsnroan+kDX3OJteIpK5CU67WpjECngLhdnlEJ4eajy9//PEn8F9/xf8VMjBsl8utWq1VJrchqlIqoUktVhbncmnhEdGdW7f+ChF9XxHqeDbFHvUKy90u3alEZcMAQv/legihO/2XL27duvXf4P+WF7CL265tTgmOrKUJmNQJSfgzRbjfRZ92HS138QiHOzCLrB5KaoM3EhlBiJvSv96588uX8P9Sywn4dMtNp1Ux9nEryneTIiNckpRUbxOrYYYjrKPL//lnqlU1WvV6M+aRyXdbIyulbgbAEppVX5IbYQiF7j7H7o62t73vGLYXyMbzo7ahx6BhCAW/oQJlrNiH2x0FUWsGPk2oxKTwhMIYcSBzxXHR+3RecH61PLnnzdhQEgvZzREagIyOUITVsq8kBirpjHX73nfb9anaEGcADFUJJkSEIFzhhCrb3Sbz7n30T00QWr6j+5OPgGkbogSAEYJJHUGEAuzkhGVywf32qtm3rL5ZXKkK1XoTezDPf/393t8Qui8gHJtmFMO95nCJKH1tCKHQrbdWjZLZbtXJ9ZZaThhj32k53IOruP359auvvroHzLhd5xBa04q1TY1QqNfQKI+M9kwn9igI1Sqe9xS68CMb8Ktfn8+U8AKltCEHE9KTY0gGJ34swM8cG/7mteHu3t7e+tG0CJneQkVpmsOE2l0eYZfTOXBdzSpsNZ//9utvvnq4sba2trM+LUK2x1f03igVZDGYkOO/rHKDACj4G7v/HDWmNQETJhKJtRkRhnJmgnt87IISBQRyBN+hZnlGhGP5pQyonxDPrMS+HQFoy1th94XlebFhMGEVDvO+ffHNi7+Df9sBcTW7yrLujhM3nH8bopD1w7t3776AJw6O/zIuqxtWi8KG4R4JGEVoA979BhgRRLh5QyIbcR8N7eHMeQQ2lNSt0bnIWqDnjQi/sQkffottKCyX6Sy1MgoyCd1ybdXMm6st+NbsbUgS/YfJ1IM8bzQN//dv7j6E9dAJjXZXzRIlk0xa2S5svV7HcbXZE4rh8oeLQZ437uRIW1qzf8PnC7ZxIIrVzEuppPgmDriyAv1SXyeXLwuCb0IpMMQ6exsq4Z7gy2cC/VJvJ9e0S6B/0Bc0pJx9SyMOQhFuBnvebNKW65JeOiHT0oR6kDZXGTLGZ8IW7pTGpROyPb6i6XphqHRNHRqnoWJrIJcBEd7/6aefvvwH/RVfJxlRjz/KlRkVa+uWm87Pl5owPRQRfnnnzp3/+Qv5ihM4bCHZo/9qNIRjaEgkCsRpoDDhF7du3SGEQpOJGyZLtUXwS7niE/onhmOtiMaHIb3SSQmr/q632Y3ChpIoj5IyTsw7mNAfSW3XI7ChmNlqjFJPVxaYMBPGqcnri0VIl1L0bOYIpYfHvMci/Jut57MlZGLek3re4xP+1++//w5j3pHYcGLPe3xCEtWPoh6K/IwZr3rK9OphBITM7JqyZbKeBkelrDpsdq1Lay4IPTOkmeF+t+N6D5shrbf2m0T7LWr0NB+EQS4NWdGHODU8Qt+0RbsuXDrhCL/UJhIz+mDLXaOgtzUoVNDSBkNj3li15eplEw4bW9gsma2cYeZxopDVN41iVrM/GRbzZox46YSBNrQhMo2A502stC4NiSZSWr18wgAbSqIyGP6wyVbGT+j/xrwSSqIaYu06azEIeaVUklNjLJ7hJ/zjxYsXf1jzQui3obSkh5nsHkJIzVvMAaHPhpKS9bYvuxt7xwfvTg4Ojl8eLR6hL4qRYfOirPWTNVsJIPu/w+PHzAFU5v18Enoz9wqMAV8eJjhaO2YQ8YM+80nI2pDJqDk6SHR4gIlE59nJY6qt3YaT9QtAqFCAjwP5XMbEyUvCaADE+SRkZmYI4O7ejoev02Hf6KwdkAr5uRvAn09COopBADdOGLaz09P3jk7fntGcMG8JXJ4wr4TEhlIKX+/6DlXlTp+++twwX5+fv35tptuv3r/FjLYZ8VectQHmkxDbUMKLK8b2UOeQeHb2dLuEc1xdvTZePXqGb8AJetuqzTuhJOMw1DG20Vk7z+IB9bdbmPEQI5aF+SSEpVRDYyEbEF39WdBzBM65v0d3AT04H0vW55PQNxzYQ9Z5+yYYMBY73z+DiCcIsS0sBOE6ss2jYXzuFUHExDvUMaIFGoIIvwhLaPdM0yP05P9vwEbmjA25JM2is5Av65Ln3kJEuDhAzISf/+/Dhw//8BL+45dffvnxZy/hb/fu3fs/L+HRycnJwcZ0CL3JE0eHCJBqYcyermVUWxVNH9Bh8TREXPP44pQIIa0RMzOUJif0ZPWiZpQCNHRVIXFFUdUa5HADtDednXkmZHIgYRntUL9UUFBSMApQiRqxI0TE5XTqhBM/b2Gr2+yjX9s9Ae7KKT5/Q+EkZ0jSFr6+NvjG2m6ML9ub8z9l7xD6nv9xMtn9NyM5BcLlKs4824CV8CM6/UDkJ59IGmpzzmsd1rfxyPZ0ur43t+tClRc85h86hdXM8K0DJuygxKhkKgBwiVrndfvtsMbGccgF70pUpvMYsCcJGuRLV/d9hzrXOTkhvNoj2NOj0wdZEFgRIb4CRoQ+uLVKzcw0ayCTdIWermnugwdMwGIn+E348H2Ld+jEhKhsHLjX+gztoZANtqDzQQH6CsZpx3XeqPVkyL0Df5hFEPErdtpR4B0K17O5GCFZ+xK3YKAhfQRbkb4SACgtqRWn30BraO+7NwatetTsTn9VzQutfUmtX4rSCUE78wyeKaYFAaoN0zRsxgoMyr3ZAb4brDm1OVm/lKN3oCGFnV1ODAAE69rnZUlC2aiPmGI6Y01C6BbSztNz6ky8FgYe3ZMktBJ6w/3m2stZQTGagPAIEL4Cr4rcWmj7M+jwTWkJLaP9EXzzmHfWqWsCwpfudZ7BaljgFVKJStYYSKTfd7vEzgHnpNPXaMKK310CAk73KejmLF47I1FTioaT6y3COltjR8KzVL4yijD4OVE3fth5/9p9YcBcbjpnWFK2MKAJEr/gHNWme3MiaWoGbtkaSrikFNJ5RrD/OwQNDRg2oQdhCwNsTEnJYn87DVNqYEVMu4Q70HHr52emNKw8wwmXlthdI5QiQwheuGlPrvNp5WDqhUj2i8rJMKUGVss3jGtameEWF4hgBKGncvEIncKA4otFx3uTFOITZ3ESLVyT5yMgBHGHWAQ7vYxHiHq1HYbQ+USFRM4gUcWA1hbuSFDneA5cdkhYmTfCYBsiwtimTDbFsKgRx2LYcCmwHlJR8AaJWxSoEQe/Hs4d4VKOIaTaUlH3953MSfht6dwRSjB2xukPxZQnXtzX2a/Cm5Ol+8N8FISpsQhhcjfj06CxU4oBLHk9HZ5PE8WuWYqHkN6jxC80L8r6pSm4cAJtxbSnlZR0nl/aCBo5T0+iMoB7lIBdWER6nxkOIQxH7LqEz+DYwkCdego7MjmvcSQYsgJjCxQz3VJmDbikqNAqDRHsFYQ21uEfjrdqAx3ie9i6aOhjhLgpewHRikSgGqLxoe77hWlLlFV4b+FeQex+TxzBqnfAjPHTyEOSwK41PX/h447xuaOS6UpRNXhvC2jPLlAMkyMa08cJupjGcLUV9YZRTPkAJbTvZ/qMjtOkZ97QiKpa8OzZhaMN/DYAr/gIqtNbWCqT5GhFlX2RRUnxxNpgXsZWQHxnelLVDOyl8L5rcTQkDDCiCD8+BiFvNIbIEe+M92QpGu6/OXW/hSa7A1rs6UlWVdSHbfn2PwxwNyRY3CwQvf4eHhzbHPLILI5IxZ4yMW9jxlss2q2Misoctf9hHD2xZXER8VLkIOjdwZMmvaCot0QAi6AW7kATZmdaSEVFVVUN9V+b1C6dFTT2sTTeRYuwhwBtDW5ObURvDwEBFbxYa/89Y8L8LAup6AIWEGC+Qu8li5cSsLYyor/wwY+tdx3GdbMbJ23Jd7A9WCSxnmaHMSE/CDkVOlFx+HQSShkwu+VKJC3W7KW0isoKGX5jB1jx/Tk+eqvC3hBJUgokntEAZbSDEtx6sjozZbTCYJPknxclz57O1KOFlpkuskoj7xPN4z8l8/jpnoYaUyf0pg5yZEwFu8IOTowyijNU2qSmxk3vns5x1TP3yNcuzElEoW9XpXS2UFEkSZT1rRz9KxAwsRbNlAWtvOrdl9u2YqjHJ49gWmnHMwttWclk0pNdkEMpQ9HMWNDCu3LThHGxF2ZboJcwZejZoxFGTzYRYDQTFpSsnhjnEcbjenH0t3HqZeft5+dDDjPeozTTgyii+bRyOg3FEMbFVCNo2oIIJ1+ePQ1cQfZ1E+fRnkRbCfuNlBgPJrQZtdSmMYLyeA1efefsKXdR2o/N9zi/9F2EgH1jM6WJHiIvoQMpqxVKqr967iHERGfntO0tq+na6RlOhD5GRdT6cHukHnyAfdagciHZQxw/DofQowqnjd04pHK51942izCH6PxNo3W2Rj5LkFT24mejdfMB3BgjM/KqwmsoYaaQqmjES7j5AP+7S+fqgwL7vS3P8wg7JE3ICAFICLVICHGiASrkNz+7SVXQxzuJEaKfDQoFGDGh0mABSzYgG/89WBvKR7eh4QCjJZQ9gF/f/uy2t4ndPTjkQ3YSOyd0HtuTcICREsqeZygdQM6yH7t7J4dr7NNAHQePeUCv/yEkYJSEsse56fMBHT3eO7ApnaeeHK3tnBzsbTBOTOlBWMAICWVvP249eYABLdW7/sfu0cbL9fW9vfX19Y3HXhftyc3QgNER+gBj+Lls26FW+QcEKLwBIySkFin99Ml7xXBgqYUaallhm5hoCYkP8/rTjRv/ZH2yNBp3Sam072kaj/LjFNAICQngnzagjfiauuiiSh2Z2hzyUH7/6w/j8kVEmPEAMlYsyuzBlVSWC2njPRifLxpCklOBAG1E9FZS8X1dVJ3RFlteSw9uXwQvGkKNA0gQLf4pRFl2ngcqFOBUzNjVL0JCAnj+3Y0bfkQp6Czw63NPqOPY0v0bjP68IoQkO+bjd1zAJDxQ8ib3AaF5xic3LyxEqEv8tLwRt3gEIQH8gQH87gf0fs+hkyupzbRh8gSLgHXh9Mo+esIqzz2/kd5MVeRxKTGhjhvEf7GA/0Lv58W4qPXGWJhmJjJ7vlhTOELiTQcBJrW43uD+aNRq6EOR+ISBgLiI9jWxNzqWGo36vTHMCAhJZtOfLOCf+KSad1B8qcrJI7g8hHjaNPYn203g9/PaGCOmKGSoo8hoQjJc+oHh+47Mg2ZEetSfnGEy+rCmlvYOvT7yUEKcYPhvBvDTRwIY7+FTm7leStcuQ3qqlyNNeS9kt+Fk7sEksPseQFwHzUocp1aYYMb3srREdVchHZ8YCTsFARqVOEqFjRW5uRoRShI1krEUmhBePuPKEMB0xT4E/R9B9utIRrwJY7ia6GRfojpGIX56TQOiZJTSjBOawknKoBmqsIRxnN6D+woSgAKtMkrtmwdAkj6eDk0oYmfsIwDEo3oUeYL9YlA2f8TCWWihCanok9shksgM6nTgywiedgklbWxCKjxju6X/xP1gGgVm4Os5aGdcZcYnjFewu/BvAkicvytAGCcPx+J8rgaVdXMFCInXwgG8GoRexBw9BLsahHGNdt0bjEt0RQipaKIHEBFqs0sOHUv6RQnjOuwXk1nvUUBGMT0PKqYvTBivDNKlvJH1RXq8rdCc6AKE9iiiUlH9o5LLRgnQhQgDjppPTZEwTGrtJWiKhOH2PYxaqSkSStl80hq1/UqkspL5kKGocIR2K1tIzZkqIa88LOHi6ppw8XVNuPi6Jlx8XRMuvq4JF19Xn/D/AfabW+vN92KqAAAAAElFTkSuQmCC&quot;&gt;&#xa;&#xa;" style="rounded=0;whiteSpace=wrap;html=1;rotation=90;strokeWidth=7;" vertex="1" parent="1">
          <mxGeometry x="-959.53" y="22.03" width="3184.37" height="2140.32" as="geometry" />
        </mxCell>
        <mxCell id="P1Te4osSGadlrZcNZEam-1" value="&#xa;&lt;img alt=&quot;Frontend Icon Set for Front End Developers&quot; src=&quot;data:image/jpeg;base64,/9j/4AAQSkZJRgABAQAAAQABAAD/2wCEAAkGBwgHBgkIBwgKCgkLDRYPDQwMDRsUFRAWIB0iIiAdHx8kKDQsJCYxJx8fLT0tMTU3Ojo6Iys/RD84QzQ5OjcBCgoKDQwNGg8PGjclHyU3Nzc3Nzc3Nzc3Nzc3Nzc3Nzc3Nzc3Nzc3Nzc3Nzc3Nzc3Nzc3Nzc3Nzc3Nzc3Nzc3N//AABEIAJQAsAMBEQACEQEDEQH/xAAbAAABBQEBAAAAAAAAAAAAAAAAAQIDBgcEBf/EAFMQAAECBAEECg0HCQYHAAAAAAECAwAEBREGBxIhMRMUFRdBVGFxk9EWIjI2UVNVVnSBkZLSIzOUobGywTQ3QnJzdbPC4VJioqPT8CUmNWNkg/H/xAAbAQEAAwEBAQEAAAAAAAAAAAAAAQIDBAUGB//EADYRAAEDAgMECAUFAQADAAAAAAABAgMRUQQSEyExMqEFFBVBUmFxkSKBsdHhM0JDU/AjBlRi/9oADAMBAAIRAxEAPwC9ZXKhMSGEVolXC2qadSytadeadY9YFo2gbV43JUypqnyjTYSGUEj9JQuY+tbhYmpSh8fJ0hiHurmVCVcrLuHOVLNFVtJCNJh1aFqbWoOvYly7Hr7kQlZQqttdv1oiNGDwoOtYrxqSIkZQntpdvNAubI/3aJXDxbkahDcbiN+dRXJWXdIJl2glIslIToTBMNCicKBcbiK8a+40yMtovLt6f7kT1eFf2oFxmJTbnUTaUqQQZdrT/dh1aFf2oQmOxKLxr7nqYQxA5hCqobecWqizRs6gm4ZUf0gPt5I8TpDBZVRze8+i6Px3WWq13EnM3NpxDiAttQUlWkKTpBEeMegPgAgAgAgAgAgBCLwAiRbRAESpptK80312vAEp7YaDblgASkJFgIAdAGfZau9aW9MR9hjfD8YXcpn1r354+0U+COuluNJdXnkBf6N/BHi9L6ytTLw959b/AOLPwrJHaqoj+6vOnmQ1Us7OCyUlQ7uw0XjToxJEhq/5GH/kT8O7Ff8AG22lzQMFzVKGHkpcXLJUlPy+yWBJ03veODGtxDp1Xb5GWFWFIUqqeZRguS3XSoJO0NsC4/7Wd1R7y6mj/wDVOZ4qaett4amjYwmaMvDDqULl1ZyBtUNEXzuC1vrj57AMxHWU3+Z9Fjn4fqy7vIy2PqD5UjeZQ+0ppabpVFJGNe3K7cbQzPhekjN6HpUPFuJsPSwk5Qys9Jo0NpmUnOQPACCNHPePDm6KfWrdp9LF0th3p8fwqepvnYo4KRTrfrK+KMOypbfQ17Twnj5L9g3zsU+SKd7yviieypbfQjtPCePkv2DfOxT5Ip3vK+KHZUtvoO08J4+S/YN87FPkine8r4odlS2+g7Twnj5L9g3zsU+SKd7yvih2VLb6DtPCePkv2DfOxT5Ip3vK+KHZUtvoO08J4+S/YN87FPkine8r4odlS2+g7Twnj5L9iJ7KdigjN3Kpyb8Ocr4oqvRcqd30JTpLCL+7kv2IN8fEt77k06+vWr4odmS2+hPaOF8XJfsTs5T8U3tuRT1D9ZQ/mgnRktvoO0sL4+S/Yu+Bsbs4o2aWel9p1KXTnOy5VnApvbOSdFxq9o8McM0Lol2nY1zXtRzVqiluGqMSTPstXetLemI+wxvhuMLuUz7rj7Rd58ESsSD86FbA2V5mu1haMpHsZxKaxte7cg5NEqJcKTLHl7ZPXGKTx12qa6T6bEJ00Sf1CV/xJ6406zEneZ6Ei9wu41R4uffT1wTExXI0JLCbjVDix95PXE9YiuNCSwbjVDix99PXDrEVxoSWF3HqHFz76euHWIrjQksG49R4uffT1xHWIbjRksG49Q4sffT1w6xDcaMlg3GqHFj76euHWIbjRksG41Q4sffT1w6xDcaMlg3GqHFj76euHWIbjRksG41Q4sffT1w6xDcaMlg3GqHFj76euHWIbjRksG41Q4sfeT1w6xDcaMlhFUWfXo2sfeT1xC4iFe8lIZE7jnNEqINhLH3k9cZ68dzRIn76EKW1JVmW7a9tI4Y6koiVOdaqp6WAVKbyhoUCQoyLgPtHVHg9LUzex9R0RXqtPNTa2F7IgE69RjxD0yhZa+9aW9MR9hjfDcYXcpQEbGQXFuJDYOkhQueQR9e6RqrRFPiGwvTarV9ieWqjksVKl3W0BVu1BFoq5kbqZlLIsrV2JyJ+yCc8e17ExTQg/wApbUntyA1+bIsXmvYmGhB/lGpPbkSpr026LB9oOjkT239YpowtXyL55nJu2+hF2QTnC+1fmTF9CG/MpnmtyDsgnPHtexMNCG/MjPPbkHZBOePa9iYaEN+Yzz25B2QTnj2vYmGhDfmM89uQdkE549v3Uw0IL8yc89uQdkE3xhr2JhowX5kak1uQdkE3xhr2JhowX5jUmtyDsgm+MNexMNGC/Mak1uQdkE3xhr2JhowX5jUmtyDsgm+MNexMNCC/MnPPZfYeiuTigVqfaDadarD2DliroodyF2rNvVOQ04hmuB5oDgFkxKQQJ38yiyTL3chOyCbOjbLQ5QExOjB/lGpPbkect5CiSpxJJNyc4aTG+ZiJSqGOSStaL7HrYEdbcx40SflNpOWWDcK1aCfDHgdK0zbFsfUdFV6ttTvU2aT+bPPHjHolJyxBtzDsql0kN7dbCrazr0CNoOJSUHrybYYWReUeASLJSH1gAe2LpI45Nd6bhu9nhc65R/6QvridR1xrvuG9lhbij/0lfXDUdca8lxN7PC3E3/pC+uI1HXGu+5CMn+DjNKlkoVtlKQstCbVnpHhIvcROo8nWlpUnXk4wytwlyUeKj+lthen64jUcNd9w3ssLcUf+kr64nUdcjXkuG9lhbij/ANJX1w1HXGvJcN7LC3FH/pK+uGo6415LlVxRg2iU7EuHZGVl3EsTry0vguqJIFtR4NcWR7sqrY6IHueu1Sxb3GGeKPdOrrjHXedumgDJvhrib30hXXE60hGRLi72+GeKPdOrrhrSDIlxN7fDPFHvpCuuGtIMiXEOTjDR0bTe5fl1dcRrPGm0kXk7w2tKEmUeCUagH1aPrhqvGm0bvb4Z4m906uuGtIMiXE3uMM8Ue6dXXDXkGmlw3uMM8Ue+kLhrvGmh49Ho0jRMqLUnT21IYNMWspUsq7YnXc8wi7nK6Gq3MpEotDUpIlLZCjcZ1gY5jIpeWMBOG5IJFht9r8Y2g4l9CULme6MDzhIAimJhmWRnzLzbSDoznFBIv64klEVdw9RAQVLUAkAkngAiBTuMsybHd/GVYxKu+xpBDSj4FnR/hSNHLG8nwtRp0zfCxGmnsvMTTWew626jwtrBHtEYnMqKm8kSSDmq9R8MAOiCAgCi4579MH+kOfyxo3gcdmF3k+UyoTNNwfNvSbqmnlKQ3siTYgFQBseDReM4Wor6Kd8i/CpSEYPp60JU49NqWRdStlGk8J1QXEOquw9VOjYVSqqovYbTPGTfSjqiNd9iezIbqKnBlMUb7NNpSNZ2UezVDXfYhejodyKvuPdwlTV2GfNJSkWSkOiw+qGu6xPZkN1I+w2meMm+lHVDrD7DsyG6+4dhtM8ZN9KOqGu+w7MhupFN4UkZaVefYfnEOtNqWhQdGggX8EWbO5VoqFJOjomsVUVa0NFwHPP1LCdOm5twuPKQUqWdas1RSCeXRFZURHqeZGtWpU8hX532f3Sr7xi38PzMpuI0SUALRB1XjAxKTlk73JL09r8Y3w/EvoShcld1EHnGX1fKBWKjWHaNhaVZQ6l1TezzK0gnNNiQFEAeu55I2SNEbmU6mwtRKuOiXyazFWcEzjGsPTizpLLSjmi/AFHV6gIjUpwoQsqJsYh72UKoJo+DJsNHMW6gSrQvqzhb7L+yKsSrjOJuZ+05smlFRJYLbbfR21QKnnhqJChmgcnagRMjquqTK6rzypjJxN0hxUzg2svSixqYeV2p5LjX6wYnUReNCyTIuxyENFx9VZWsNUTFEmyt5TqWtnllgkEmwJCSQecW5olY20q1SXRNpmappgNiEq5gfDGJzqOgQUXHHfpg/wBIc/ljRvA468LvI8rvePNftmvvRTD/AKiHfPTItSCXaW42gggXAAKuHRHOfSaiNQSxBKTrBtA0RapVAUbgDUBqA4IghEoJAsEAEAc9S/6bN/sF/dMWbxIZTfpu9FPdyZ949M/9v8VUaz/qKfORcKHCr877P7pV94xb+H5mU3EaLJ/NnnjAxKRlk73JL09r8Y3w/EvoShcld0Yg84quIMAUOtuOTC2FS04s5xmJdWaVHwlOonl1xdr1Q1bM5pWxRMe4XcAok+iryQ0JYeULjwAhR0c6VeqL5o3b0oaK6N+9KKc+VF9+s12g4ebsl1RC3kpNwla7JvzJTnn1wioiKpMKIiK405TapaSLUk2klprNZbJsNA7UX9kZepzItV2mdGhY7xSs7tz6KTJHXLsq0nmSnXzqV6o1zMbu2nTmjZuSpZcPYCodCcbmGZczM2jSH5g5xSfClOoHltflijpHOMnTOdsLOUgix1RQyESSk5qvUfDEklHxz36YP9Ic/li7eBx14XeNysoU5gqZQhJUovtAAfrRTDqiSIds9MikMsAtLTTjZz0IuDe1+ERgfQd1UXYOcupm7rYS4V3HASIgu2ubYQ2PgMQbhY+AwAWPgMAFj4DAHNU9FNmydA2Bek/qmLN4kMpv03einu5M+8imczn8RUaz/qKfORcKHCr877P7pV94xb+H5mU3EaLJ/NnnjAxKRlk73JL09r8Y3w/EvoShcz3RiDzhIkCEX1/bEA8hWGqavEKa8ptZnkozASs5o0Wvm6r20RbMuXKXzrly9x6+sHqipQLRIFgAiAFoAomOe/PB/pDn8sXTgcdeF3lmqMmxPyjspPNKUw6jNVY2I4dB4DyxzoqotUPRciKlCsHJ5Sy2Epfn2jcFC9n7f2xrrLYojV3VI15NKYtRK6jU1Hwl+/4Q11sWyeY3eypflCpdMOqGuthkW4b2VL8oVLph1Q11sMi3DeypflCpdMOqGuthkW4b2VL8oVLph1Q11sMi3AZMqSTZc7UVp4Ul7X9UNdbDJdS4yMmxISbMpKNJaYZQEIQnUAIyVVVaqXalNiFQV+d9n90q+8Y2/h+ZzzcRosn82eeMDEpGWTvckvT2vxjfD8S+hKFyV3RiDz6VPJfps+48tbdVWhBNwnY9Q9sRRbnpx43CtYiOgRVvX8Ee5VR8sL6P+sRlW5fr+E/9dPf8C7lVHywvov6wyrcdfwndh09/wejJsussBt+YU+sHuym0WQ8/ESskkzMblS2889dLqClqUmruAE6Bser64ii3O5uOwqIiLAi/P8HXTpWZls/bE4qYztV0ZtvrMSiHNip4pqaceWnnWv0O2BxiEga/VEhEKZi/PTizDDimwpGzLSog6U6tIiU4XHZhk2nTjisPUHDUxOSqQtd0IRfgzlAZ3OIzjbmdQ73LsMzTN4gsD2QziSdJAOj7Y99vRTKcXI+Zd065Fpk5/gXbmIPOOd9p64nslni5fkjt53g5/gNuYg84532nrh2SzxcvyO3neDn+A25iDzjnfaeuHZLPFy/I7ed4Of4I3KnW2yA5iebQTqzl2v8AXFHdGwt2OfT/AHqaM6YnelWRKv8AvQk25XzqxJO25/6xfsqPxcvyZr089P2c/wADXKhiFptTicRThKAVAHSNEVf0WxrVdXd5GkXTjnyI3JSq3/BqmDqm9WcNyM/NBOzuIIcKRoUUqKb+u148CRqNdRD6Vi1Sp4avzvs/ulX3jGn8PzMJuI0WT+bPPGBiUjLJ3uSXp7X4xvh+JfQlC5nujEHnCQBV8Rv40bqObh2TpDslmDtpsrK87TfUoC0XRG02mrdOnxHl7bym+T8Pf5n+pFv+XmTSK6htvKb5Pw9/mf6kP+XmKRXUNt5TfJ+Hv8z/AFIf8vMUiupLLTWUczLQmafQAxnjZCguAhN9Nu3Om3JCkfmKRXLJiB2qt0txeH2pV2ezhmJmScwi4vexGm2rTFG0r8RRuWu0rQm8oiCguSdAVputCUuAgch2T8ItRhrSJF3qeZPv1sYtoO74kWwp4plUSqFXVe184lR1eqC0yrQ3gRmb4TtysJCcEzAHjmb+9GcHGdkm4pbSA4gJTfZANA/tc3LH2WalKn54rcyrTeRrUEJK1kBIFyTEq5GpVV2FGsc92VqVU5peoS8w4W0LIVqSCLZ0YRYuOR2VPkduI6OngZnVKp307jpJslR4QI6HLRFVDiYlXUXceVTJVicZU/MDZHVqOdc9zHm4aGOZqvk2qp7uPxU2GkSKLY1EtvJaMo5swylWc00uyFRpgVWjmdyLsOfpVu2ORUo5ybTsmfyZ39RX2R2S/pu9FPOw36zPVPqaRky7x6ZzOfxFx8XLxn6HHuOFX532f3Sr7xi/8PzMZuI0WT+bPPGBiUjLJ3uSXp7X4xvh+JfQlC5nujEHnCQBWcQ4uNFqG0xRalOdoF7LLt3Rpvov6oujKpWpo2PMlanm74ivNis9FE6fmW0fMN8RXmxWeihp+Y0fMN8RXmxWeihp+Y0fMQ5Q1W04YrXRQ0/MnR8yVjHJfBCcO1VC06kqbtnRGTzJ0vMYcoCQCoYdrIWDco2udfPa0MnmNLzPAqGIDXcY4XvTJyR2GZV+UptnX8EWy0Y43gblXeezla7ypj9uz98RlBxnbJuKBMzTUq2Fuq027UDWeaPrpZmRMq4+CgwsuIkVI/exCmXeq5Ds5dHClpJ+cHh5442xSTKiy8Nj0Xzw4Vqtw+1/ev2JJmRYfbCCgIUkdqUixTHXLho3tpSlN1Dz4MfNC9XKta70XvOZubfkVhmeups9y9b7Y52zyYdcs27uX7na/CxYxuphtju9v2Hu0yXeUXGlqQF6TsatBi7sHG9cyKqVsZM6SniRI3trS49x6WpjCUDRfUkaVHwkxZ0kWFYjSjIcT0hJnX37iQvNzEm640sKSUKGjmjRZWyRKrFrsUxbBJBiGtkSi1T6ml5Mu8emczv8VcfITcan3se44VA77zJsbbkq02/vGLfw/Mxm3miyfzZ54wMSkZZO9yS9Pa/GN8PxL6EoXJWgmIPOOFdXkW1qQuYQFJNlDToMRmQ7W9HYpzUcjN43dmn8aT9cRmQt2ZivB9PuBrdPGuaR9fVDMg7MxfgUmmahLSuYH5hKM8XTyiJqiGMWEmmrkbWhFu1T+NJ+uIzIbdmYvwL/AL5ksrPsTmdtV0OZls4jgiUVFMJsLNB+o2lTpNyNJi1EOcBexuSbxFAUbHPfpg/0hz8I0bwOOzC7xmVq3YVM5wuNnZv74ikHGehItE2GcSsiQsPzag69wcIRH08GG26km1e4+LxWP+HRw6ZW81O4aI7KVPKqpMbPjgDtvUv+sUrl2dxrsft7yBxCXG1IcQFJI7kiLOajko7ahVkj43I5i0U85UtNySiZBWyNHRsSj3PLHBozQLWFaovdY9duJw2LSmJSjk77k0nJbEovTKw6+TpUdITzRtBhUauZ+1VOfFY/OmnCmVid1yGdkNiDj0orYzmnOQNShGM+Gyor4lpc3wmPzq2KdM23YvfU1bJn3k03kDn8RUfNTcan2Ea/CdG7riccooW12tjVIGY2e5z7g6ubREZP+eYxnLdJfNG2jTGamJScsV1YdlBbSmfav9cbwcS+hJcz3RiDzjmXIya1FS5RhSjpJLYJMRRDduKxDUo16onqo3c+QGuTluiT1QypYt1zE/2O91DaEgNO1Jbokwog65if7He6kj0vLPWLzLLmboGekG0TSpnHNLHXI5UrZVITISKjmok5YnhOxJ0fVEUQ163if7He6k7LDDAIZbbbHCEJA+yJpQxklkk43KvqtSW48I9sDMLjwj2wBRccd+eED/5Dn8sXTgcdmF3jcrXeVMft2fvCKQcZ3ybii8A5o+0bwofnL+JQiSgv/wBgqEoqotUJfn9Wh4af1/6xmnw79xrxpVN5FeNDLcF7wIIpj8me/Zq+yKS/pu9DfDbZmeqfU0jJl3j0zmc/iLj4ybjP0KPccKjbK+zpt/wlX3jFk/R+ZlNvNDlFZrZA0knQIwMSmZYVqbw/JKSQDt5saeHXojaDiUdxbwrSQdBHBA4FFgQVfEWA6BiOo7fqss45MZgbzkulIsL20euLtkc1KIatlc1KIeZvS4R4o905i2u+5Ou8YrJNhEkASj3L8udENZ6kpO4uFKpcpSaUzTZJCkSrKChCSq5APL64zVaqZOcqrVSpKyTYSUorVKP3Ubn5cxprPNNd4b0uEuJvdOYa77jXeG9LhHij3TmGu+413nh1HCdIwvjLDG5DK29sTCtkzllV7Wt9piVe5zFqdEEivXaX+tUuVrVNep88gqYdtexsUkG4I5QRHK1ytWqHe5KpQpYyXMJGamvT4SnQBmp1R1JjZE7+ZyLgYF/ansgu9ez5wT/uiJ69JdfdfuOoweFPZA3r2fOCf90Q69JdfdfuOoweFPZA3sGhqxBP35Eph16S/NfuEwMPhT2Qc5k1acUM6uz6VW0qCR23KeWITHSp3r7r9x1GDwp7IN3r2vL8/wC6Inr0t191HUYPAnsgm9dLq0OV6fUg60gJFx4IhcdIqb+ZKYKFFqjU9i8U2Ql6ZIsSMmjMYZRmoBNzzk+GOVy5lqdaJQ8lSaMMcIcK3DW9okJbuc3Ys7Xqte8Wq7T8jCYtsimzRvpVfSYzMClZZe9yS9Pa/GN8PxL6ElxWntrg6RqMQefUBoESQVevUitVKpbLSsSuSDOYE7XS0CM7hN/96osioibUNWOaibUODsWxYCL4zftw/IiGZti2oyw5eGMVLVdvGLyE6gnYRDM2w1GWG9i2LPPN7oRDM3wjUZY9/DdMqlNZfRVquupqWsFtSmwnYx4IhVRdyFHuRV2IeE7hfFa3VqRjN8JUokDYALDgETmb4S2oyw3sVxZ55vdCIZm+EnUZY8Gp0qq03GWF916yuplyaVsZWjN2Ow0xaqKx1EobwKirsQ0s6jY25Y5D0SmqwzigqURjB4AqNhsI1RtqMsZZHXE7GMU+eL3Qw1GeEZHXDsYxT54vdDDUZ4RkdcOxjFXni90IhqM8IyOuIcMYpIscYu9AIajPCMjrj14bxQoJ/wCbnwocIaFlf1hqMsMjrjWKBiNqZaL+MHloStJUjYR2wvqgsjLDK65cydBtr8EYmhTdkKcrTTQtppZKjbSe2NhG9P8Aj8znm3mhSXzR54wMSkZZO9yS9Pa/GN8PxL6EoXJXdHmiDzjwJyfrCX3ES8mypsKISvPGkesxWru49OOLo9WIrpFr6fg5Uv1pGa5tNg2V4wdcPjL6XRv9i+y/Y62Z6uOj8gZuNfyg64VcEh6N/sX2X7HfPPVFBb2nLNugp7e67WMSubuOfDswbq6z1S2z8HLtqucQa6QdcRVx06PRn9q+y/Y7Kc5POFe3pdtkDuc1V7+yJSvecmKZhm00HKt6nbEnGESCi4479MH+kufhF04HHXhd5bze2jXHKeopS11LH4WoIw9IFIJAImk2PL3Ub5YrmOZ9hN08oPm7IfSkfHDLFcVfYN08oPm7IfSkfHDLFcVfYN08oPm7IfSkfHDLFcVfYN08oPm7IfSkfHDLFcVfYidrOPkaOx+QCvSUfFDLHcmr7EcvP43cmEF+hSKWisBxQmk9qknSe6J1RVWx3FX2LtLzGyKzSLaNEZGiFSV+eFr91H70dH8K+pzzbzRZL5o88c5iV3KPQ5qvYacZkBebYcS+0n+2U8HPaNInZXbQeDL5UaS00lutU6pSc8kZrzWwdrnDWU6QbeqNdJ37VQosLKjZjKdhdztkt1EK/YD4ojSkI0WkCcpuGyq2x1E+H5AfFDSeNFp1NZUcKtJ7Vqo8vyA64aUg0Wj99bC/i6l0A+KGlINFob62F/F1HoB8UNKQaLRd9bC/i6l0A+KGlINFob62F/F1LoB8UNKQaLQ31sL+LqXQD4oaUg0WlYxNjei1TEeH6hLJnBL095S389oBRBtqF9OqLtjcjVRS7GozcWTfSwr4qpdAPijPQf5G2q4N9HCviql0A+KGg/yGq4N9LCviql0A+KHV3+Q1XBvpYV8VUugHxQ6u/wAhquDfSwr4qpdAPih1d/kNVwb6WFfFVLoB8UNB/kNVxE/lLwo6BdqpBXAdgHxRHV3+Q1XHLvkYZBtmVIH9gPih1d/kNR50s5SsKN6UMVNSzwBm/qGmGg8ajhuF25yvYvmcVPyTkjJiV2tJsuiy1i4JUfr9vJeLPo1mRDNyqu80aS+aPPHOQTq1GAOKoACyhrItEogINXa8A0CJoQNzUhd80adeiFCRHCUJKk6CIUA828AhQB6hAgPUIAPUIAPUIAPUIAPUIAPUIAPUIAPUIAPUIAQ9zewhQAhIIv4YUJECUk5xSLjhtCgHZoULGBAxpZWCVawbRAPTlwA0m0QSf//Z&quot;&gt;&#xa;&#xa;" style="rounded=0;whiteSpace=wrap;html=1;rotation=90;strokeWidth=5;" parent="1" vertex="1">
          <mxGeometry x="-725.75" y="344.02" width="2735.47" height="1648.98" as="geometry" />
        </mxCell>
        <mxCell id="P1Te4osSGadlrZcNZEam-2" style="edgeStyle=orthogonalEdgeStyle;rounded=0;orthogonalLoop=1;jettySize=auto;html=1;strokeWidth=7;" parent="1" source="P1Te4osSGadlrZcNZEam-3" edge="1">
          <mxGeometry relative="1" as="geometry">
            <mxPoint x="60" y="270" as="targetPoint" />
          </mxGeometry>
        </mxCell>
        <UserObject label="&lt;img src=&quot;https://encrypted-tbn0.gstatic.com/images?q=tbn:ANd9GcTOgDGRQAKaTcdAMGC5Yx-0vM9sEGCto6HQhA&amp;amp;s&quot; alt=&quot;Database Table icon SVG Vector &amp;amp; PNG Free Download | UXWing&quot;&gt;" link="&lt;img src=&quot;https://encrypted-tbn0.gstatic.com/images?q=tbn:ANd9GcTOgDGRQAKaTcdAMGC5Yx-0vM9sEGCto6HQhA&amp;amp;s&quot; alt=&quot;Database Table icon SVG Vector &amp;amp; PNG Free Download | UXWing&quot;&gt;" id="P1Te4osSGadlrZcNZEam-3">
          <mxCell style="text;whiteSpace=wrap;html=1;" parent="1" vertex="1">
            <mxGeometry x="270" y="-90" width="30" height="40" as="geometry" />
          </mxCell>
        </UserObject>
        <mxCell id="P1Te4osSGadlrZcNZEam-4" value="&lt;b&gt;&lt;font style=&quot;font-size: 20px;&quot;&gt;BigQuery Tables&lt;/font&gt;&lt;/b&gt;" style="text;html=1;align=center;verticalAlign=middle;whiteSpace=wrap;rounded=0;" parent="1" vertex="1">
          <mxGeometry x="275" y="170" width="200" height="30" as="geometry" />
        </mxCell>
        <mxCell id="P1Te4osSGadlrZcNZEam-5" value="&lt;font style=&quot;font-size: 13px;&quot;&gt;Structured/ Unstructured Data&lt;/font&gt;" style="text;html=1;align=center;verticalAlign=middle;whiteSpace=wrap;rounded=0;" parent="1" vertex="1">
          <mxGeometry x="320" y="220" width="110" height="30" as="geometry" />
        </mxCell>
        <mxCell id="P1Te4osSGadlrZcNZEam-7" style="edgeStyle=orthogonalEdgeStyle;rounded=0;orthogonalLoop=1;jettySize=auto;html=1;exitX=0.5;exitY=1;exitDx=0;exitDy=0;strokeWidth=7;" parent="1" source="P1Te4osSGadlrZcNZEam-8" edge="1">
          <mxGeometry relative="1" as="geometry">
            <mxPoint x="350.2857142857147" y="-100" as="targetPoint" />
          </mxGeometry>
        </mxCell>
        <mxCell id="P1Te4osSGadlrZcNZEam-8" value="&lt;b&gt;&lt;font style=&quot;font-size: 20px;&quot;&gt;Frontend&lt;/font&gt;&lt;/b&gt;" style="text;html=1;align=center;verticalAlign=middle;whiteSpace=wrap;rounded=0;" parent="1" vertex="1">
          <mxGeometry x="250" y="-250" width="200" height="30" as="geometry" />
        </mxCell>
        <mxCell id="P1Te4osSGadlrZcNZEam-9" value="&lt;img src=&quot;data:image/png;base64,iVBORw0KGgoAAAANSUhEUgAAAOEAAADhCAMAAAAJbSJIAAAAllBMVEX///8egc6byf8AecsYf80Ae8ygzP/K3PBOmN0Adcr6/P0Ad8sLfMugzf88jNKRwvrd6PVxrOuTueLs8vljnth6qt0wiNOFuvTm7vh8tPBto9pZmdb0+PzH2e8phdHW5vW30+2ixuivzuucwuaKuOJHlNV/seBboeNyreuVv+U9j9PP4PKtyulWm9h3rt9BkNjV6P/J4f8gqYGuAAARuUlEQVR4nO1da2PqqhJthGhNqLqrjdbGGDXa+qrn/v8/d41ADDBDEmur3Tvrw3lYCCzeMwwzDw81atSoUaPG1dFKlhGjnZddv1q+3mIfMBYMFr1q+fq7cYe60f65VS3fhQhngc8odShlhIyn5TPGS9+lJ7j+Mi6fbzr2iSjQD2Zh5QpXRatDqJOBuSuvXL7+Pp+PkkHJ/vdWLjvnc0hne3ndS2GRr2cKd1OqVbcOU/Mxp1RVw46r5qNk9jUGBVj7jg4WlOiNFjHyUVKCYj+iRkZ/8XUeKGKzokeK+8KBOtJ7/kSRFTaNt2RmPofEVyEDoU+pbH/fbx+nvyhxXZRxKfO5x4xZPrYvypcQ2Rik7R/XKfF/zrctN2PRou5mPnoIt5+ySL+gM+aioixaTD1vupZzsqgzRr4kuNqGD6PdRsxJ9nk1Sir6bVGAnOu9DafIVtZ8nkjmvojh7I15VenSXuAnbwm2HIkf1m65Jr0Ua16gP89+CQNaYthsidHyYjQQ63Ya8uFMN+d5PuOfcr9pseFdwca5n6Z8HBHrYSM50aGd3IIU8jWSPdvyTTgdkj8BDWiZzr8QfYcaBT6MeU2taw1fZ9xd/rfZabxR61rDW4a95H+bnljT6FuG6ZQBzccXEaVfDfCWYaP8byNeU8eWj/eXuhyJOc0qnmzLgU8nqpIRbTqwZRTTEPqR2PK9AWNG0q5wHi4PzlAdNA89zvDNlvE0VylVf+QM27Z8fHT7St+LaVHmPFQdNUMUNUMMNcOr4+9nOL0nhl/fD8M4GSw7KijK0HE6FlCcIbXl418GGer5loNkUkmkmuxT6U+HY2FoJNbzwQyL88EMzXyM+PvSqrjWEhLJBRCGhUAYFgNmCBZBluU4riz87pphytEuqZ4QLl3LJ+6c4VGCWRZNx34A6X5yuHOGDusUUNxkBCnTYWNoJNbzIQwL8yEMjcQZcWaXjj/lEGX08WPYVfABCKSSYafRxcFwhsySrRHgDNmrmnb48SjXXse1zcVJNnbeG81mQ0Hz1cLw8NTAYWPYxLM92RgO9do1G++y7hadilSK0aBrlvw9DC3Z7AzN9M1uIKq/QRkKlTZI8P4Zninieti90A1CBH8BwyNF0YmYgmvENb70Dzg5fgHDRvMPp4hpjOdCUwcX+BsYNhqOdZhyJTp9h9c3wZD+HEMuXJAqDJvv/M/IhiFUka/ICj6kwBjnixM9WFb9hri1UM4afbGo2XaLA2c4UQrkQiPFGL5CSt0MQnPbRUoU01i99VtZ+50jAEaOWLYDS77mI69PorSMOJKglRQ3CDBD1z5wmvyuwc1r8EN+kmAfxTVVO190xaMtHz9Eqdc+XNNvaRmR5zKGj2K3yWkQBuLQiTVprqaOm7uAn4mysBlxQlechHNa9qkY3PiYASd9SYaNoTy0Zir1T1GgdaFpdB3RNNndjLgkw5ZtATERHZJdy23FARtdSr/Wh3L5TqfGyEtVOfJO1sULTCEWuGNVx9PjiPOmY6nCsE5fuWykd86pEsYbJeLS2daiX2LYGErRirHl21sgdQHW2ZSiKy0qmLt5ezsb5Ni78EjxkNkNBG9vm8ywxtKFX2TYfD9Lj5mmyMEXtizf61lvkMtnn4Upug5UHrN1/dcYNhqHM61z4bokY+Lp3DRnsHfr7E3RfKVmgfYh81WGjYNRVVrYE41T72tVpdaeyFE0GubRmuPLDBtqVSkLinvwVNUPtTeoU6ZhjvmGquKosGG+zrA5PEiOlDLnvUw1T/m6qZ5BiGeUPoISGpTvKLszmuU7FDXo1xkeJ9XwPYgoY070+NEoWc9Tvu77Ic1Ho8OfbuEUPKPZ+OD5nOB9WJjvGgzTMrvD4bBrqHIK8zVP+brV88kCi9Neh+E9o2ZYM7x/1AxrhvePmmHN8P5RM/w3GDafmr8WT2UY0sdfDVrM0GqmdP9wSjD8C1Az/P345xmSX40SDEnrN2NifYvDGVoNk+8f/t/O0KsZ1gzvHjXDmuH9o2ZYM7x/1Az/aYbT2bOKdYw8ThnttJTPc8QouT9fayl3IzhlGOspZ/B79YsZTve+q79SIRHk7ac/JsRI6SaACxtv5ZopyRhqt4VjpHT9PfTK8lKGExewhXIoMb2ojHRvSSKl6aUnXIIfhVwWjcHXdIwCT2UvZAi6CEph+N7xOkhK1/ArMUCekOVdmXAk2CswYjbGhQzHSGUcSrUy1uiTNF9r8InpcUrWWxv8I1R/BHjiuYxhHzCfg2sjnxVBtVFt/C2v7HQz9AXKEPCLcxnDLfSSThjrqoOvz9CUNFA/KuyG1TeA4ie13mM0peMaM/EyhuJF2+Hjzxkf3O5Xc2rS50MvUlJ+2N5yfyhJeb3bKkPu4oS+KynFS4WrMqSPyp0UtxeGGQZKSvvrPOXmiNsSgwzZUEn5iDge+BpDxarMzhC40ivxZsbOMJ+yWTOsGdYMa4Y1w5rhrRg+5WFnmEeTp9T8tfGUTElpZdhVUl6XoXAgq7mR4L9p51LQF4QDFepCKcUbN5XhHvITIVJeiWEPdwaiPvCUvjAh6C/Il3jKQBUQV3jx1BDzL5QPMbHWbERUkjSkvgUqSepSH+CDWBI0nSdcyDDGpFXDj8gU1EycytQk99DBUrp6x6BCpx9fi6F8K2pURhfxHx5mPlgdyowZ04Ibg5KdnhKTwAE10eW6toTob8+O9MgG0P3tXCPlsdYR4G6kFZnqH+q6czNlbwOkZCQxU35BXzp9ify2Anc/B71cj5KOlpIsF6BqNVxviJrS7ySgwtSbL101ZTv6BBWmtc67Znj/qBnWDO8fNcOa4f3jn2Fo9d5ytwzDaSuOd7tdPNkid+EPv7YPvd58dTzCpkbOrpv+0/eD8WwLHnZPHmYwP1H3yTCMPwPfEG0odQkdzMzOTMU32kY8J94jw9Y4MgW3jCVx3wxhaxa0NzHyNRvDUbKMVHTGEzBluNBTBgNA5ksx3we5ZKYTYG8WoPQkS79KzBkLw7VvuIZ2mL8E7GTi4+gxQALAMmQaaSk1pUS4YFaPxgJVnJfjDFewFoMFxmSft2HdBDXk1a2pNVC8rM1MFYDQZ1JFq+HO9C9fwBC1m2B65I4eOmd0H3EeoHgk/2Vag6nqcTt11006+5fV83OyGi+dNnElzSrxrVCGuIWFHivkE9cmanNxBsQpi7qN//hfkxy/4yCnmyRWxnm43Q2ik0YIGEfVGfbwB1HX1Aif3Ad106nd25zpU5ft57DyZpt0CNlU8bB/Na0+mDJSP8oMXX108lf0v+NidZ5nlERr/ABzPAqMSgYntDOUNzPKPZHlZoYGSsqu7WZGuVDiDNfZCD3yg/V5IFp7LZzA2OjewrunfG2udLtmeA3631n7zEDjRwxxW9+jWFtfwG9+f5jiMVuryGeVeA6QzaDhT/gOGEr/mmkHgkem7QSzsQV2NH1m3AHDp6wHyR7qwP7mKFjAEdBAhvomfHOGmV9GCt5JHLcYlp5EY5Bh2yTY1lPemmHzT9aD8BIz4t6owSBveYbM55cgxi3WjRk2h3IfNNpewBa2J8eQJV6Ywtxobt2HkRyiCMGyDAGz05IMv8X6MuP3JJdRPOBvzxKoL89QtwQoydA5vObxB7egpdFQSWpj+Co9BWYudZFFpgpDNMRFwbkUtG3WzqXCPQp0LtWsoGVwpczLp3BSbAuhW5ohFh8RtWTHNQlayFObJbu2Ag6yrb2b3yisQVvLMBQtDyvbUPlwj9WbutoJ4xkVtHxNC5PZd7D3UwQX2fgxTrAEQxoIu3f4OyjDHmxgcfyOPt5DII4252EMvr20618f13ZvBcbpqc6wIwYc7Hce19PEoEqIEnPO9BgDUjquGaOo3+EpT09NQiFYmuYrFRkGMiqyrlMoYPiw3RhPqxih0Ko32hPjDZjrfgLLd/jiHlPyYSBGd0Ek41IMpQIoABLZ9KXeJHlRsdoh7b1d6ykXiKaht1itThKEF1ndO5ViKITvLAq4PvGLGH4vRCwIfK/nsDI8bT+nNdSBtuoTbsdQhvApUFnYGJ7Uc1ya4Go8Sk1J8mYMRyJKBn6a4bAyfFg5JDgNAmEUCIyImzEUutPCUNR2hg/9kViwRcAcc6W/GUMRMN0azDRFAcMMIr62ufXcimHIN+niC4iyDD0RZSjW/3Arhq2Sg1QGZC9kKIapGRPpVgzXTG5ldoSJCARUGG1UxGgyjt+3Ysj3CuBRr4oZyfRUkOluHuLpMNF3n1sxFNMQuSgW8PJP1qkb2z/Jz0iGlHgjhkLTWXCXK6PvSIr2kcpXZ+P0fSOGIoaTb9XhG9eN1Jr8mS81uvL4RgyFokvXwCsIz0NU/Id92vLTtyFtWhl6o54GtBGNlFahTwYlNF6H5D4zSuQiczhE8vG67aui1crezKSYbZjugzF4AVe0eEn1lNEAVgxxcI8Cem3CvZv7giAYDdOoLPx/QBFXYgq3Gs4whCJ1UwataMclz7y/psQi2opdTtNULQFdAY+7JGPq2YZpL5MWSzLcgKqJo7BirH9jfUUQ8PEjWQLFxpxC3znkNatosNEUI9iAD2W4xjRotKPtqTH2Cou66LQBGYLPuUQcSaFutx3U+xUZYgo083A7wDWr8LXfAzJKIR2tCLXXBNXtKkQfatYRKMOpxdpEnQzogzRorZRYQzcgDwvVzox/473ZbDRFnDqrvCxWmrLzUNxbRIc8uICi31uIsaWk5E46MLPd9C3Y6e/6MXkyfnsbSIhLevb4OvwjrqisZ6AWfPT+0XfAZwhBQB9RQI1PNyJyqbaKIjEsZ/3o/aFRe/tZyrgQ8a0HdR4F1BAQb8RwJE7eVgF4pL3HNGwGVfDXuobW4EYMH/itUYGNYawsd2xpt7Xh89b45K0YdkrpElv0vIH4AzvBkJ9Q2vqx8lYMhfIPj2ovqv3JSLqDMBLYheVsKTUuCW7FcI4p/3T055/7t0FSbPacgFvs7RjKpSYurHlZcONV8xh1K4bC6A62BLoEIyFfGTJbFWuTgh0/n7Jox8/ClzuFw7QkuKRAzVvZAoaBGtDFwRlGUOgXvA/lsdAq01YBPx4AN+aozz1hQ2LGc9FP3tL7ART6BQnonkKYh2OvlapCHJKIab6JMfQsfhO1ZketNuzbnbBTqPI4xAJxGxmVt2vD3WsaX0ElYIfY1NRCPrtOJ059tElRhqhXUtOIcIDIkojdq4R4mwDdvVeGGEdtYN3C9TSjDmRuQgHli7eHUyKGZhKi76/RiWLZAvceizbRS6ir6wjZHtQRzgJD7+h24GduOYhRUmSrUAw53kDLNmHBg+TcTlS00Ik1bWkpSzxrkZ0ImBdUQ2LpQmGl4V9r360GMRNtpollMJWvdsBW3SAewn4EUk9RsCQVQJgeYQamn/CFzQ9BPnvzC+esBXv5yAq2zBFKr8Lb5u+B1ERS00VZaciXoPCDheOeINQJ1zoeVsRE2sACPsvLQfradlEbzqU47txmrcl64FKK0gUcIFRICKs+tqz0qO96kPdNNLhkz1hnOlX8Lk/ulkWarO9CX16Q0Kj6gp69xsYm4Qny4Myi28zFqTS3psx40WNHuM8I2vcC6feQkihp9b2fgyi/JU+1lLxUmSrbKHsyVXACPksR6fvwH0ObDMTMizOlKCs2fZIIz/4CIE+DKkb4a+xvRfbo/BxK49iN5dbUuJOJbEUyTAppQv/TyBxCbs83FIwmxUve9mxjQP0iG1wOOCLId4M9y/JHZ6uB1P2jdePw4s35LQhlZdfHGJR3vxk5fXCYN3dgZIAF4vGmSZCrKQtsNi16yyx9Yjgz+VYQ5ZQxyzcxJc5+NtVX1tFktck7EqU+GIMHx2j+uewIs37xidy/gJ++liBaqdXrKQY8lLou3YwX83g7nW5b8S7ZR67quYbRuBK/O8AuUu9EKWWZHsVlmn6TupXe7t8J+gn8hMoEJVarsjtGf0Uwx8s5eszf30YrcRWEi47VUdRxhXI+LxeY7wOtVUoSfBzIiDOY/8L5ZyDcPu8Z371kz51WneUqvpGo/h3wpvPn8SZyT6CdfbKDPe79BfAATwk1atSoUeMn8H/PssddFbWmsAAAAABJRU5ErkJggg==&quot; alt=&quot;Schedule - Free business and finance icons&quot;&gt;" style="text;whiteSpace=wrap;html=1;" parent="1" vertex="1">
          <mxGeometry x="-70" y="280" width="30" height="40" as="geometry" />
        </mxCell>
        <mxCell id="P1Te4osSGadlrZcNZEam-10" value="&lt;b&gt;&lt;font style=&quot;font-size: 20px;&quot;&gt;Schedular&lt;/font&gt;&lt;/b&gt;" style="text;html=1;align=center;verticalAlign=middle;whiteSpace=wrap;rounded=0;" parent="1" vertex="1">
          <mxGeometry x="-70" y="540" width="200" height="30" as="geometry" />
        </mxCell>
        <mxCell id="P1Te4osSGadlrZcNZEam-11" style="edgeStyle=orthogonalEdgeStyle;rounded=0;orthogonalLoop=1;jettySize=auto;html=1;exitX=0.5;exitY=1;exitDx=0;exitDy=0;strokeWidth=7;" parent="1" source="P1Te4osSGadlrZcNZEam-12" edge="1">
          <mxGeometry relative="1" as="geometry">
            <mxPoint x="700" y="700" as="targetPoint" />
            <Array as="points">
              <mxPoint x="700" y="700" />
              <mxPoint x="700" y="700" />
            </Array>
          </mxGeometry>
        </mxCell>
        <mxCell id="P1Te4osSGadlrZcNZEam-12" value="&lt;span style=&quot;font-size: 20px;&quot;&gt;&lt;b&gt;Pub/Sub&lt;/b&gt;&lt;/span&gt;" style="text;html=1;align=center;verticalAlign=middle;whiteSpace=wrap;rounded=0;" parent="1" vertex="1">
          <mxGeometry x="560" y="525" width="280" height="60" as="geometry" />
        </mxCell>
        <mxCell id="P1Te4osSGadlrZcNZEam-13" value="" style="endArrow=classic;html=1;rounded=0;strokeWidth=7;" parent="1" edge="1">
          <mxGeometry width="50" height="50" relative="1" as="geometry">
            <mxPoint x="180" y="370" as="sourcePoint" />
            <mxPoint x="560" y="370" as="targetPoint" />
          </mxGeometry>
        </mxCell>
        <mxCell id="P1Te4osSGadlrZcNZEam-14" value="" style="shape=image;verticalLabelPosition=bottom;labelBackgroundColor=default;verticalAlign=top;aspect=fixed;imageAspect=0;image=data:image/png,iVBORw0KGgoAAAANSUhEUgAAAOEAAADhCAIAAACx0UUtAAAgAElEQVR4Ae2dzWsUy9fHn79pFiERNKhZ6c693JUrty6SaPwxDFHcqAh3IRgu6MaF3pXZiODFldeFKLgTQRI04ZrrCzpDQmamn1t1ur59+lT16/T01EwahuH06VMvXfXpU9XVVdX/FwwHza8pAZ9L4P98zlyTt6YEguGgYbRpRnwvgYZR32uocaUNow2jvpdAw6jvNdT40YbRhlHfS6Bh1Pcaavxow2jDqO8l0DDqew01frRhtGHU9xJoGPW9hho/2jDaMOp7CUw5o8EgaH55SmCaZw5NJ6OmVn50Bx92g83XwZ9/D1N+j15mGKSEHdOpElnKE0TYbL4OPuwGP7rsTp5CWKeNUU3np6/BvWf983eHx68P5jr9hfZ+80sqgblO//j1wfm7w3vP+p++BmGzM1WkTg+jms63H4cXN/bnOv3FTm+x01ta7y5d6zW/jBJY71JxzXX6Fzf2334cThepU8JoMPj3ZwA6GzQzoEy6bzWsc53+hY3hvz+1T50GhzoNjAaD5++C49cHynEmlX6jL1ICi53ef+X5/N10YOo9o8Hg9mZ/rtNvfGfF9+d6d67Tv73ZV+2+397Ub0aDwa0n6pGoAbRiQMnprncX2vu3nviOqceMBoP7LwIFaJFWrDEuVgIa0z//1k9RvnpTXxkNBm8/Dpsmvhhw5W5m3eiHD/teYuolo8Hg4FCNfTZNfB2MXtOjeNd6B4eeelNPGb29qbuh5RxDE6p4CSy09719fvKP0WCw+029PWqcaD1ONExFt/i73/RbU89afB8Zvbix3wyF1gqo9ruLnd7FjX0Ph6I8YxSPSsVbq/ordfZSnOv0PXx48o7Rc3eGjROdFP2Lnd65O949OfnEaDMg6kHrsdDe33zt1ztSbxhtxps8AFT57/Xu8euDcMqpHw9PHjF664macTepZq5JFyWw2Ol59YLUD0aDwcd/gma8CZRMWNDjUB//8aXF94XRCxvNo5JHbchip3dhw5eHJw8Y1dNDlRP1pEPWZEOXwH+LHTyZYOoFo814k4f3pz/jUJNmtBlv8thtL7T377+YfK90oozqVUrN/CYPnWiYJT9e4k+Y0Wa8yV9AtYP3YRxqcow2r+Y9buWjO0e70g+7k2zxJ8loM94UoeAxrxMfh5oQo8Hg6Zths1ZpKhhdutZbaO8/fTOx4dJJMKpfzavqaXYZ8dh9xu6f9e6Zm2oBz0Rml06G0XvPmqUgHr1ViuGYcNsstPfvPZvMKufaGdXjTc2r+TxY+GWjH54msgPPBBi99OCgmd/kF38JvlNkcrHTu/TgoP7mvl5GA7VdaPNqXtT9FB3Odfqv3tfdK62b0ebV/BQRaWd1Ii/xa2Q0GDx62eyNM2WPSjam9Y9D1cVoM96Ur89nM+GdRo8Y1jkOVR+jtzebpSBT70Tphlns9Orc1KQWRoPBp6/NUpAZAVRhqsehwt31x78uryZGm61HvGuyR+t71LmpyfgZDQav3utdGkcrlBmr4xm4nNrGoepgtBlvmgEi7UtY7PTO361jrHTMjDbjTTPdeiy092vYA3qcjAZqu4sjtBRkvatmcuE303SGbrWWTU3Gy2j7cTDzr+YXO2p65X+dszM3B+fuDOl35mb4Ab6jcPnj3tRkbIzi1fwMTxLVHzw4d2f46GXw6WsQDmvTp2T0cNujl8G5O3oq90wXwlynP9bFJGNk9PzdWd56hD7DFc5ON9/YjX3oyCifvlF7+8+wQx33w9N4GJ31rUcWO70zN9XnIXNNVNNTZs/cnGVMx7qpyRgY1Y3dmZsz+1WQYoDSaxg9XWGGMaUyUc3IGL6aNxZGZ/nbX/pJNq8H5e8JZ33Di/FtalI1o7M+3rTQ3n/0Ml8TzwE13nSWZyeObRyqekZneLypkhm+s93itx+XvYHtW9poKmV01re6Xez0Rt2jKxj88VdwbO2L/WpxFjR6PlTlXyapmNHZHm+a6/RH3d1YDxu3VvdOtWcT03GMQ1XHaDDYfD3TS0F0f6uC59ZADUKdvPp5VjGt/MskFTE66+NNqiHWe3XERulNh6mocmm9e/Lq51nFtPJxqMoYnf2tRypl9NT/dmcY02o3NamC0SPyFdoxMEqkzmCjX+mmJtUweiS2HqmqPzoM+6OqrZ9db1rhpiYjM3qUtrqtYIKPea4PG3rD6Ez2Tav6Qu5ojOqpPbM93sSHLSsZH733rD+/sk2Miv8Za/SrGocaldEZH28Sc+mpS0qT7ko81OvRj6X1Lpp4wejsedNKFpOMwKh+NU+DMtzZzLY84vv6+y+C1vKOjSbXnPrf7uyUYRUv8Udi9Ch+FUQXepntD/SL4tbqHnA8It509HGosowe4a1HaGZJsQ2PaLsrM3TPn+iBLFee+t/u7HjTkTc1Kc/okRhvEv1Rc0gLP0Jvmj6rV3deP/6j1h5yHEnmrpTLODsbjf6IXyYpxWiz9ci13mKnN9fpq7mkNPncJtU8Wqk+aM4mXg9FEazqf217Zp70R9nUpDijuuinYBLkenexo0jCr/rPmOh1oWduqn1V7flQH3aD+y+CpfVu5kOS7V+5xt3o13B1ptGoxJeHL/HNfVtohkMZRn2fTK7ROX59cGFjeO9Zn34XN/bP3ByoL0JVvoxYJzfX6R+/Pjh74+dvv3fP3vi50N5vre4dW/vCaeM9TqHnhxmNvk5u6Vrv4ob60Af9LmyopadjubrqSC09JFKQUe+XglBP8dHL4EdXr/+iG9f8b74OxtoCCApt2jiLhWTypuSNNl+ztfzm0n50lTtf0p2QSjxf9ZGUHYcqzKjPS0Gob777zdBpD7Pr5+v24/HMczWP7SloppzKRLa1vNN+zOgUV6dh3f2mWg9v1/IvdnolFpMUYdTvrUeih0f78YVXp67LcWB6uvONOEsH0XlWKMXhyaufj619UbWbuThYX52/mOpxqKKbmhRj1OeLP3NTbYGWa578eCryVDtX79Pmz/agwmZ+Zfu337vZgNKt6PenByJXwh1HqpybUf0VWm8/rVT4Yxd4B1HdM4FADZxB4AZOJQzE2dbqXrE3W36v2ym6qUk+RrXjGevTxkg99LIzOy9uVPeYv95Vw5l8rh2TAZ94qMqjP3n184WNYaHBGjJure5VP4hRxS1ddBwqL6N//DWe54yKrrlETzzQLUNreed05/tId4i+hLAzuuaedMdZFDLHWpyiw9byTpnvcgeD9uNgfmXbT0wX2vt//JV3JX4ORtEsVj6yWAWg5b+urmdn0xugpfVfI2IadUaLY+pEE8rW6l6ZFeu6uafXBz5iqh+ewhGY1M5oMBzkYtTn8aZRGN39NsBbyhExBVLZAoeYy3qlKA+uXOzaduHOqHly2nyt5wHqJDzENP84VBaj07AUpPADk6nFD7uxN+nlMV3/JTqjHDWSRZsuDmFv61ure0UHa2gEIGTUoF/+6ipq7uyWKudikmxG/V8Kstjp5e/cRA8femZM+DJ9bfuk/pWrSNUZJY+Y6hdDG4KGUjQAhYzawde2W8s7ZT51HAxii1K89KY5F5OkMqqfKvRb4F+qsfD4V+YjLMHg1hNradHatnqEWtfXq/Z9iF+43gkiKgcyuNZTnVHgBfhIw/VXP0dmINWJKQs7v7Jd7sOHv/3ePXF5K0pRx6kzH7+oiVWregbI0wYmM2q2dQ2rhKpnbG7fbggKaErMotXvos7e+KlqUVKyFXpTekZUVaifqKguUQ7gWJeJ3UbLaEUqOATE0ABlc+rsjZ/UfEeNQPpzhjXnn/tpVaETr0dWqmduDtInjKcxGo43qcrQP3IbkPkhnou58TgMEH/IDbmEX4ud3pWHh7leMpnO6J9/D1VDbzjgtXiSvClwjF2IrmAUAsC91lOYwoly4Czm8uJrImkt7xT9DNKlBwdJq09PXv1s7jpTs3b1RcVrbAhrR/mXMqCy1aWXOQ6VwGg03mRcCCIN88qafpxChakrqdDA5AFxhtBoD2fSmuv0844jYpE7B5Rk/KPRR91QonSxvBC0hqY8t1b3wt/yToiITS1P1FAYoxZ5ANxXPxd4uqdRp9W92O2HRI0QNvpRSVJ9pRR1dQZw5KZC5zr9lHGoREbDr9CaWFTroGQOXy3XE6ZriI+Vqc5AhMuv6CVbyrQSffvFWnlTbRKUte2wAQkvXF97LANd+jLThQ31+ZtX74cfdoO3H9X/83dqgvNvv3cVsmIhKE+OyyBSKI3+7I2fGQ/4+nXg83exwYoYqfyW4FcXvyjjZU2Zh32eCqse5JCgmsGLG/tJzaCLUYw3hQ6fWjfutJCGuYxqLtLERkyoOJmGH1JypAn1YQnOddS03+hTSbra1MXTb6g2oAzHRAUKdAi3Zw5jb6HoFtWpL7T3j18f3H8RhHvjIwkuDNW3R+6/UIuZIrfKQeEyz49LPnF5q7W6t/nazH7iCWn54FDN6VZXR1eBSHBRBnd1N2qluQnBX7maZdUEZlB3VFl0SHJYZYYrrUwZh3Izeu7OMPKasRhN58PxPGEuj/LBOZMxmMzxGzRmo6851JhokSLp+T+dMo2yGoi4pjZcfvtx+O9PxdC/P9U3vuiLXmEflFcbQOGVypShX4kcdlfeCSlPMDY9HBSkYqCJ3F5CDlvLO+fvhl8tw9W9/Ti8/yI4e+Ono4fNk7Bl5U11dcjSdhW7sFGH8bYlNED9IhItIHjEKyzVwp5zd9xfyLUY5VNm+K1ACRgOYpljlRd2CUbV0J3Ayk5cPA6jrj27lfXZY2tfWss7UQdRt7mxsRiqMM4lydCgRqNHKFUl0a5PKT0KQa0m9dV79c27qEdhJySyxGmOG8+vqPdP0Q/dX5ZnOMsoRUTIrxSNPkoV1ZeoAXOGQmVJMqs70lAk/J9zBXn9V9KmJnFG9XhT+BXa2O3FCIBepJp9YWDOXIaICrcXonJqkC4JvHFBQC2Ew5bx2o1VGGqUC6g/CLpql9ZVt+m/ZVLFpslxWPXnbxba+9GtwpMAQBDEWehFbuFxYQ+BWyYF13rtdHS9hKVqKguHsrKMB+VlLmwQlgR+iFDwxPrs8euOcSjJaPhqPqSbwQRcVKT8B3dNfRr8W2EpN+E/oLfN0PEVp/ghyfhHbCRQHlTGotF1VBtqlNcfKfFvV+fa9onLWwvt/fKAmjGv8AUs0qKMIUVkDwZ0Cmb8kCtxOTwGRCvOojSYPmwbVUWbAgxlXvI4y22EEgxAj3pBlcEmFrnzJT5jNNrq1o4oJQ2cogwhSR4JzxDMuECR8Evi8SAJxAl7EQkPpWVgiipPElD33IApW6t7z9/lnU6WNtiuP1QZPtmw+KMHHQDEc5JfToozPQYdynifpIpAPaL8SSPseaVYNSK5h0EYaq7TF44gxmi4f1PkJpEYMocYoeE2dFb8cwMuCzMc2jZcw0vHDsItzdkkTHldcpnqMq6ZX9kuN9E4CdYLG0P1pC/SiieaTa2w54ckQ2MLCUkbTE3puZGyz4qSx6Et8LA4C6XqUN171ufjUIZR3f3XH/mENQuv+goufaTEWSGwSJKMo8htfyliSz4M+zoJBqUxNVXbWt2zd3lI4i9br5usaJCI82RSjJ54uP/jlgIy+9A2Fh46IS1W1wnl6a7KHHXtDihSUZ00VYbmkTRilJ46Tf5EeuIQTpQLIiV+aAfnZ5NkHipJFmG5WTxvIab67byoKrt24wbzK9tqhJk//VQhh68rkRZHCvRwQJ0yt+Qx2BfFLREVVzLZYJBevOIsDkUtQE8CneU2XFY2C+19PtUrYvTes75alx3z7c7YuZJ7PqQEAZbcDEoSbGNhgEOyTLfnCcHSCNd64SQ61FCKwOq7tbxTTU+Uk029UpowILLBWIk19zDjBlwmA2ggOANCyW8SFoRhagpQeUEuO2vQNhBmZAAzCKhoxShv7iNGwwVokTdOj8umwZEYu84oB0yJJHhYxMyV4jqdsTmVPBL2pM9ryJZZVdFM+DIfWuZE2rIeh4qaew6KnR+cpVPx7CmOoYEgLIXeTsJl4CLSWRGmkGPdNlSHOSv5hh6WoSBejUaMmmFRBEAUEHCKBOhtgVvibJ67UMSMQx4Jj9wpE+UUJE68HpaLTUm2ayuuOXF5K5waZ3M2suZ053tsrDSedMyJcoa47AxCBvzf5tiOBBoI9BYqclso7ULVQfUugmQcHr/u6o9qRpEJCKKmoRcCkgQTZAA9AM2pgRkExIBrdp4SGYMx0yc9QqG+UUlXP5+4vHXpwUHlnVGKMJpBxxniMnKCvHGBztIYJ/TiEPrMaBPSYu0er9PMwoeBLfB4eLVGssWofsyM+1HuilC7SAwaCCmnRIZ4EBUqmvcu24Iox8Ym0uiCE5nE7YHMJAkJjb6rkuZXtsfOKGFkp25rOHB5ZJtXEScOIfBojdLCFJXIBZQ2V5aUF9r72HVGt/V6N7yF9j5DITtqMo4HEbl0HnJlKLNISAPaKBs45GF5Drmey9xG8K1eLkcvS3nFQNYVPG4/Grb1SLScYGCKdQ/KRZUQKrlvKgoZh2FFsMrFKacQq7jj16OdkUR/NDuwnaTRqDSMzOMR+lhW7Ct3xaBiS9LzUyk2CZ6gm/mkPxlGK2GukkgYss4ytMscGgjOgFoZsaGNIzastl6Plyb0RzltMZlywP+RKvJ0uvOdZTTKEAyW1rvMIBY/h89GmcUgQ9mnrCRQFpQlvaqTVQb3RmN9ZgqnWvOkRwErPWz6WZ6HZFmXLUovVvJWIcfO2pVCGh7KyCp+N6Nm4r0zane2GDpJBlYLaz0kmpxRuonxxM2Usa1h+XFeRZKyG5t6wmtI12trdS99UViZJyo9xSw29oR0CSYbKVuDIOMWWNIcU1cVOOslqeTd+sSxJ+tlvTOxkCFn5pLulQr1SelqfSLf7JYVNuYwtW9a9xg+fwAfN3yl4mcVagrQcj3MRoDIg7hb0cVO79aT6JV91B+NvwuleHl0IqXYoRMdpzI567EIs8zsjLmvNh5Phk1S3/TE5S216HTk0VARw5WHh9G0ErACjwUBp8YkICEIORKigk2tYruOMqoYsSW+C/3RHehZ9FFECBOv6cigrD5P7iOb3NnIQDCe2yh+rk/CtLW6l7JwUcCXfSjmlICJTEoyDRBVIaFUtLpeVDHmrqC0jl8sEvecEv3YZCY4g0J3RaJSY/EW8PaIn4RMthzZQNIQdK4clsgt9VbJPh5KZcNo3E/68yvbZbaPTHa9tPEifzjLlkEShEpAdMZmK20NFpmYqjdlGNavPozViDBgVRMhIRr6+L55elGv2TknCuOMqHYlcYyBUmf2bNajTzQVeZwiTM0MKcNByT0WbUyxp6SJ2UGnAEIcrqkdck5c3ppf2Z5fUULeQVYRjzik/HAllxNym0yCXR2OWrOpTZ3j7HalUbz2bUH5s5NBvnmQFDPYJwk5wob3K1kutPcX2vvn7w7bjwP6nbvDvmCk7/v0OB3crG0vdnqjPuDrx3m18i6hypU+jQyFI60l/O337pWHh5ceHFx5eHi68621uke8ntQEp8WfknSpU85ao+I1hRzzpsbeocxaK6IZ/fdnkDxQSpE6ojapRkBzjckozvIYuOw0gJILzlCqu7PQ3j93Z7j52vo+01At5nr7cXhhY6h29Q+bJ4qHx6bu/qRqprHS8phqQB1jok4yLFJpff35u8NX74cqD3EP/aOrtg4Ily9bYQsgmzNs3MyUZ6464saajagWjl9XOxJgdjNdo3muxwUHA2zzFL8VVPKCNhzCMj5oHwUhPTfjsXE9l+liSJNkz/QK0HCiJ+2PgIsigZR6Ix3a2x+5QhIZb0d1C3v2xk+x4Ebg4j7k+6M4oUxV6l3Df6mZv9qViFrkStqnJG/rn5poAbJ13xTFmCSQHpAIIWmPTgejB4fD+KKREE0kQFiIfNhnnQbATtjzewvY8Rggi7Okpx0EMAvBTQmQ1bDSd3xQTEvrv3QjqzdDTK05uV8Iok0S9JoH2h+lHDrRaiqzfCLtAvXM1LzeOvVKCzF6kmFqVy6qL0VI2kDPYlTfpk/fqN0KeP0JMoCUnRucEjgKPQ55DAjiPGtbmlx1z93RzV+eKoRPHQ7wak2372YFXL5qay3vnL3xU7ltODbjp5WTw284eP7ONMH5YhZkFAPUXN3B4XBSmJpKiVpdcClOQX+68z1lI1IXo7rQL2yE2+lwMohaHrVINSdbPB4eP2eUpwIbrkTSi51emQVxGqNzd4YlACWM6PFlab17e1Nt2fdhV+3Yc3A4/PQ1+LAbPH0zvL3Zp+8ul3Of9PBeePNRg+nHf/TOVqVuDHGfFDncQh2hgoTgMuiqZbcJLiaR0bcfQ1fq5MZmERhRhrgP5qeQXTujKRrEBhvEudhRWzslXV5am6hvxbcfh/qleXYTn1JPamcbsW+P3rrH8RqpGDFqEzK++izjckRnI1Bbpo2ch2LNC5US6iuFE9QgOdGUb6ckMKrrj4b0kR4i5ZyZs+FgmG3DjTnu0EOgsNzGRB5rNWBGgnP3lUJ1eXHDbG5TDCC78rbMgAAE26aA5sTlrZHWo+phhMVOL+XuGt8pQSevVnHKOd7EazCN0X9/BjRMA/IgiGSE3nkIFu3skj0MOJo8KsgQ7P0C+LXlklPWZ46KbAEcnaxUMJcFe/5P4lp4RaPKRC2f7nx3jjfxuktmVLtS2juTJwY6eWKQcZbyBD2w4xohIxVcjy3wIJltBL/ORFk7m2Nr+qMLk6hIJ52kPLb2pfxYrOmVvnpvtlSfxNWhBnnFoaJpKX1mVy2VUY0pjUPxxCg9YAcB+eACzxBFws/a0YJyLtgBKZLRG3pidyKPwCl0xp6WRC+z0KFeBeSepVoXsqhHUdekP3MzWv+Z5EeyGX3+Tn8p1PX+EHTy5MGTyBwOIfBQABfBcRYCBeSHarZ2oTpLMK6uSzpq+w5wR+2MsiudVJcU14IqIwH1ONfp53kizGJUu9LwM2LmPZONJjJBqJEB/qEUQtKhuBIygzHSUgJN4mL1UQ7ZKw8PSw8PoSaqFcKZViNfWjAcTJzR8DstbHrU6c73nB8Qi897SioO/bEfPqTPGQVPXMl54khxmdtAhsBjs2XSUHe7HJQilJ9+VH0YLalSiuh9YJQw5QAstPdzjmrn8KPWOBRPScg2T3DsAEsEAZcQuCVkcZYOFzu9Mq/OrQqe4f7op680kj/SAHBVTQRqM3O8id+ceRk9OAynC1EyTmI4fMIAmROCMKPDFKyFvVhUwC8sr6ynekz2qSKJgAom//s3skaQzHXMt18sf2FXXD5GtSvdfK0enjhkghh+ivMq9PYh0LRPCY1IsdDtaF+80gSDRy8n8zImCU3o51e2H70s+wrN1L171VRdD/W4Fi4stPfVF3wS3nza1VSA0WA40N/EUW99CiEoOEsPLih0huVKvumKfXl5NB429FSjoy7tt7fmmyia8qKqZ1S7HFo7yhEZHdYRYxjJldJnC52bgHpQnWpbyeWdQi5H3JP+OdEyMxBy+1FqO4LBlYeHi52ewHSyh9HUZtPAiapyHyYtzvSDTjSOJbc5j74M4cXTEpxoyjcX3dU0HBRm9NNXtZikEJSZzTcMIIj4k/QwKzw9T7+A8baVB6B44ZR3+rZxJROamJfxCqPAl3mZuynIqG7xaVdy8DFiY83jSZEzMT1+Xc0mDicXsyuUd6eeNvr242SmAHP48svUMQ1nr6V34/TZp2/UhEMP30rc3ox2H5H1klxlZRg9OBzSNxdTkKJTSWA59VzJZWcq3IBkmqBw5eGhGjHV91LEK2bF6yqkD7/6VoXpyNICFbVLPL804pVd3aevwZWHh7FvonrTdWmt7hVrDQy1xRnVZUQv8V30fHMpv5/ufONUne7EzOKn1KCB/sVsjBJn3cJip9da3bv04OD5O/UpW5o3dHCoPm776v2Q9rQa07RfWu3e0p/uHF8StEXCq/fqiojXH121lvL5u+DSgwPjPj3qg9K911re+fPvxJn26T61FKMa0/N31WISQZtFUhnOrEjcOBoznkQoY2L8sbUvS+u/1Pdtq5kY7+hv0YqR1upe+3Gw+Tr80fTw1vLOOLw1ro42tgi/bDuetNK9e86z0SBaekfFOE6BbHlGsZjEsJJOkvMs8ILgNEtXusNaOymMw7WonUKW1s2SYt4K6+J+9X64tP5L+9RxpM5vmHHHz9MqKpcZb+KYlmVU18d/TWrCOBS4gZCTs5z2dmyiL6EMcq5FzukMLDO1X0i4CVSSe9D69uNAdxB9xqgodgXsww8KJBVRgu+sjNEf3YF+O5oEVpKeCEs/66DQOGxnQAejY8V0fmVb7ZFJvjOloHXd3HrSH1MP1bpzCtBTT9hy400VMaqrxx6HMiTZkJXQAEcIiMTW4FRMsBr9CmrxxOWt337vZgNK7GpMf/u9O46+aT2clU5lfmW73HhTlYwGgdq1NJnLvCQlxxADLp+ZTLRqTFUrn7LWlpdvKEd75R2tFr+CXdwKv2eyG7Vg8PTNMKFXauMl6bGYyzSw4yRNRsAKMT1xeevcnTKzj8/dGR4pV9pa3nn6puR4E7/PR3hmAq/BQI9DhfOhNHYZxFhoqgFUlzKJyDL60g2WCDi/ss2/uMpLM00OBveeHaFeaek72S7Dahj9sCunlhYEzv3EUzCSFHDVDWB2HRu1P1py2XswmOwyYnGnjfuwtbr3YbfAJFEbTWiqYFQ/PLUfB8fWvmh3KDwiHX5L9pTcHsa8BedKLsP7piuRtDIbvW5ayzt5VjOiiEPhKDEaLmodYbyJl15ljJpxKO7MODok4yw/5HI6diI44hcCIrEFZTli37Txo5n3eelX8xxNyBUxql3po5dqeRdroIFOklMEQ05LHoosuVm6jJghwJuqaDNLOcVgfmW7zKvnYPDn38OjMEraWt4ZfYkLAM23dhnPRumC3pTGjEMJgPghh4bLZOP0lDCDwCMEfFwQfOMwCljam5b+guilBwcz/1x/4j6dwXgAAAqSSURBVPLW0vqvUbcAipNWnR/VrtQsJolQMG5VAMSJhCwEcQh8ARyQTRFEJDhUQVKcZfqpwm2Zl0uL0q+x1Fn1aj6cxRvnjPvFonKljGpMLz040A9P4AZYkMD/k2yAY0pYcQpRcYHTTHqZeqmaUF+cKfa5Jr3GZuYb+moflYBy9Yx+2A3YkL4gCYecHigh8LOcOWHgPCVscEiCOFQxlMK0iMPwcmlRqavOGLarcLwJgFbaH4Vv13teMkw5SRw+AQ03EyQ5D53KlEjsU1EM5Sos2mQ5aZBF69Ww6OpeuSSmKFThtgXAZAlV+1Hd3NOnR3VPNOIgfshhJVloEJCfBWfOs04lguMsBJ5iOW+63Vrdu73ZD5dAsDUbtEzlR3dwe7N/FABVy6xX9+xPK3F3WFoeA6Ma0/imJhwLyCTgHwJHhxOWZAA9BBED9CTwOLllSUznV7aPrX259URtU4hvNtC6lGNrX2a+D0qevrW8k7nVrWeMakzP31Wf7DBvngCK7QtxCoKw4Xp+isYK+Fkhi0MelmRuoDSl21as38DKjSNCJ1ZXVzvexIEejx/VjLLFJIApReDQQOYMISw/61TmMUi0Md9dyHg+SKCZpt4dqQl4aqZi5eNNtTCqMb24sW9e4oMJCMCLC/wsZAhOS5wlAYcwhiZJgJ6CJH4vNIHLcjTPSKgxjTfVx+i/P2k+FHCBACxIwGFICZuAgiBcEPb8lJBhCQEGaZoGx5wlUHKrn6xn+boY1a6UlrS7mLMRQcvOBcjCHod47iFL0jsfjOyoEAnAhU35vmnO2p0Bs3BRV9LQWxEQOZRCHlt/lPKnc2/2h+IcpMjgBrRxY6HkgHIzkjPP2kEiRvXUkyPVsyzc/Wit7imepptRfQH0yeH4i3sw5KSkqBJYI2ASnd9Ptb84RxuMHlGFN8Noj1CFa32KnOuI+04KZ5lyOGY/arypNQ7FGZVYmOEqzpmwAYsxt8cCcgPIiISnjhjEWYRqGn3HnRZtPVJRgz55RtlikqjuDVKFNJwkDrHALmeciA2CHVCdmiL3VktW1XSFYitjR0C5Fj9qHp6scSjhwwgUgUuK0uYpU8NjEwkhLGxgoIRa6t7hsTxMN5xBO+ZuKDxrfYz+t7ebnmgiUCBMOQ2QYSlQJj0347IdSgRPMrajFXlrMA1voQo+eFLErdbFqHal91+oxST66YST5IRDGohQ4rBQt8E8HskkMiM51fbx07c1O9r5le0//qpmwSc8ZbpQK6MHh8Nzd5wv8b85mXMqDUnkDsP/VEvFYn4u06NqMK1k65F0KMXZGhnVrvT5O1qXV9iHGTTtgOltt20PTYzy5PhhrwQiuGbX5U9y4341L+ikw3oZ1b0Q9hI/Vv05KbHNhOfL7zLtqPJr/OGmtpyEO7HV9agEXmtnNPpCbgRoAlUOBylwTEXKETzVPspPHrMj2OjXOd4EQMezViTzkS0Y0KYmAjhxyEEhiFMMuDGT3ZhSbMwsasTRmudMqzYfNvGE5le2rzw8HPdrT44m5Nr9qO6V/uiqj6oTJZn8JeDi5k+QV5Q5O3imZuL01JOBY2tfxrQUBCwmCZNgVGNqNjWJ+bBMIOIGeTGNhyrWpmeGPQqNfv3jTZzXCTGqMaVxqLJ+tDBqxh+7yU4/m0lqPc5sIqlEr+Zrf1oiUifJqNnUREFDpCaj4AZL2yed4m/zU2zSWecBuSxCqVMTAWj8iY76VRDuEcvJk2NUu9ILG8Nja1/Ih/F/wGrcWzTIDw2RjUMenMvmBlBUQW8LSJGbcaVTT/GQmW70Z22+6aTGmzjNE2b001e1mORUO4YpqtyJiFDmOXTG7wwI5iDYZuCbn4Jy/I6t1nknkxpv8oZR7Upvb/bhSqnWBVI4tJkQvg2gkJ4C4h+R81A4K8LytLjM7SELg5nBtJ6lIBxHpzxRP6oZPTikTz5EDTEY4qhxDiATWHkOiSceM0JB4LE5ZUQigkAP0GcD09bq3vhWzTtxdConzajGlL5lDbeEmgYKJEAPJqDnSDlDpdMpgohDZ+S2kudqBgakKt/q1slfHqUHjGpMz9wcCDKcVIEMEoAFDnkorkTkXEkyTlFYfqsgfpzixpBhJiKfXm9KW93mAagGG18YpU1NRGUTBKh4QQ9HhFtCRsAUcHmKNrKICmlBEJGLQ5hNJ6a1LgXJpNwPRrUrpc11AY0NFirehjUJLx4EMhc4W0Iv4hSHMLb1PM5pbPRr2Hokk0tu4BGjNA6FukfzCgiAJvAF0AILiiRJKUKJFBE51wsZWRJ6OuT5pNimy5uO/hVaTtjosjeMaldKu3Wi4oECqAK4tg00EDijgjzEDGMSgBc3EKkjCIy5BjIXpmh4v5Kv0I7OJY/BL0YPDofOhydBGK9+yJwkKG3BNgOOEOxQQmNHwnOIeEjA/1R40/qXgnAcnbJPjGpXSpuawEXlF0BJShCy4QZcw2VuI+QkM6eeK/1/p1/b1iNOFpOUnjGq50df2BhyLKiaeWXzs/BSXCmMM2NAWBFQ6PlZLos8pCfnrTf14dW8E1P/GNWfesdLfFBCQlEyBC4iuIjceWgHoXY/3VikC4gprJeY+jXexGH1j1Hd4l95eIiX+KABuHACUohBQI4IKREVP4RSCDhEPDxmyNwMyqT4fcN0fmX70oODiSwF4Tg6ZU8ZxWISYEEECA5wmEQq9M7gnCQeFddzyKCHMTRcEGk5D30bN6156xEni0lKLxnVrpRW4nNEkoCziREaQQnnicswcwbH3WIH4ZoUM0SLhPzwpqqV33xd69YjSTg69b4yqjHF8lEOAWqa04Bah6VtBo1t7AxFyiRjxMbNeJaEHoci4KQx3Qq//ZW5mndyBh4zqjG99OAAW0RxAnhNc4y4nrAAHEnBnQY8LDfgepEWDiFwYy4Lg8lhqgA9f3foZzcUPtV3RgO9GJ8w5dVMMiobgrAhfdJZpzFHGQY8BnQ5cBZCyilntFBOBNPW8k74Zd4JLaYDhemC34xqVxoEg/sv1JIS8aQPbjiIkHEWAAEIroEs7BGPbSAsyUDQCRsIiCcpG3VieuKy6oPe3uwrD+o3oBPap6REzyYYfNgNzt1RH4fllT0x+X+740i6BkwVncs7S9d6te3CnO4j85z13o8CaH3H//m3eqHfWt0jn1o5KE63V3kqKRGevPp5DKSq1ar0tcjTnW9//q07oN67T+A7PYyadj8YDl69H7YfB0vXevRxzmNrX2bpN7+ieOK/E5e36FdC2Vreaa3uLXZ6Vx4eqi8msmIEBJ4LU8Vo3KcGQ9UB2Hwd3H8RPHoZ3HrSv/Wkf3uzf++Z+qcfKW89UUr63d4MzUhJZveeKWX+GCiS9BiQDcQs8kB6MqNTsOTClYeHFzf26cf1ULYfh9d+60n/0oMD0l95eHjvWf/+C1U+H3YZmtPjPnHnTCejBKv1vfjwCaDRO0sAd/i0CdPM6LSVNRxDIxQqgYbRQaHyaozrL4GG0YZR30ugYdT3Gqrfb/mWYsNow6jvJdAw6nsN+ebV6s9Pw2jDqO8l0DDqew3V77d8S7FhtGHU9xJoGPW9hnzzavXnp2G0YdT3EmgY9b2G6vdbvqXYMNow6nsJNIz6XkO+ebX68/P/eUwFlkps5X8AAAAASUVORK5CYII=;" parent="1" vertex="1">
          <mxGeometry x="605" y="260" width="225" height="225" as="geometry" />
        </mxCell>
        <UserObject label="" link="&lt;img alt=&quot;gsc_data_catalog.png&quot; src=&quot;data:image/png;base64,iVBORw0KGgoAAAANSUhEUgAAAOEAAADhCAMAAAAJbSJIAAAAb1BMVEX///9ChfSuy/qxzfo4gPQ+g/T8/f9/qvdCh/SIsfhwofb3+/+cvPkxffOYufhVkPW30fvr8f7P3fxomfaqyPrw9f4re/Pl7v2yyvp7p/fB1/u81Pvd6P3U4vyStfilwvlclPVXkfVunvZLi/Qgd/NnwzhbAAAIQ0lEQVR4nO2d6ZriKhCGBwNxxX3pbrVb27n/azzRuCShCAGKEOfU+3Oe6YTPsNVC8ecPQRAEQRAEQRAEQRAEQRAEQRAE8Y+yHMduQVh289FgHrsRAdns10mfy9UxdkMCkS7XvV7SF0zI/iZ2Y0Jw6GUCbwoZ4/Injd0ebHbzq76HQsbk7Ct2k1AZf+X6Xgqzrvq7i90sNNLjQ19B4VXj9z+ychySl8Ciwmw4so/YjUNgsS/oqyjMhuNqGbuBnrwGIKyQCf65iN1ID4oDUKMw07idvO1wfKwQ9Qqz4XjZx26qE5tqB9UqzIbj7yF2cx0APqBWYfYZ37CnziGBOoVsRgo7yPsqTGso/j8PhU1fEYYpG2jhxQ2Ku8Il17+CDUML3EkmtEgkhVL/CiZDrysjuIE5aApr3iFWYQUetzUvb0Uhk2FN51PdJ2xHoTiHnG3mte9uRyHjAY3K8aX21S0pZINwnrof3gmFfBpK4IbXjsLWFDIZymjuGz5hawr5ZxiBB9OLW1PIZJi4wK+hj7aoMMyy/2V8b3sKwyz7Z+MnbFGhmOEv+2vza1tUyOQPtsCxaaVoWaHg2CbzVF0pBK+yRVK4VZ4MuCC/cQXu1HeI02Ra4btou7krPHxXHzwBdvwcN3T1qX7CreENqH6anWq14S77R1UgN7kTcD1RQ7UFEjOos1L7qDBt8HEVbgQwTLDkgWYhXxv/yEahMPq818BHRMtbSQdqi8z+TSguo1EoGkT1xzP1DwdYyz5gFsom0aI8+8KskPMmmRl7oCMhLfsL4Ec/NfrLWwaNSWHj7BrIR4RjKALT2Lap03KzN8SAWfMMqQOwYqD4hw/ASmGxFFWGY0WhVXAUWJQ5hn9YNQuF3XbiuNbmYmwnNnMFtLH6tVQDsAT6xsTuEcV0hVI+jW2SwgQYL/7LPjBJ28drXyknL4XyZO2KALyZYmb7kCofwErh4pF9pA09FPJB4tIaYMXw9A9Dv9rF6Un3zJNcodg6JnxdMHpUCcAsdN7w3oZjnl86crV8AOPYdlYoswPs3pH74xbzW47w2WN2UKN7gvss++gr0CH55B8+u0lode67Pw6IFvruItIvz7CKzw5LRTULGYudob1Rm+TuHw64m/cAsHS4o384hSwy3NY6AVirjmHhH+ATuizT2CTACmb0OIAAaw+ma8QZwE50DWMA8UKnHRsu0M7N1bG4UP1b3ZxLhfOaD0RjcKxqDyDHqccED2x0edxjWYBv2tEUyAHM39BZVwaATYifEdy1yQaaZjy2pX9gTyJ65K45YBTT06MI7ZHiTTbANOO/j4Qmm1hHBwDTyd9PA1lQ0SYbaJpBmNoBKzjSZIM/zeSoOxshvVwjzkyk+g1RAhcVG0PIUazTZrtRRaOjTVElLeUKyVPME4PLc/HnRjN1CmZU9FOf6cfgNS/gJfCN7g8V22H8oy2b4VYgTjM5i9tWojOnrw+r23A0J0tYkE02TWLtrbG/ZL856pqVnrlYd6kKwviHc9x9x9dnbNu+ymLU1py+mIacXXf92KfZN1+94TbYCrnY9363o5hHhNNjr5cMuZCfISbZazQuGQnB4xWXuMV1k6vNxvk3+jx0vOYbJddoWqxtxiJPI0lyq5Qz3OJIuzwqnuTxQjlr3//1zK9IHnY3ZomLZ2bDXSELNBBqOD5T1p4Kr63AWVIK2SnJM+bLxbTFBXlXqMeSFHwnXFplAGkoZhi9FDKBPRD0lHPVkpJ3iA98S1wUf72SQmaTA+fDuJJvmFT8X36tqGb6lRVe8xiDW9/Has5oVaFPrTI1WzOp5l5wEdaDUu5CsMJbrTKnNbqU4qdRmA3HQTgbB6zHAijMuqpDxRkwa1pVyALWelELBmkVXq1lu8+YgtVsYIXZdwxzTlaTfA8qtM5UGoMP1ygM5ZPe2yhklnFZUkgKSSEpJIWkkBSSQlJICkkhKSSFpJAUkkJSSApJISl8I4VWHmH2jh5hjd8d9urzi10AKtWUcIcVykCFE+HYCaSQc+v7DlIlbqdVyC/BgsEpFP9SFYqtU1qBchcGrJDLoLdFqK1QFcqzaxRYqfWiKrQvpmHNohqHrijkF5/0nkNSG+VuKQe73IqyQiGnfl2ocq1JWaFbMQ3fVhQViq1zOYgXpYFQVOhcTMOzFQWFXuUgCizmQMZQ64cgnq14KuQDvPy650B4ZX2d2s/BvtcquyvMuhBmFvFjINwVcr9iGs6tuGW/3BQGSOPPB8JNoZDDWDnY1/STq0KsAVjmOhCuGbRxLxLazXtDOcA5faRySHqj+IcgDn1tF2o+t+uekB5XHb4K8nBqfpp2turGaRwbFkMpGh/d/5FCok7FLbBmvLmdejvDibmchmc5y3cBDU8m3c/hOpSoi8Tu93F8TsgmXe/rcZY629a+w12Im2mhKkCTsippoeidg2+gdZJByVxsUL6uVPROBPRQoHA8VQ6Umys4HaqFIOSpw3chrv8qXhXjwXagkPbf2LsYPVD9H0M1V6CQdieKUekAqh7UV4mFipUEumIFCaByRW1hbKD+TfQ6TfUARY7qCowuIX95x7dv0Ef5TscaoNJrXd+8bYD7RYT2ukZVoDjHVmCkyX00TznqPwW/wNGftP4CQQMdn2ZymtyDoyXgtXiIGK9n09P5aSbHeMWelk7vZooAhU+b4VEQuGWACmhNeItpJsdxshl03vp9AVRAMyO7UMK3KTuotquByEU1bTHdyQrwPtNMjuFeXRXsm+KCYz3ZvNM0kzOy66d492+1ht1kg3EjTutM1Hsa9byB0aQynljwHjtugiAIgiAIgiAIgiAIgiAIgiAI4n/Of5gyl9vqeIVWAAAAAElFTkSuQmCC&quot;&gt;" id="P1Te4osSGadlrZcNZEam-15">
          <mxCell style="rounded=0;whiteSpace=wrap;html=1;" parent="1" vertex="1">
            <mxGeometry x="462.5" y="750" width="510" height="700" as="geometry" />
          </mxCell>
        </UserObject>
        <UserObject label="&lt;img src=&quot;data:image/png;base64,iVBORw0KGgoAAAANSUhEUgAAAOEAAADhCAMAAAAJbSJIAAAAb1BMVEX///9ChfSuy/qxzfo4gPQ+g/T8/f9/qvdCh/SIsfhwofb3+/+cvPkxffOYufhVkPW30fvr8f7P3fxomfaqyPrw9f4re/Pl7v2yyvp7p/fB1/u81Pvd6P3U4vyStfilwvlclPVXkfVunvZLi/Qgd/NnwzhbAAAIQ0lEQVR4nO2d6ZriKhCGBwNxxX3pbrVb27n/azzRuCShCAGKEOfU+3Oe6YTPsNVC8ecPQRAEQRAEQRAEQRAEQRAEQRAE8Y+yHMduQVh289FgHrsRAdns10mfy9UxdkMCkS7XvV7SF0zI/iZ2Y0Jw6GUCbwoZ4/Injd0ebHbzq76HQsbk7Ct2k1AZf+X6Xgqzrvq7i90sNNLjQ19B4VXj9z+ychySl8Ciwmw4so/YjUNgsS/oqyjMhuNqGbuBnrwGIKyQCf65iN1ID4oDUKMw07idvO1wfKwQ9Qqz4XjZx26qE5tqB9UqzIbj7yF2cx0APqBWYfYZ37CnziGBOoVsRgo7yPsqTGso/j8PhU1fEYYpG2jhxQ2Ku8Il17+CDUML3EkmtEgkhVL/CiZDrysjuIE5aApr3iFWYQUetzUvb0Uhk2FN51PdJ2xHoTiHnG3mte9uRyHjAY3K8aX21S0pZINwnrof3gmFfBpK4IbXjsLWFDIZymjuGz5hawr5ZxiBB9OLW1PIZJi4wK+hj7aoMMyy/2V8b3sKwyz7Z+MnbFGhmOEv+2vza1tUyOQPtsCxaaVoWaHg2CbzVF0pBK+yRVK4VZ4MuCC/cQXu1HeI02Ra4btou7krPHxXHzwBdvwcN3T1qX7CreENqH6anWq14S77R1UgN7kTcD1RQ7UFEjOos1L7qDBt8HEVbgQwTLDkgWYhXxv/yEahMPq818BHRMtbSQdqi8z+TSguo1EoGkT1xzP1DwdYyz5gFsom0aI8+8KskPMmmRl7oCMhLfsL4Ec/NfrLWwaNSWHj7BrIR4RjKALT2Lap03KzN8SAWfMMqQOwYqD4hw/ASmGxFFWGY0WhVXAUWJQ5hn9YNQuF3XbiuNbmYmwnNnMFtLH6tVQDsAT6xsTuEcV0hVI+jW2SwgQYL/7LPjBJ28drXyknL4XyZO2KALyZYmb7kCofwErh4pF9pA09FPJB4tIaYMXw9A9Dv9rF6Un3zJNcodg6JnxdMHpUCcAsdN7w3oZjnl86crV8AOPYdlYoswPs3pH74xbzW47w2WN2UKN7gvss++gr0CH55B8+u0lode67Pw6IFvruItIvz7CKzw5LRTULGYudob1Rm+TuHw64m/cAsHS4o384hSwy3NY6AVirjmHhH+ATuizT2CTACmb0OIAAaw+ma8QZwE50DWMA8UKnHRsu0M7N1bG4UP1b3ZxLhfOaD0RjcKxqDyDHqccED2x0edxjWYBv2tEUyAHM39BZVwaATYifEdy1yQaaZjy2pX9gTyJ65K45YBTT06MI7ZHiTTbANOO/j4Qmm1hHBwDTyd9PA1lQ0SYbaJpBmNoBKzjSZIM/zeSoOxshvVwjzkyk+g1RAhcVG0PIUazTZrtRRaOjTVElLeUKyVPME4PLc/HnRjN1CmZU9FOf6cfgNS/gJfCN7g8V22H8oy2b4VYgTjM5i9tWojOnrw+r23A0J0tYkE02TWLtrbG/ZL856pqVnrlYd6kKwviHc9x9x9dnbNu+ymLU1py+mIacXXf92KfZN1+94TbYCrnY9363o5hHhNNjr5cMuZCfISbZazQuGQnB4xWXuMV1k6vNxvk3+jx0vOYbJddoWqxtxiJPI0lyq5Qz3OJIuzwqnuTxQjlr3//1zK9IHnY3ZomLZ2bDXSELNBBqOD5T1p4Kr63AWVIK2SnJM+bLxbTFBXlXqMeSFHwnXFplAGkoZhi9FDKBPRD0lHPVkpJ3iA98S1wUf72SQmaTA+fDuJJvmFT8X36tqGb6lRVe8xiDW9/Has5oVaFPrTI1WzOp5l5wEdaDUu5CsMJbrTKnNbqU4qdRmA3HQTgbB6zHAijMuqpDxRkwa1pVyALWelELBmkVXq1lu8+YgtVsYIXZdwxzTlaTfA8qtM5UGoMP1ygM5ZPe2yhklnFZUkgKSSEpJIWkkBSSQlJICkkhKSSFpJAUkkJSSApJISl8I4VWHmH2jh5hjd8d9urzi10AKtWUcIcVykCFE+HYCaSQc+v7DlIlbqdVyC/BgsEpFP9SFYqtU1qBchcGrJDLoLdFqK1QFcqzaxRYqfWiKrQvpmHNohqHrijkF5/0nkNSG+VuKQe73IqyQiGnfl2ocq1JWaFbMQ3fVhQViq1zOYgXpYFQVOhcTMOzFQWFXuUgCizmQMZQ64cgnq14KuQDvPy650B4ZX2d2s/BvtcquyvMuhBmFvFjINwVcr9iGs6tuGW/3BQGSOPPB8JNoZDDWDnY1/STq0KsAVjmOhCuGbRxLxLazXtDOcA5faRySHqj+IcgDn1tF2o+t+uekB5XHb4K8nBqfpp2turGaRwbFkMpGh/d/5FCok7FLbBmvLmdejvDibmchmc5y3cBDU8m3c/hOpSoi8Tu93F8TsgmXe/rcZY629a+w12Im2mhKkCTsippoeidg2+gdZJByVxsUL6uVPROBPRQoHA8VQ6Umys4HaqFIOSpw3chrv8qXhXjwXagkPbf2LsYPVD9H0M1V6CQdieKUekAqh7UV4mFipUEumIFCaByRW1hbKD+TfQ6TfUARY7qCowuIX95x7dv0Ef5TscaoNJrXd+8bYD7RYT2ukZVoDjHVmCkyX00TznqPwW/wNGftP4CQQMdn2ZymtyDoyXgtXiIGK9n09P5aSbHeMWelk7vZooAhU+b4VEQuGWACmhNeItpJsdxshl03vp9AVRAMyO7UMK3KTuotquByEU1bTHdyQrwPtNMjuFeXRXsm+KCYz3ZvNM0kzOy66d492+1ht1kg3EjTutM1Hsa9byB0aQynljwHjtugiAIgiAIgiAIgiAIgiAIgiAI4n/Of5gyl9vqeIVWAAAAAElFTkSuQmCC&quot; alt=&quot;gsc_data_catalog.png&quot;&gt;" link="&lt;img src=&quot;data:image/png;base64,iVBORw0KGgoAAAANSUhEUgAAAOEAAADhCAMAAAAJbSJIAAAAb1BMVEX///9ChfSuy/qxzfo4gPQ+g/T8/f9/qvdCh/SIsfhwofb3+/+cvPkxffOYufhVkPW30fvr8f7P3fxomfaqyPrw9f4re/Pl7v2yyvp7p/fB1/u81Pvd6P3U4vyStfilwvlclPVXkfVunvZLi/Qgd/NnwzhbAAAIQ0lEQVR4nO2d6ZriKhCGBwNxxX3pbrVb27n/azzRuCShCAGKEOfU+3Oe6YTPsNVC8ecPQRAEQRAEQRAEQRAEQRAEQRAE8Y+yHMduQVh289FgHrsRAdns10mfy9UxdkMCkS7XvV7SF0zI/iZ2Y0Jw6GUCbwoZ4/Injd0ebHbzq76HQsbk7Ct2k1AZf+X6Xgqzrvq7i90sNNLjQ19B4VXj9z+ychySl8Ciwmw4so/YjUNgsS/oqyjMhuNqGbuBnrwGIKyQCf65iN1ID4oDUKMw07idvO1wfKwQ9Qqz4XjZx26qE5tqB9UqzIbj7yF2cx0APqBWYfYZ37CnziGBOoVsRgo7yPsqTGso/j8PhU1fEYYpG2jhxQ2Ku8Il17+CDUML3EkmtEgkhVL/CiZDrysjuIE5aApr3iFWYQUetzUvb0Uhk2FN51PdJ2xHoTiHnG3mte9uRyHjAY3K8aX21S0pZINwnrof3gmFfBpK4IbXjsLWFDIZymjuGz5hawr5ZxiBB9OLW1PIZJi4wK+hj7aoMMyy/2V8b3sKwyz7Z+MnbFGhmOEv+2vza1tUyOQPtsCxaaVoWaHg2CbzVF0pBK+yRVK4VZ4MuCC/cQXu1HeI02Ra4btou7krPHxXHzwBdvwcN3T1qX7CreENqH6anWq14S77R1UgN7kTcD1RQ7UFEjOos1L7qDBt8HEVbgQwTLDkgWYhXxv/yEahMPq818BHRMtbSQdqi8z+TSguo1EoGkT1xzP1DwdYyz5gFsom0aI8+8KskPMmmRl7oCMhLfsL4Ec/NfrLWwaNSWHj7BrIR4RjKALT2Lap03KzN8SAWfMMqQOwYqD4hw/ASmGxFFWGY0WhVXAUWJQ5hn9YNQuF3XbiuNbmYmwnNnMFtLH6tVQDsAT6xsTuEcV0hVI+jW2SwgQYL/7LPjBJ28drXyknL4XyZO2KALyZYmb7kCofwErh4pF9pA09FPJB4tIaYMXw9A9Dv9rF6Un3zJNcodg6JnxdMHpUCcAsdN7w3oZjnl86crV8AOPYdlYoswPs3pH74xbzW47w2WN2UKN7gvss++gr0CH55B8+u0lode67Pw6IFvruItIvz7CKzw5LRTULGYudob1Rm+TuHw64m/cAsHS4o384hSwy3NY6AVirjmHhH+ATuizT2CTACmb0OIAAaw+ma8QZwE50DWMA8UKnHRsu0M7N1bG4UP1b3ZxLhfOaD0RjcKxqDyDHqccED2x0edxjWYBv2tEUyAHM39BZVwaATYifEdy1yQaaZjy2pX9gTyJ65K45YBTT06MI7ZHiTTbANOO/j4Qmm1hHBwDTyd9PA1lQ0SYbaJpBmNoBKzjSZIM/zeSoOxshvVwjzkyk+g1RAhcVG0PIUazTZrtRRaOjTVElLeUKyVPME4PLc/HnRjN1CmZU9FOf6cfgNS/gJfCN7g8V22H8oy2b4VYgTjM5i9tWojOnrw+r23A0J0tYkE02TWLtrbG/ZL856pqVnrlYd6kKwviHc9x9x9dnbNu+ymLU1py+mIacXXf92KfZN1+94TbYCrnY9363o5hHhNNjr5cMuZCfISbZazQuGQnB4xWXuMV1k6vNxvk3+jx0vOYbJddoWqxtxiJPI0lyq5Qz3OJIuzwqnuTxQjlr3//1zK9IHnY3ZomLZ2bDXSELNBBqOD5T1p4Kr63AWVIK2SnJM+bLxbTFBXlXqMeSFHwnXFplAGkoZhi9FDKBPRD0lHPVkpJ3iA98S1wUf72SQmaTA+fDuJJvmFT8X36tqGb6lRVe8xiDW9/Has5oVaFPrTI1WzOp5l5wEdaDUu5CsMJbrTKnNbqU4qdRmA3HQTgbB6zHAijMuqpDxRkwa1pVyALWelELBmkVXq1lu8+YgtVsYIXZdwxzTlaTfA8qtM5UGoMP1ygM5ZPe2yhklnFZUkgKSSEpJIWkkBSSQlJICkkhKSSFpJAUkkJSSApJISl8I4VWHmH2jh5hjd8d9urzi10AKtWUcIcVykCFE+HYCaSQc+v7DlIlbqdVyC/BgsEpFP9SFYqtU1qBchcGrJDLoLdFqK1QFcqzaxRYqfWiKrQvpmHNohqHrijkF5/0nkNSG+VuKQe73IqyQiGnfl2ocq1JWaFbMQ3fVhQViq1zOYgXpYFQVOhcTMOzFQWFXuUgCizmQMZQ64cgnq14KuQDvPy650B4ZX2d2s/BvtcquyvMuhBmFvFjINwVcr9iGs6tuGW/3BQGSOPPB8JNoZDDWDnY1/STq0KsAVjmOhCuGbRxLxLazXtDOcA5faRySHqj+IcgDn1tF2o+t+uekB5XHb4K8nBqfpp2turGaRwbFkMpGh/d/5FCok7FLbBmvLmdejvDibmchmc5y3cBDU8m3c/hOpSoi8Tu93F8TsgmXe/rcZY629a+w12Im2mhKkCTsippoeidg2+gdZJByVxsUL6uVPROBPRQoHA8VQ6Umys4HaqFIOSpw3chrv8qXhXjwXagkPbf2LsYPVD9H0M1V6CQdieKUekAqh7UV4mFipUEumIFCaByRW1hbKD+TfQ6TfUARY7qCowuIX95x7dv0Ef5TscaoNJrXd+8bYD7RYT2ukZVoDjHVmCkyX00TznqPwW/wNGftP4CQQMdn2ZymtyDoyXgtXiIGK9n09P5aSbHeMWelk7vZooAhU+b4VEQuGWACmhNeItpJsdxshl03vp9AVRAMyO7UMK3KTuotquByEU1bTHdyQrwPtNMjuFeXRXsm+KCYz3ZvNM0kzOy66d492+1ht1kg3EjTutM1Hsa9byB0aQynljwHjtugiAIgiAIgiAIgiAIgiAIgiAI4n/Of5gyl9vqeIVWAAAAAElFTkSuQmCC&quot; alt=&quot;gsc_data_catalog.png&quot;&gt;" id="P1Te4osSGadlrZcNZEam-16">
          <mxCell style="text;whiteSpace=wrap;html=1;" parent="1" vertex="1">
            <mxGeometry x="490" y="770" width="260" height="250" as="geometry" />
          </mxCell>
        </UserObject>
        <mxCell id="P1Te4osSGadlrZcNZEam-17" value="&lt;font style=&quot;font-size: 20px;&quot;&gt;Data Catalog&lt;/font&gt;" style="text;html=1;align=center;verticalAlign=middle;whiteSpace=wrap;rounded=0;" parent="1" vertex="1">
          <mxGeometry x="530" y="1020" width="180" height="30" as="geometry" />
        </mxCell>
        <mxCell id="P1Te4osSGadlrZcNZEam-18" value="&lt;img src=&quot;data:image/png;base64,iVBORw0KGgoAAAANSUhEUgAAAOEAAADhCAMAAAAJbSJIAAAAqFBMVEX///9ChfQ9fOM7gfSGrPc+fuY1eOI7e+M+g/SEpuswffMxduJAgezn7/s2f/QufPP4+//W4/wocuGuxvJPjfXc5/1nluhom/a3zvqLsfjs8v6+0vucvPnA0fVGiPSjwPlblPXz9/7I2vyqxfl8p/d0oPaTtvjQ3/yqxfrZ5PlFgeSQru1Zk/WJsPfh6vpUi+ZznelTieZ2n+oVc/MWbOCct+8GaOBgkOepncxUAAAQBUlEQVR4nO2da3eiPBuFFSxEUNDYVmvrAW3rqB16eOrr//9nbwJEkxgwCQGdtdwfZq2xKFwkue9kk4RG46abbrrppptuuummm/51jRfL91a1el8uxhfD+zNseoFdtQKvOfxzCchuKwgAaNYhAIKg1a0bcObZtdAR2d6sVr7uPKiVDyuY11iM/WY91ZMVaPZrAwwuAYgQg5oQu/XXUKKglorau79MCWKB+14NhE+XK0JUiE/VA/YvCYgQq2+Kw3rzIC97WDXgc3hRwGYzfK6Y8HJRhghUC/hy2VaIFbxUCditqa9dJACqTIqty4aZVHarOsDVpcNMqnBVGeH88nUUC8yrAhx5l2bL5I2qAexdGoxSNd3T98tnCqLgvQrA+AoyBREAcQWEr9eQKYjsV/OAV5IpiCrIGBcc94oE7k0DLq8nzKQKlmYBo0sDCRQZJXy6pjCTyjZqaDxcWx3FCh4MEg6vK8ykAgYNjcl1ZQqicGKMcHpplhxNTQHOrrEVYgWGnkeNLw1SIDNPTq/CuhDLjKHRv5Zxr0ieCQv8SqwLsUwYGs/XXISoEEtb4L1rzRRE07KGxhWY3MUqa4Ffk3UhVllD46qsC7HKGRpXZl2IVcrQuDLrQqwyhsbVmNzF0rfAo0tfurR0DY0rMrmLpWuBx9cfR4lsvYzx9i+EmVT2mw7g4l/IFEThQoPwn8gURDoZ4+pM7mKpW+DXbF2IpWpoVGFyA2DbQRDYdhXdeVUL/MFwbwbYQTgdtt5fZqPZy3treB8GtmFMT80CNzo/DwTh/ctiTA9Ve9Hi5SM0OtdYbU6fyfl5tj0ciXtV0WhoG7yTKnP6zFkXIJi+F/U34vemuYJUMDSMmdy2PTvXKY5mxspR3gLvGlpsALy/Mnc1anmGzteUndNnyOQO5rLRrf9hptLIWuCGTO5QwQTr/Q2NFKOkBf5h4mQgUOsLPxsJOOBD5lxGrAv7XnWa68PURNuQMTQiE5nCnqv7CmMjg5np+RObMLntoY7VbgTxvAXeNdBdtO+FN3K8mL0OP6Yfw9ZsIT5gWv7cwD7XPN5MtAbBQObhfRriRacAjTBAgDuqgq5O10AhnjM0TJjcgpD9PAz5Oxd4w9NouzAQ5c5Y4AYyhXcy2l58CDstdjA/uZhZecTijLEsf4KTByXRW26nDHivfEgyYPCd3mLqYgxkCj5cL5pFLdueclXaxJqVgoxhwOTmnzqzhhYKMR7beQEBl6P/lL+GfAs8NtAI5vw9O/KgseJs8bBazploBkKuUhXVI5Dq3FV4eUNSifl5QHQO6r8hO5yY0TCAoKzY0Vn4h/kOE09RZjl7TYKrzDE0JEzu+7dM1K8FwduhMwLYMEPP4wD2MXB22XIK2Bl4x+ktCO91MTgw2rNxF2u8OIedY4Gf7zQdHTtyqB3ez+JjAGRTYUz/IGPZ8kttmVr1TP7oDUeo7zA5HOutcr5+IrEFLtHEbdLp65Frf09qJaneXO1gbhl7zh8mwLIprHfPAB0J8ZTZyQLpz9mOV8DW/EQyJjeOe635EIm9MkLIBlKmD8+57iuf/WHGYdmlAGHc6NFliE2K6D8Pe8oS13rac/wr8TV8V+/RCUhoQYTxMj4QAuZZ7JiJRx7bfRm7d/QPA0BfUJziB4Ptpo0ID40Zdej7/wE5l9X+ywM+yHRIA3RXp6+tj8Ox073z2z8SMnHmnbllnCPdsywG0WZS2Gcn/dDxtxQhrjHxQxRN7mXKMORNIpn5eYAU/eL40R1cNxqP6ZeZSsoWIU8YWS6DCJhatfNTxKaDCSE55jBqkLrYOQsoNz8PR4serolUuE4I0wsK6UrKea5c12XtW2wpMqFhDbO/2ZjQz44Dw3Hv4f1lLLnrARsUSPg6p9bz6L6Ja/gxTHqY0EkQmWnX3CiFG7btMCGNyN5yaFnJL+LKO4FWVqIg+ACBh2+zK9MUmT00JE1uYAdBOgBrdw6EfUyILwLQbmXMt2umXeBKyiGGdE7cuyliRpghIjyQHvjpSlwtHaDVOvQBKv6tQxAzQnQRTEU7vWd0jx9/gUNk0snWSf9GCJPjwNNs9oEIu5jwjv/5U9HL2iXn59lP0RiNIHEZbh1SdQih1fHortKpGwI+SClFX75l8YhMIB5klfhAiM+GO3ejMMTV2WXjVN71Hn6yL2ld4LbUG4b4exuXVJ0DocWES0G1B2C7Rk0jXm4cyzpFpFvxKqGyOkdCdLakKa9GPRx8uDiVo5B0IqVncgckbSenSBGPhJCqhpHwptn4a47vWpYAMaQCQ5xSWc6REB1HGlZ341pSiCR8qZjciwzQtQgiLrmE0HUpwryn5K7F4lFXSg/qIkL4s14vj202HC7GUbxzXL4R5ynNUbKZIr2M/Xa53UNymTiCvv20k3vqWhThSlRL7SAMIZLviBDpcUlEGqoD4fHgThPgrzsu+8UiJRljpDTGBL5P1zKM2ElPWUwIgnD+MkF9riheLB8hZIoyudKA6rlGgqJOz9YR1vBcJYWouvKuw580+6SIEOXqJd3h6U32Ph9uJAjxcWqIeDw3VjZnOESQfVJAGAxPXdr+F10X7nJqqeuyqMql6I3VV4wAz6fO4PsfH0GQnBXmRRrRcBRp4jCI4WmkceDm06IqtA/hb4jbsjwi6p0qTX4Cthe0Vssjor9DWL1RggipZyJ0tvDynpXGGxqRzhYPCYP/iKH7n6Q++4NGL9HKl0a0n5SaIWgOsWk0CEhN8TMPqY8/gbRJcxymFkyMXDNtkfpDkvGdx+x/n9mNgOSX1jRhMSJqiCo2N0gZBkHWGJJr2G0jPA2uY/n0cOVw4wpX626Pl+q0qc+TXpuPLYz2KhlMpYRx5tMs2XRTiDhtKAA2wbjRi/H5m827pAhRLN5B2E5mN3T8HXWNB1+L97QZ9an6PqDJnfT2daFvjdM+Io463Ub0vyQjWpY8ohJhc/kDd5gwi9p49Lt33U2vMUZRrvNFXePBFSmcsdA9hkpID/Lx6AmP70fQgnisliC5m6jR/3X4Xt85RDVC2/ETwiwx4diCCK1eI9q4HcDspEZGwIWE40Pec/f050kzTM8EJ9lgynI/0S1Z96LFni/DQkTVddoZIf7Ju6RhHAitDjOIJQNESUJIV9I+zKotQ3iIPD0VxKlql8bOCBNEltBimhwZVcsRMt2FRpKOTgjd/bqx3m7HTPM9h4gCneJkYGx7k/FpkyN0mLCZGbByhEyUany7IkLLhY7v+FYjGQFLIqJ8qNinORLibkiXIXQdOlqM01kdUoRsEcZppeTbIRpZ4iAD42OGPI+I+jSK/VKK0LpLR79JBEiugYn4WUsMRukDI6H6GSHTCjMjLvVKk37EV4q8XS5R6eLw9i3smIsQUb9UsSHShJa/bDSef3/RzV7AtKUwJZRajsAtUPo7hxiSqJdeP/6xyIUoFTXS+4A7UJNfiM/h5A49OCX9DbXxIUPobtD3V7gaZuYZZMYQZOGU+HKOci3mMQqxLXDpdSfR4QMHs/UniHgkiDRixCT4KY3xWUILP1fAIp84dNI/Pja6Kwb02bEVsRpxhsfq8uGI6bEXI6ausNJkRPC6WGyP6ch/XMTxqn0YzkB2asUy69kUErKNkPhs+H5tBut4vTzy+PtJHPd3okgqRiT5S2nXBMDaLCi++dQHOOrQmmVzafIvyeUAG1QBufjH6U5a8kFOIxQgHh4VyPqlmTpFJ+Cvd5TNBMyrqK7DbaMzgDlHyop+UnCoUYpr0osQuaiBbl82M1aM6G/W7OHdoiqoiEhNz1KdiFSEyAUbFMla6Rxu0e2AbX7W1+Npl1MXkdmOV3WBRREiPJlW1h8mrZEvRQfuT2Yx7vLygAYiMzlALWOcQxTMqnwLAsAgopjxKDiubCOkEdk9+JUdtwJE1xFMuoqX89DzHQf1Y9AYFsL9UnDQujhMqiHyM+yU99kpQtwIVzv2VoPt1/57/7UdrITzwMf5mVwd8WRvHqm5GLKIzkZny+3uxkCUOQieLNiRmU9TKeLaKCBj3aXSWPhbVFGttQCiSKvyiZA+vytoKBpTV4sQfbXtOJbQJGAyrjuVxoKOIkS4lecbfxlKE+Tk38LT6GyiUIgovX58sjGS6I8SpOREOnt45iC6jv8ruwdA/CjweEuJ9QzoU+nM8xYiupv2RHJtV7d9YtKXFsxdeqw1V1+ASJtuX7uixLH6Mc93cB4E0ltvcYpIuZ8LNGB+HIgh17vvCvgO7odQemtmeET3+9gpwwa94zvfuwlbc+Ln9sY33f5S+QMei5beuicOEVLD9l72ZMyB0P/82u6Wy91u+/WNp5xUgpebKYg0164xiA7jmv5QJo7jYFsH/VsRXCJ4Zvs2zfWHNOIvUx8HhlPdOZ14DLx015AeEblI9lNBLCmQ65zt8+uuAyaIXCRbme2OnRX7EEso7RV6GSLX4xY/Q6lMhZmCSHs9foLIhpny7qeioNSIRnulbDJ5gQkzUaVR81S85Z4j/X0xOnyYadcbZvjHJrnS39uks2EspnXNgP6pdSGW/v403EZGgjkTVQpPKZKU7h5DgF02Mqo7U8jvSqe7TxT7To1e3WFmo7Abh95eX9wa6m3dYUbpdRd6+7UxP9GvuY5ymficdPbc8y4aZpJphCpS3zeRm0had2/GUTAvE6lb4GyYiYxa2Od18uz5vFT3L+UW3tbdm1HIFAepWeAAMJ36dc11NJm7pCo1C9xmd/Tb11tHc03uYqltFQN2VL6tPcycsy7EUtzPO9gcMm5k8GGujITP1WWkaIED+JilpG3N7lOByV2sSAkQyfHbON7EdYcZS33/u0zKhsadj2fTmJj1oyJ+ppmKlB+a3lnwe1cz4BmTu1jqFvgdavb1AkpbF2Kpv2emeLZsBXJ+ygDqvCuoZkTXLfnyYw0LvF5ECZO7WDqGRp2IeLFHSem8d61GRDXrQiydd+fVhqhoXYilZYHXhVguUxBpWeD1IArm5+lI72UedSAK5+fpSM8CrwGxdKY4SM8CrxxRy7oQS/OdzlUjmsgURJrv5a4WMXd+no50361eKaKvOg25ULqvDqoQUdnkLlakB1ghYgnrQiztV3hVhVjGuhBLe1v/ahANZgoi/f3oK0E8Nz9PR/ovzq0AUdPkLlaJlx8bR9Q2uYtVYsd204jaJnexetqAphENWBdilXnHjlFEufl5OtIxNCpAlJyfp6NSbzAxh2jGuhCr1PvKTCFKz8/TUbn3a5hBVJifp6Nyb4MygmjOuhCr3DtSDCC6brWAZd/fWR7RpHUhVsl3sJZFNGpdiCW143t1iFVmCqKnSyJW1CFl1Sv7irsSiPS6vwrVLftGJm1EF1aaCo/ql32jpiai69fQCDPEsq/T1UJ0rNoAUUWd1x9u4L6mKppp5tWbFx1YcWftVN0WfiVlLYiu6/vtegsw1fjPsOkFtp6A7UjKh+5+aehJqAbkYvne0lVbSrvl6mJ4N91000033XTTTTfdZEz/B+B+gzPxkUn8AAAAAElFTkSuQmCC&quot; alt=&quot;Sensitive Data Protection (DLP ...&quot;&gt;" style="text;whiteSpace=wrap;html=1;" parent="1" vertex="1">
          <mxGeometry x="507.5" y="1110" width="30" height="40" as="geometry" />
        </mxCell>
        <mxCell id="P1Te4osSGadlrZcNZEam-19" value="&lt;font style=&quot;font-size: 22px;&quot;&gt;Cloud DLP&lt;/font&gt;" style="text;html=1;align=center;verticalAlign=middle;whiteSpace=wrap;rounded=0;" parent="1" vertex="1">
          <mxGeometry x="540" y="1370" width="170" height="30" as="geometry" />
        </mxCell>
        <mxCell id="P1Te4osSGadlrZcNZEam-20" value="&lt;font style=&quot;font-size: 23px;&quot;&gt;Tagging Engine&lt;/font&gt;" style="text;html=1;align=center;verticalAlign=middle;whiteSpace=wrap;rounded=0;" parent="1" vertex="1">
          <mxGeometry x="595" y="760" width="210" height="30" as="geometry" />
        </mxCell>
        <mxCell id="P1Te4osSGadlrZcNZEam-21" value="&lt;font style=&quot;font-size: 24px;&quot;&gt;Classify&lt;/font&gt;" style="text;html=1;align=center;verticalAlign=middle;whiteSpace=wrap;rounded=0;" parent="1" vertex="1">
          <mxGeometry x="840" y="940" width="110" height="30" as="geometry" />
        </mxCell>
        <mxCell id="P1Te4osSGadlrZcNZEam-22" value="" style="image;sketch=0;aspect=fixed;html=1;points=[];align=center;fontSize=12;image=img/lib/mscae/Tags.svg;" parent="1" vertex="1">
          <mxGeometry x="830" y="1160" width="130" height="154.76" as="geometry" />
        </mxCell>
        <mxCell id="P1Te4osSGadlrZcNZEam-23" value="" style="edgeStyle=segmentEdgeStyle;endArrow=classic;html=1;curved=0;rounded=0;endSize=8;startSize=8;strokeWidth=7;entryX=0.5;entryY=0;entryDx=0;entryDy=0;" parent="1" target="P1Te4osSGadlrZcNZEam-21" edge="1">
          <mxGeometry width="50" height="50" relative="1" as="geometry">
            <mxPoint x="750" y="860" as="sourcePoint" />
            <mxPoint x="900" y="880" as="targetPoint" />
            <Array as="points">
              <mxPoint x="750" y="860" />
              <mxPoint x="895" y="860" />
            </Array>
          </mxGeometry>
        </mxCell>
        <mxCell id="P1Te4osSGadlrZcNZEam-24" value="" style="endArrow=classic;html=1;rounded=0;exitX=0.5;exitY=1;exitDx=0;exitDy=0;entryX=0.491;entryY=0.04;entryDx=0;entryDy=0;entryPerimeter=0;strokeWidth=7;" parent="1" source="P1Te4osSGadlrZcNZEam-21" target="P1Te4osSGadlrZcNZEam-22" edge="1">
          <mxGeometry width="50" height="50" relative="1" as="geometry">
            <mxPoint x="670" y="1180" as="sourcePoint" />
            <mxPoint x="720" y="1130" as="targetPoint" />
          </mxGeometry>
        </mxCell>
        <mxCell id="P1Te4osSGadlrZcNZEam-25" value="&lt;font style=&quot;font-size: 20px;&quot;&gt;Tags&lt;/font&gt;" style="text;html=1;align=center;verticalAlign=middle;whiteSpace=wrap;rounded=0;" parent="1" vertex="1">
          <mxGeometry x="870" y="1341" width="60" height="30" as="geometry" />
        </mxCell>
        <mxCell id="P1Te4osSGadlrZcNZEam-26" value="" style="shape=image;verticalLabelPosition=bottom;labelBackgroundColor=default;verticalAlign=top;aspect=fixed;imageAspect=0;image=data:image/png,iVBORw0KGgoAAAANSUhEUgAAAOEAAADhCAIAAACx0UUtAAAgAElEQVR4Aey9aZRcx3UmeCtrx0pCXCy1RrK4iJJIUSABSpqh2rJbksftGXs85/R022PZHrfbM8f2zPRx9xn/GB+PLG+ymuICAqiqrNwzawNAgJtI7Qu1UdxEgQSxL7VX5f7y7fudjnezogIvK4ooAhQpUnnyAK9uvnwvMuJ7d/nixg0IJC83evm+HwQBCi/LslzXDcNQkKF4Thi9+FUR2aeu6zqOI37Ri16d16evd/7Lb+d5Hl3K933ejDAM+S2oMdQAfh3+dbGpiBiGoeM4pmnyS9GZQRDYtm0Yxkb7Yf3+4V3h+z7d6M3WD7L+eb37gQ9Q7CAMQ+Bgih340SsIAhpm/k3XdXn/kjAIAs/z6Ex+WhiGvu+TnC4Vg6PneeIt+Be5MHZB8V6u63qeJ6KKxl5sG/85nTDl96Lnh0AvChHR933XdW3b5u25xH4Q2yC2mY6pW6grqP1v8n6gwXUc5/Xuh1j/8z/Xw6h4Eo03tVJEBteRtm27rht7BD3PIzkhNXZB/ptjjwHpyDVBHwQB4V4EqCgUNSvHKL++2HL+CIlwIbXKbxF7qMIwvJR+EO8i9k/skRMbQDfi7aSOepP0Q6x/qItej37g8IgdXCpGadic6CVegrSXbduWZdGjJn7qui7JPc8T5aS3RAyJx7Ztd5pyRCRbQxpUfBioVZ1y8Rngw88BRG1wHCfWNt/3HcexbVt8DKjxHFXr94P4S8X+ielXck5s2xZ/u3j8xvaDrH/Ex/jK9gM3d50HUlvP+5oUFXl7tm2LcvoldvSSjUFMHgQB+X/0a0k5EZ7IM+P6I6bGONxjCsk0TdLWMQ+ErikilRtrDp3Yc8VxQxjlv5QOLrEf+Le4laT+WfNelmW9CftB1j+vaz90QpNLpBilM+jJ5ubPdV3eUB6jkEclmkIeB4jGlzt/pHfpOvQtz/Poao7jcF3CQUZX40AkXcjBzVU415H8mtzV48aUel9sOVfJdBfS1qJzstF+kPUP7yW6IDdNb7Z+oB7gmoL3z+vdD3zcYwfr2Xo+WtS59E3CAX/OOm0i2XfTNAltNACkKkSl6zgO/0jUN6RX+DDTVyzLMk2T9DEHIhllupFol6ltlmUR5jphahgGhd689+l2XB9zPU2j8hr6QdY/XBPTNWOG4k3SD7L+eb37IQZN/ud6GLUsi1yiWPhCXUm6kMJejjZEdBxHi16WZXE8kQa1bds0TW6y+bfEC5qmKcoJ8bqua5oWU8me55mmqWmaqPMoHrcsS9d1jlEOU/rZqqoSo8RvRM3TNM00TdE9JQd0o/0g/pxY/5AvYUWv2DMcMzJvYD/I+uf17gcOytgBw2jMX+Q+mWzMWq0W/QzR/6Ph5EpUHBsicUgXinKCiOd5hmG0Wi3DMETQ+L7PHwOxhZ1yGXZp1MVPLctqNpuiBBE51mW/VybfaD9Qe6iLOjnUy+8H6j0aCOpzwzAURdloP5BPxfULt0uyfmg2m6qq2rbNv0ItWWfc+TVj/UC2kZ5hrizWwyiZUQ5EjkJFUUzT5IaSW0buUFKwzE+QyUnnGYah67rjOLFfSLwVKXIRVZ1yssjkTnAjSy3k1+TROml3kpPbSiSoGb3EsIb/3ivVD0QXcNPE23al+oE/4UEQWJZFJjtmAy+lHzp9KjKAsn7gelf8RaTpKPCP4UHWD2JMItpGhtHYz+BeEffxafj5zxMNIj0rdAVuxDnRQ0pbJie0kRfIfx4hgzdX7C8KMni4IwKXU+7k6RMPJT6IpmnSk8AHkloeO59fk5rBSag15RvtBxrLNS0JgUBURa+hH/iD5ziOYRimaZJ+2Wg/8GdeVPyGYcjwIMayPFolc8HRKcZbsn6Q+cGr/ihdhQfL/IdxS0H6hnMl5O3R+bxTRB8rDEOOwjXlpI85Ork+5kyNCFBElMnpEeI2VLwXfcSbJ9oE2flr/l5CNo94OC9Bv5EiNuLUCBxiG3g/aJpGkRx/TkgdXMF+cF1Xj15iSEq3oylfEbvr95uomMhPE5tNTzj1Qww5pEToqdtQPxB2ReBRGxhG6YgGgNM93FJzk8dVNLWVVB2dT/PasRif86AyuaIosSie4lzyzQmgvBmIKJMTqhzHIT9GTAnwfd80TcMwYr4Eta3zfD4wvKM5H3z5/SDaL/KDLcvSNO1K9QMlGOi6TjqPQ4qMzEb7gT+Q3F5zrHMTRFojJichDVaMbyFeXNYPuq53GhnSXAyj9DMIdqLpFweGDChXRfQV8nvEyRKu1TltRBa/U85vx1UpqYGYD8qtnkxO1xF9APpFRDLoui7mi4gkKBl68RfJfq9MzrvuUvqBt4q6jh5sVVWvVD/QGFNv08/kd3Qc59L7IYZOEVLr9AOPBGiYaGJc9Po4HnirYv1AGoqDgZv0th6ls+mJ4W2iBnH1GVPCNDlJoYb4EXdn6Woi50+tjMl5y8jTV1U1ZuLJD16HH5Xxmpwr4Sikny07X/Z7ZXLe167rXno/kOnnvcqN8uX3Q6vV4lqfBpSQutF+4E4dBRLclK3fDzS4PCLk35LhQdYPZBWp5fRvHKOiXRZ9jpgSJjxRoEfPCm8TcUPEgxLaaCxlcvrUtm1N0+hZ5wEKfcS5IZl8HU6E+xLUv9RI2fmy3yuTU2+Sr0aOFz0D6/xekR/tTMEhn/s19wP1OX8gyYwoitJsNjfUD/SLuGNNP4dAz+EbwwPnKzsnR9Yc9/X7QaRuyFuAGEdFbQqCYKP8H43lzy8PGhtLbk822g+EXR6Tif4xuaGXyQdz0PCRpjkOuq/4JK/PB4tuK12KnB/ZM3wFedBL7AfudsY5fK5s3248KOfIuEtEbsZG+0G042LQQKro8vlgwmjMVlJIEGu5GHfzyJjzwWSFxRbSHOHrzYOu0w+cAyE+i+wes/X8h3ENyn8GdzRJRxKu+ViKHjFZ/zX5MM5AXSb/R82jlsR4TT5sl8OD0sNN3g5d0HXdmFK5lH6Q8X9XsB/WtK18sMIwvJR+4CQGh4Jt2xTDcWUc80F5qEBeDUV7MjxcZj9w73HVH40B9O3Jg9JzTCPEqRwaS+6/v+E8KFc25IByaPIH9RL5YA4CMfwVoy4e4Iv6mIfbnJ7jYQlvAD2Nr5kP5l4Wv2Cbe+ImnpsqOoOelbcDD8rtSRiGfOKHI+DS+yHWxZ7nXVkelMBB5K5IkpMNvXQelGOUnkaZiY/hgTQrWVrCrhhnE4rW50FflQ/mDYtjlPgtsqE060Vn0C+/FP7v550H5XAMgoBsJSfOqCt837+UfuD9Rl13xXlQPpfBQwp+xw3xoHwegWa/iMAmWoADsRMPl8+DrsMHd3Id1CqmR8Ubi040/fgN8X8yPuzy+T8Zr7lR/i/mY4nQJHeTZkpiABUNIv+KaHxivG8sprmCPCjn6jk0ybZutB+4MyMG+NxJ5epT/LEEa/qIxx7UDNm4X3o/xOwPPeHEirA8fPFHigTb24oH5cmvlHvKEUBAfPPwoJqmiV4jZ1Vj3BkpBUSMhX0chbquE6zJZPNx5w8qfcrl9EVOkcZ03mvgQXnLiRfvNPHE37VjJtHQc7eM2trJd8rkNKiXnwfJg0p+QcplJqyInxL/hyqihRhigFbo1xE1G41lp+VXlv1GHU0LA2y/ffR0tC3DsdkyAc8L/AA9RD96N32j6Rtq4Bhh4IbIygeE0buJQQP9FqIbXSeM/nWib3oeOpbnGia6bJ2Xj7iSon35/UA/n7Q+9flrywcV1eSbkwftnOuhx4Nr1nhOCcco+eaxCVIyeSSMaXtSzpfP/5ELQk8td0LWyQc9hbVa2EDDQAfDEG1E28SgElQQFcRoSYoXYUezwlrTW8BAR9/EwETfwsBC30aPvR1fcwM9CAz2UWhz+QVcWAiWGk7ZdVUMAgwZFBkim6grYdlAy41uY3sG1hdw+Ur1A1fkZM1ecz7om5AH5TRfZw4GmXSRH0XE1bieOoXrVBnvJZPT1d+IfNA5A8tNdFkev4nest9qGHX00AzQDQL0NQw0DC0MfddD3T6HeDLAn+r4wyp+fdo6crw58dPlwnPzhZdrk8eVh8/o35zxflTGl5t4RsdpE7HFIBkiGuw6rsX+sNA3l9CuOKZW8x0TdXaWGzqL2Dp7pfqBlEVnTh13EN8aPCg3jLH8YNH0xzl8il7JiRGpDZGWW1N+BfMg+SwfPQ9iczvHjFlrF9EPPfQMhlQ1sui6zarroG1gtYrPX8Dk896fPrH4qcmTmws4UAh7Mh6MWrDfgAc1uF+Bexuwz4P9Lux3YL/dPWRuGjK2DqtXDbfu/vLcn/7QyJ/D43W0dGR4NA20G4FyIcCailoLbQcDtAM02ENyBfvhiuSDir3Hw1/Ro32jeFA+I0DKkecHcxPPvR0WM3GzQkqY/D8Z7yWTvyrvxb14uh35HNTQWBtk+Z1r5oO2kKEUAxv12Vr5eK1Rdj0MXXx0Ce85jv/z15fePXYMki/B8HlINQYyTt/w6f6RMwOp85uzc1sLS9vGK1dNNq6eam47aG2f0reNN7YVlranZ7YnT2/f98r2vS/DOMKkA5O1gcnzHzh88rPfmh45Zj61gF4rckxR9+0LaM8g2jriWY9hlOdwcB+a7DVPWRd/r6wfZHE3+RJvAR5Uhgexc8jlYxjlPihnEHhKaGfe55uNB2W+oR96thYapu/gM038wx/7kHkF8i1I1mFPrW9PY9Ow1pe3YcqFh1wYU1feOoyZUDJgzGLvvMneBSOSGDChd00aPZM6jHmJgj+YdrYM6/37ajBchuwyjC9vy5z4zy/gjEWxlOmFmurZTZYOymoFiBTea8uL5RwTdyi5Kvl550Fp3Rh3ZsjKx3xQrkSDIGAY5a4A12qdqI3xfxzNMfnPngdVHFtT8NQ53Pd95xOHl2BsGsYXYLKxLY+DOUwU/MSY0zdubSloO5LVax5c6k4t9qSXutPLPZlyT77eU1B6CkpvsZXIVundnaslcrXufL27UO0uVDdl6j2ZKmQakFMTeWdTJtgxjNftRThkQWEOUsf++0PnDjznNKssrudVXC6/H65UPqhMH8t4YgLHlcoHvfR+iJl4MhfEcK3Hj9J5NDFIKXycLVuTD+MP+s8yH/Qr5xb/j2+8clX+GBQVOIxwADcll7d+6UUYPwOF05A9DblpKC5BqQKFKmTLg6nGYErpTyv9qVZfutWX1fsyZl/G7E83+tONvozSm2klsq2uvE6adeCQ21VUYHQRknOQm4exBRibheL56/LL/ekaFD2YCqCw8IHSi/c+N7vcLtjY7onL6YcrlQ/6ZuNBeZDEHwbyLTtNPPGjTI+Sz8TXWnAN+vrxoPTEyNpqo+aiGQRem9QM0XLsutpAtRyipyLWWWAU1BG/WcU/PdiEfGPN95bRxmCq0Z1tQKEBxeidbyRy0ndfptGXafRmo6/QNQvsuzK57FL3vqge1xlj22DvKMgKTdNXo9jORY9xAmirrabS1F1TqOLKI8XXlg9KfjAfPnLJ1uHwf/b5oDIeVJRTKBLjpNq2nrJGRCzL+NHXwP9xTkD0OWQ8KCMg3cB1Qs9H20fNcTTfsTE4j6GDGups3Gca+JffNN458kJv4dk1AQp5BtC+DEMkw2iB4TiRYxCUYYsDlMGa4z7CKAE3JpddB/advvnAqft/WrMXTaxWXVSViN1noWk0KeDajmWYnuO25wgifRKbM3wN+aB8ipIPIlE0smQRyp2LpWBzkr+TF+ezo8SL84fhNeBBxo/G1CXXYizHOeYKUP7VleJBKYbgbiv3FkjVk7YW80EZ7e6iY6MToBF6ime0PM1Ey3NYHG0hjh83P7DnWbjvBBQrsP/EKp44sKKD7giO/FMCaH9aitHebFuJEvj4F2VyKUYnMVFQd9z7o8+MfW9qWa0jY1ZRQdXy7ID9OCtE0wld20HfYTo1qiXdOce4UR6UJ4JwjLquS5NMfLBjPigpMDEsJvPKZ2f4R0EQXGY+KG8DD35o0Lmc8EBxDsckPQlADaIz6F/yl2V5gRvl/4hb4bSL+Pxx63YRD8rITtYQ29Mtt+UHBsNsEKCKL9bwf/yGAtmX4MBZKF6Akdo1h5CDKX6woj65Bu3LMI9Thq3uyMqLn9IFZXLxTPF402Ef9pQh2YSDNTh49j89o1dbNEdq+p6pm4Zl+47LCpyHroUhK0HDaf/YAnyC7yXmg4oPP/Gg1Kt8ZN9sPCh/QqiFPDOVm3TOOMXXipBDQNNFIoHC5Rvl/8j3F+kGsdc618U3TNtDP0Dd1Bc8q4ahhyFjzb90AW9OHod7TkZspdpTWN40bkDWjEOTa9PiqonvjnQkeZYinsRjuo4oIXTK5OKZ4jHccxTGGlAKIIM9xQCSJ3YfOXGQTZFqiLpnNQyl5psmzama2C7jf/n5oPzhXzP/lWtZbrI5MsiUveZ18RvFg4wP5ovj+foO7g1eNM9EmpYSYa4UDxqDO39cyAfgsRpXAxVfaTk1U18I7VoYzbl/axE//+Q07D/ff0i9qlTuGSr3lhDyCPtnt2dPr4fRFR+U7DXzTeVhE78OAY5g3Sv4pjG5iEvx+LpDCHvne9P1qw/akFmC1CwUa11Di9kXThwz/Kgkrsf4/pA5L02htgV5XBxqr60+AEGNR6WUYSgClEOBMMozIl7zuvgrxQeT1ucw4I/Q6lqRmM/O8x0vnweNudjUKTydiggwGhh6blQ0LKeBdgsDrCKOLeCnnmzCA6/AAYR90z3DZ7dPKjDuQsnrKembkuc4tjoPyAfl6pNFTiWprae4ii5CGrQ3y6IumVzEpXgM2cb7xvxrMnXInIGDi4lSq39E6yoG702e/t9/YH23xVzqKGHFcEJXQeRcPTcvZPpJ38TKpFH+NQ89xX7jc4RUi0AcY16rS1ytRSf87HnQmInn9ROII1sPo3zBAA+V6DdcPg8aC8go2CR6RSzrRb6X7/stU8XAQzdAH4+8Yn68dAqSs3AEe/a+0jO6lEirm9PN6/OLW3KzUGrCEak/yoOkiPWMQvVSA8bWxWgU/kOe0U8E0DZG15KLuBSP4eAcFKYh07w6g5tTPmSakFvYkboABUw8WP43k+d+eF5F30W/ZVn1VsDKtYqz5zyrcqP5oKQLuGvLtQw35QR6EQQUD5DZvOL5oLFg6DXUSSBIMD1Kq8lik6fiM32Z68FlbcWghX6gI54JQlbAXPdCRTnq1lpYx9B1LLz/edycrUFegUPK1qw0fn+9edBO9dyWMKeTQZ9Csf50m9iKnNE15NuPvAKPhLAH31NizC46hrV0wkZDccIm+iplHTgsgapZb9TdZVm/KdaSgarFUgxZ6qzCWFirjpptGa5j+Z4TBh6G/urb9jzDsVqepQeBjegFjExwGuvw39zWddZe+BnkxXLsOY7TarVYbp5Y5lh0hq4U78U9X/JE+cJoDFWPEjFZ1nDgOC3daHqujaHbQLz3p96NqZN94+XuIzqk53v2zsiw8nrzoLL7MoAWmFbmJD/5uzJ5d2YBhhd7D+GOcfX25NH8CYMZfcfEAF30HPR8REfDUEPf9RpmWdpvQcR7uFGeAEtddVGvY3PWanmMyKKE7ejfwEJb9Rfs+WpQNzBg3F0Qpbo67F8Z/82DqpiTdqXwwCHYmRfLPyLPk1rIMBoL9TlMudV4ndbF24HViGJ2Fu8qtWlrTkMTNTZq//hj7R1jC5BZgPzs9uz09lQF9kvnk15vHlSK0bUCMjahJZPfb2xKLl03fgFSp+CeU788UR+/EEGKIcaOcv5sVdUNlU2wmZZKA7YGf0y5iEZEu5rM/viNhlVe1NDR0aW3hk4LrSYaDdTDWg11m6UvupGuZlnaDMncqeNxNEXJrzcPyn3oGKfGnRDOS3CGmM0zrfnaKA/K8/9iTjHnqGP0ih11MuuwhuYuTKtunSUp+/iFHwQ3Jk9BcgYO+TBa33Lf7NXZRveEIcXK68yDyu7L1efqQxJNusrksN9916S5dd9P4MGTLP67v/H+oeOPVSiHP0S7iWGLLT3x0fco64/tE8lr8vCcXc9ewpAxriHLR2Tmvo5YYVM0Lnt7Nlp6YKiBoYamxjJevegWbjTLha6DSs2entOOy/jv17wuPjbu6+Bh/bxY+smiZmyvFeGUEE0DeJ53pXgvmuDq5EEZTx+g6/pVpey36mhjxcN7T6hw/+yWgxoUlmHP4tZRvCqFkKrB4UUZVpjqWpnqFGMdMY4Rj+k6omR9HlR2XwrFaHK1fU70tMjkUGr1FGtb09VNo62ulAdJoye7/M6Dcy8sYMPBltJo1qc9NFmmYUDOKVuv29lvDppRfpUdhqZlK4rVbHhqA432zCqtwYr+9Vy0LZzHYBndGpo6Gh5Dth6iboeKLA84FuNe8foAsjws8iWI8OEalIxJe60IYVSct7xSvJeMB2UpI3qgadqC12RJyg6WTuI7J0/BuA9jzU3JC1vvX9i8HxM5ZAlNY9KYSWZeRRSKxxxzJHxVHpSfHztYDZJWZg0SOUYIyOQwNQfpJch5WzPhlger78g3ew/bkFz6rbHTjy+xBSmuxzDE1lh5IXpsMwnabobPGdKAGYiWj04rxLqGrSYj6dwmuk0XHQdtKzQNX9c9TXNV3dN0T2NcrK2jZaJqYsNwG76ho+awB0C08kRCidnZBJorXh+Ac21Ea4pwJOsvtoEcg9X1TJwKJTKC+0P0S8jDvYL1QX3TtRqarap+FJyOn8P/9qE67C/3fwPhgfO9D8xdX7JhpAqjyzCpduWWYxAR/3xdeVDxRuLxqgaN1CcFT4Opleg+H2n3laBqMNXoz53vGmtCSoXR5lVjjasLS5Auw1QI9xz73W+ozzcp2rFbLFXbZcuxVvbvo/7nRIyNbJWfbYS+ib7PFqJWEGcQTzTxpQo+N+c9fcF6+oL1/Lz/chVPKgzD0fqWaD7WZP/afsTRRgPMB50nVNC4y/jyS88HjZl+zoOunxcbo8CoMXGMEkDF/YE4Y3dl64O6Lb3RaKDpoI0nDfzE40fhvmOQxcGR0+8oGH2jLiRrMDkLpeOQXviliTeMBxVxKR63o3jK+iswDTqYamwZZZE+O61Dvn14ZvsBDcZrkLkA4/MDk9Wt2fq1GQOewHfsPfaPT5xpamHA4h6L6Tjbl62LD4PzAS5oYeOVllo63fjz7yx+7ODMv8hNJ5K1rpEqvRPJWk+q0Z9tDeRUmCxfd3jxM19f+PyLi19fqM4bVTeoYMgmZ7mmpPlqQlUsflgTNK93Xiz5h9RCFteLuTDcMecfE4cvzrHSR51yGZ9H9xM/pXXxjh34zO/yHBs//aQKB/CqKYTRp0QciMc/Lzwoc47X4vwhr0XvFuSUyMGo9GUrfdnyjrzePYmJ+2cKM8ylRB/DAFs1reyj4mno16KVrWxOg3lHjnfwAv718/iJL7c2jS9DsQoFBTLNnmSdfIzVxyPPNHp/ugGj85CrQ0GFkUb/vsUPlpQ/+AH+4wxiVbcsXAxwOYiqAyiab7UcdKMFjNHA6I3QbTLigLm17X0JO8ddhgeSE7qInVi/PgAnlOiL5LbSrl1tjPJ5c57ZRacSAxXLOV0z/0/G53FTRU8t0W/M52AkCPv3b54pv2+SrYaDg63N+XkRl+LxzwsPygFK81U8jFsBaBuj3blaL8NopStnw775RH7pxv3Pfa/BwGHWqlEpCRs9FuNbzKTrJmLhVPjJR+vv3/uT6/e+3DN8jiFvwoUJvydr9g3V+zIr2dkrD0k3zeXefyaRKveNW90lC5IV2Htm28iJ9+ROvesh6z9/tzE310SrZnn1RlRJA03mcjg+arqtKAqbrIrCL9tsY/TS8UD4IQ1FdbIoq0uKB/6F6IBPj7X1KDklPGmPTpbl+cnk/Fsc7nRB7hTH14Oz6NV+ropXT55NDFffNTIL42cGsr6IS/F4leKJYhQ+1SnGQ+KxLO9TJhfvFTume4mJKbJAjeT09Y6YrMWWAeaUBHs3IowymMKYA8X5xCEFHpz7/W87LUSjfI7R+wZ6ASuPMqvh/hf1Ww+dhty5beM6ZOchtxwtDPRhDCHndieVnn2Vi1YQrGTQ9mYbPXume0crvWNmYsqHSQvGmzCxlJhaHEif7Upf2Jo698ffax41Ed0QLd8PsamWm62aZtntHEm/TazKxl0ml/GgUjxEACK9G5v7ZHqUQjwi87lTLOO3ZPKYHxNzG9ZYF++rroG/+e0lNjGzdw4KJ7em5iBpx/Cx+ueKeuAk+ZXNB1290UqcThIZ3ymT07fEp6XNbeUUDlAOX5bbP1VNHFAga/YcxN49Z//hxRqj7z0W6vgufvOM+y8fX4BkGYY9yOqQOwkHHZjyoORB2oKkCqNsbeDARJ2e4bY3vJLe1Z1tvGNC2zymJgoq5HWG7AkTJo3ElLo5fQFS0zCuQVLburf2uWeY3Xes87667GpV9NrLBBw7DDxWWkg27jI5lbTZ0H5RoqUV80IZRvlLXCMq+qCiAyCTk1bv5PPoxmusBw/sfScQMosDOQUyZ6G08EspA9J1GVaYivp54EEJkSJG6Rd1yBlk2fvROcjo/ftxcL8Fe89ty7zyNFOi3gst/IMfLw8UFrqHjMG0w3RnerErZcBoDUabXSmtN9nsHa10ZRdgfA4OzfK0Q/FGLJ1gqpUYa0KuCVk1kTV600bP/kbXngqMGYkJr3eo2ZVswkQLki/fOX503wV0dJs5vkx9sk0dkU3SunrINkDjieqXgof1edA18CCsR4jlZzGMkpnmxppwFvNBuRKWyWV8niwP8pyG73pktn/IhAcvwNQMZFpQsLeOR0HxxZqsjVrJNKOIBvGYY50rLTLWryrnJ9CBjO+UyWW+RG+20putRQujGwlCZ55Z/66DM5BzNu0Ntt23ALkqTOi/823vubN274Hl90y1ri/UYPgUDJ26Ntu8quBCRt82bl9VtHbk9avzzc25cld+FvLnoHCKWsvp3tXVV2M1KNaBrcZubc7rO7LmjqS2Y7+yJVfryvU3cGUAACAASURBVHs9h7CrYMCeo1ePnd78kAL3ztz37dkXFDZ9hSGGBksedNBcsMqycZfJ1+dB19wvikMoNo+wBkZpb20ZvyWTy/g8ev468yD/+FmE0eM7RuowWoEJrT+jwnhjYEyO0ZV5cDKyzKhd0XzQGDT5nxvlQaVr9xhGK925GkMPw2jknuY1GCl35cqQPL9prAHJ5uBBhHuOf/ihGSghpMr9I0fflz3/jgkdJl2Y0N8x2do2bvZn610jS13JBYb7Uj2CYIWMDMVJYvyUOGB1TWpQaEKm0jW6nEgud4+We1K1HRl723gDxuaYEp1EeNCFe8/0jp/aPHLhd75jPVRl+dcsSdJsmaau+L5s3GXy9XnQTjzI8NOOmUQ9+qp5fiKLxPNqac/6NfNBZXmQkF76yPA0DB/d9DhuzSOUKr2leUZrr6lEVwDan2Z8CkvrzEepcVcuH3Sd+7KPOvhOGQ8q+qnta0aedF+23EcwJYwyJcrYqN4kwujLvU+ehEcUyONV+/VNh13ILlw/Ors9o0HWh6wB2XJ3fg5K8zC2lGBhU5Wt989UesaNzZP+QM7tHjIoXCO+6SIeKlWHTKOrUO8qVFmRgfEKTNXgYBPGylBs9Zb83oIJ2eWB4vL2orJ1uAlPICTn/tWhkz+oMOYlqDcaS00/QNm4y+RXqj4AwygBlKe7cp+Dm35i9blc1iYZDxoV8rQXTRNtVsbDwxo6+JvflerLtyoPyvTc2rzp2l0h6weZXPZsxBder1QbkMlh/Pi2EsI+3JxXx17S0FQxVFtRRoqD2GCMA6Kv20vTge54K7XCLp0HleGEJn4785jbNSDoa5wzElHYyYdRgEVRPF8Ns059UJutK7dZ+VgVPT/0UX+hjO8dPS7TW29VHpQDtIM3XRujsn6QyWU+Bg+hRKUORUamXkTn0SNUbLCw9aC/rRAOPHD+psmXJ+dYfiuGnu1obOE1YtM2dK3h2S0GGNJk0b+d+aA81OGLVSzLkvGjPEeUA4yuvVqnhNxVcbcGGe9F3+zMa5TxXqzGsmOwlFoM0WN5Z//bN05vuuesDKMXdZxg4sV4SDyWxyhsoiXGyMhuSvLXlwdd8WFkMVysbbJ+kMll/bBGD0RwlMm3ZRAy81vSJwdGLkBm/j1PWl+bQzS9EJteqDnoLaqNqqk6LCPIdqJgnBRWLB9UhgeZnKM9RoYyjJKOJdZUxPg6vNeaeY10j04eVGemwcFGzUY9NMwTy9iffnpwv3zNsWATebLIFVwXH4MC/1O0lW1fc/180Ahz4tNCmokYJSLqORx5lL3G+SvY5S1pH0j6QfQZxP7hepHfIn5B2Y1i8pQ2MHwOhp+HiSbLc00ptz96ocoSVDXHqbM1WKbKimUj2iy1n82IrZ8PGsOuDCciRkk/UpoLW8/E9zcRAXoF94tXo0UK2Kw52GrpXvo5B8ZnulLSHJG3Kg+6YQxJ+GBZ/xAiOUApUZA/GxvA695jA+MVGKtD2rm6iKzYZfHk7z28PK17pu+7rRrR+yz9N0S0Gq+BB12zjizHKK9VQdPmDKOxKdArzoMiui3D9JSGYVWqiP/TgQU2UyLPY6L4tNPsir0vHvPeJyEnCF9Vzk+gAxnfKZPLbKuMB5WdH2vG6p8SPljWP/yL8X4Q9LHI84v6WJR3507D5HLXGF47gjBa7xmvbi5WYc+pL/ywdtamvBaWd+JY0bFa3igPKuPLyQ3lU55k2Kk+AFvPxH1bCp5onzIZ7yXjsWQ8KIatmXK16dhoGk9beF3qbHfSZiskYyZG+JObsNWiYlduXbzsvq83DyqLaWTtEad8xX6QyldIg3hMRvp45dNV/SqRbzukQrqSGDG3FC2YmBvMTm8frsNw/bbsQvpcVGDVtdEKDIdVV3ec5kZ5UBlORJ+Tontu2Nfm8DVNi2GX86ayvEYZD4rN6brlsNJcJt77YnnLoebm+2w4JF1DRwB96/Ggor/bxuXFGi4G1nX6gZOgIk8s6kWebMVOWGF26frkcrD6KzJ53rglg30jVRg/3fN4ZVthEfbMb0oj7Kn+0bf1ebbi1MQgUBGnVdVkqdimZVl8xRypSUVRZHiQyTl2aZJJ1JttfpS8Cl6biQJ88TyOURm/JcN0w/JZlqh7vokIRXXbqNOTOQElU8bziXZcPJaNsUweG/LVPze4Ll469pJ8UFme6GoDBIsBeZYWvWadVJlc9ntlfKdMDuPt+gBU7WLVjEj6p2t0GabCv36mqSOrtTKD6DYaIUvxZ8tOxNFv75slkcv2i4qtAeSh1So/yhksWlVNapYwSlwAXxfPNbCYpWJZFqe1YucbLJM5CLB6tIaQb21KGr3Z01A0ZDyfiEvxWGYrZXIZJmTr36XyFSsZt6EMoy02pRnlLPN8UFmeqKw9sn6QyWW/l8dk7RuRkl6HBy1FqjRKhSYcsy9G08tr1w1ILfePh3c8cm5O9xssDwprloa+JsPDOnLyNbkGdJx2sRYx14n4LDL6zNbz/NGYD0oo5Nz+q+SDRshfgzeNJkwdNLM/1SDb7BlRenMXoKDKeD4Rl+KxLOaQyWWY4P4cfXF1SnOFi+2U06WoMUJMJskHjTJFeBreap7oxeqTN0/WDzK57PfK+E6ZnP+o1RsRQGX9kFreWtRh+NR/eUbV0EVVayLatiLjO2VyEXx0bNu2qqoipklOywBX+VHCn6ix6bzO9d1cCXfyXmvypoyk8MwW4p98eaY7XYPRWm9uCYTyyhw0b5F8UFmeqASjoi/Bg0W2xkPwVkU515f8AeZw39CBiHX2RQJoabXsykXYLTa6hha7xyqwt/VLk3Otph56lTBEw9XWwQNBKIYTMa9vzf2iyHngxdJW+dHOeVIe41PtBrEotYzfWnM9OGPRPO2CjzsLpwZSVUiz3B/WKRL+j3d97IAGQBTSaK0vp0/Ff2Xr32VyGSY65O18UJlcbMNFx5J+kPUPfVfWDxddWfZURHLuM7CvrEziQ7GdsrPqntKnhQY8yNYJspKaQ8uHnpljS/VZ2Ti27FyGhzXlHKM8BBJzoDhAyXqzSsLEj8bUp5jpzA19LHBbM/9vzfXg0Zpc5XtLuDV9futohRV3yCqJYo2NwVpmRex98Zj3PgkFm9ue75bJ+RfpQMZ3yuSivmk7BtEYy3nQtfNEY81Y/VPSD7L+4V+M/15B71LHEs0k6mNRfpEPuvKcQJ5h9CKARmPE5gL2L1033oJDCCP23ZOvsOppvs0qGCOuuV/UOnKqK0HLmyiM4egSfUWuN1ktHVLXXGmTfd8oDyo7PzQRw2bpqAa58o5UDSYqkDb6o1xmbsJE/k/EpXjM+npFMZCuWr8+KD85drA6ANGgvuq6eK5vLpqzKTTaiXYd+aAyeawZ4p9r9gN/gCmQZ4/HSkDDv3tRP0j4zrY+Xuk9zo+uzveuBE+Ueyrrn66MsinXhMnaYN6D5NIPKhigHjiMeOJpzhxCAUvhX1sum5eiySOaW6LAncNydX09ifglNsqDys73Wi5iY8/3KlBSrknV4EAFUuamCbbubE2eT8SleCzqg4v4P0F/XCRfATQfUTpYDZKiQX3VdfEyrkeWDyqTx5rB/1ynH9bsH2k/yPhOmVzwQUln92Uam1Ly+gDjPowuXp+dhgm1axj/5hii02oqVRnfKZOvv18UOZa2bXPNyvJH+ewTTeQTL0BB2Zq8V8wx4Lxpy142w6YdbZ6kRrsVt6KKWXZzGsPa7/0Y3zHZHBw5BqlmV0mHtCriTzyWYkKyfxIf7PiBhOeT1QeVjv3bjAeV9kPJ2jbRShSMTftPQh6vyTdtu+GZUdmutfhRGQ8q02Vr1nGmYP8ijIowFbkAzp6uw4P6PlvHSBVholptHhoq1sts+wUM73rUg7w5mJ2FCXfLlNqXq4q4FI+ltnVlg6+YzY1Dk6vPDdYHZWOz8t2LbOjbjQeV9UNR3zymJArG5pFzkA+3ZWqzjUYY1Y3iTKeIEyI0RcqTeFDZflFUj1f0POkKLGYiPUoqk/JMRVVK9IFpmrqu8/LVa/Kmgc9S8Gh3JZYVa4RY09y5KkveRrw2pUIe+4p1mPAH8wuDI6dFXIrH8hjlzZYPKuNHV7HOQU/8vxhycRO/SvFETwiXy/pBxnfK5NQGckMv8kHXCljJ6POv0LeoJZBr9hZbvQV9W3YBCk5fsvyVszWWEuyxsGlNnJCLSbCjqqKqyjb95aZY9EF5hMR9TorXGUZj+SZ8lT2/cYzfkvGmbtgMUQtR91mRSzZHRpWwfRObNm69fwHGsbfYgrwDw+d6h06IuBSPO7ib9pDL5CIOxGPRZ1gdm6KU/xMHhtpDd5Tmg75FeVBpP2SqXXm1N69uL9XZUv3hyt8/XWOWPnp15g2LGnFNHpTUIt88beVK7H/SoKu5eYRRmm0SfdN1eK81eVCLVbN2fTQdT9H0mqLWFdvVA0TbaijNa750MlEKBvJlYMULlrvzdRGX4rG0j1bUDD+5jaEVAy0ClDgUchtWtVcUXf2CB2XKUs6DSnVBehFyem9e3TymsDI+qfpvfbnpROveXwMPShqUNCVl03OMirOebX6U9KKoTQmpMn6LL4LurIvp+ujriIqOWott+2VZaLJ6G0fL9Wv3n4dca3D0DEz4kFeh4HKoxQ441Ej+Cx403g8CjyHynWKsI8o3yoNKfYzRGci7rDhPQWGlNkv2e8bNpsO225DxozIeVAQon+AkjHKAcpeA2Xr6rFObyvgtKQ9KOzBYzCX1AmyGeMHFl0zcM4t/8/Q8W4Cb1/qGXoJxk9VwK/gxaPI/pbGLzJeX6FEZzyeTS2M1ybr4tyoPKuuHgZHzUAx6UjXI1LuzMz2HEUaDeVWV4YSTmGKATwqRh1axeiS0hDOm+1Yx2qlNZfyWjDtAv4JB3fVbL9cbo8eW//Abi7dOLm3PVt5dqN049AJkEUp+7/BLXZPGwHhUzVCyTbeoDy7iOwX9cZFcgtG2iV9hB3/Bg7LErmhOa30eVPTj2zYt6vnBkbNQwu7RMoxWezPTg48jDOP5Wk2Gk/V5UL4gnvOgog9KJp5rz/g8E23Wq6qqHvFIjEUK3ZCFPcuWUXYr9VrZNZot9OseajoGbL215aKmfVXBz73kfuzR2YGxGZhqwcEQ0g7cJ92zS9YXMjk8qAwetKE0C/nzPfnqYF7bdNCGwiLkF3vGlMGCzmrCHLBhymAk8yEbJgwY0yBfg0w52qJkAUoLXRPLkGRVuGBU70oZXSkjkTa7M1Z3xkoML/Uky/3p2kCm3p+udY8ss0ppD0xDtgL5WqLY6C41uwp1drWRedg/A3tmEsNLA5n6QKbekyzD/gXYN8/+3b8MI9WudLM3r/UV9N68lsgokGrAnirsa0BS685YPVm7O2PBqA4jaiJtsoPhFgwpMNzqShl9eXewFPTkVPbFZA2GK+w9Wk9klN68Bqll9k6XuzIs86EnX+8tNPqKTRirQF7py5ibR92tSXcgrffk612lKqQa/enatZPqppIGe5cTh0K2J9vwK1JdIOGDt+U1mJiH0nR/wWE1VHLN6x/41lNLoeeEYbRVNiNz6B3RO17zlGdVNS+ouKiGzLRGbA/KdBzp487Mu9UaENwboIlQwzBCttsx27rCcX2LMfMsWlcqtqGz8vUeotmool7xEb/ZxM8+qd784AvXPfhS99AZBotDbt/hcHDM3JSqcSMeO5DZFJl8IK1vPaBDca6nsNyXanYPt3rHTLY9+LgBJXVgdGFw3yu9+5+Ffd/Zkn36lsfOfPbh4LNH3D94yPqjh/T/8LD2fz5m/aevuH/1de9vf1Cm9+d/WPm7H1X//una3z9d+4cf14de0YePGyMnzJET5vBxY/8x7cGjyp6fNg+c8A6e9Ok9ddydOGaXjhqFF7XRU3bypJU8aaXPuLnzQfacP3LC3PtS6wvPNb74gvKln2r3v2ze/7J571H9v/yk9c/PNz//QxYI/9OzzS++oH7xBfULzyn/8OP63/2o+vkfVv72B+XPfX/5c99f/tsflP/uR9V/fKbxT882v/Bcg7/5Bfe8Yo/91Jh4yZo65hw64T98Bh87j1+exidm8LHTQfq495fP6nc/vrAtewb2T0Na7R1HKDgDJaM7uciSlLMqFE0YXe4fq0p9KgkfvKloQ2kRSjOD7ASWCnzV3mdGTwZsJxPfxsBwXUVzqk2/Wg+rdaxVIm4HXRP1RfQqGGoeYs1liftiEgn3TcmHFPlUwuQqRrmvSt4AW+vk1djtQ8Z4NoOw6kQF1Vw0MNANJdQs9PCFKv7Jl6vXj5zqLs5DsgEpHfIejCNMBT3j2kBhaTBzLgZN/qfMN5fJNxdbmwqV/tTMVbnG4IgO+00Y82CsBcUWJOfuHD31+e8oP2lEeeEGo2R1tgCcMWGGG1ie67MJBvZwhYGDocve0Z+r/5IwcKLNPK2o36MzSTmEDvpW6JmhZ6JvsXfoMiaD5VVEVwtd9G3f0trbzLHac+wd+K7n2o5trt6I7hu6vmd5rhn4NmtSrDHo6VrLNDTXsdgFV66GGISOEdUrMNETGsnu7vq2VdfdEyoequCfv4y//EgNhk5DSu0ddyBVgZGFzVMOZBqQbfVOuvLYdG3et3sshPxSd2F6U3aZRRclYyB59o++Fzx/Oji+gEsaKw/hRLbX8y3TbDCVxqJ+N8KqFqDa9Kuz2hwPhmK+qWEYtm2LjBXBdxWj3I1drX8eND1Lrypsub8ToGPovmayysJRU07r+H893rjmgWVIe70TeiJ1DB5DlhRTjEx8WkvkaonCXKJ4noMydiDjOGRyKMxD8mzP0IXN6WZPxmPm5kAIxer20TP/y7etqXmcjbaE8dE1Td3UadliwByVwMbAxNDA0MRQR9dqv5kCcNrbGoXRfuR+wCoZ2g57ez7bhMYP/GjXI9OzNFvXbN1wTTtwWDdYNj+HbTZnWu1vtcG5giu2PVLACrXQ/km+g64V2IZnao7estSmb0VNYtupRe/ARdfyLd03XdbvsasFVNuZ7erAdscLXXrbASuuq5tGtNMI2ztvATF5vvGH33q5N7UMyfKmAy7k6psndVayL2tCxiOMioNCPS/lg8cR0uW+3OxgegYyFSgZXenGTYc9eASZVkpWrhs68a/Hjv7zU+e/P63MG0Hgs8pJhJZoizRPD2ydZRi1XzF+lPQrn7Ii6pOmjdpxPaWUXpRvErpe9Ag4boiaglqNLbYKPd3A4WetnWN1GG3CyDLsvwDp8taHEIo1yNe60o2+UaUv1Uxkq1Asw9ii2AvisbSPZDzoxDxkz3elFth9iwEcxq7JFqTO/NmRV74yj2z/sdBGv2yEZT3aS6PuOA3XVn1PZyBlLpPDysAFqoeaz956wObCop02mA4wA1b5vWVj0wwVCzUXrciGoMcu7Bloq6GjsT5gqsFn59O0GhsAD1UHDZ9JqD6CiewWLRcVh/nyzajWVbt0QlQ4QQ/azVA91hL+kRGybzUsX/NZ86zoglZ0tYaFVT1g24mYLA4I7aglXnv+ualjwwhatmKxjUbqbOh89uXfecoZuOfFrRM6FLUe8lxTLUg6Ml3QIV+pkzoRwmh1MLOQSJ3vyi32FjXIWlD0usYudJXmmNPFFiB4kEMWH2fwj5/Sh6bxTGQg0Go4lSVP99nWU9GLm3gi6ilzSjT0fGMTpkeJvaeZej5JhYiqYrBtVthGgToDqGeriM9Z+G8fxZ25xuDeM5A6C1OLMFGHZB3ub/RmZ7aXytdPqNeUWoMs3z6qgDepibgUj+W2pj2xRCev8qOHm4mJek9BgXS0N/iUflX27McPnp9mZeMRdQPLc2hU2QD6GBho2arj6j4L6rgz74bo6GZLN1uGpZq2Zjm65ei2a9iu4XmO5zmua3ueEzkGbQ3me47vOZ5re67d3jFWUG6uazuOFUTmOAxZ9mOIQYiBH3qOZ9uuZbuW6zte4Pohc+xt1zAsldpADbBdw/FMeluObliqqjdbWoOuw69mu5ZuaqreonZSU13XprfjWKptOwy2bHtG9q/HAgp08FsmfiL9k76hC6yaQ6HZnauwPdnynsynkuXFwrjZk6yzLPXUha6x8mC61pcxoeBeNepvT3rbkuaWpLZpVNmUqm3KVDdlKgOHcSBVfn/y5H/85vLTVfRDRNvF5UVu4nlqMll/ziyJ0/IU9bM6JbGSpG2oe6ja9mx9odUqox+0EIem8b/78hJM4ZYx613Zs1enTrHNkzIGFJ0tk1ZPqtaXqfVn673patdoBdL1REnvm3JEXIrHUp9dwoN2H7D6i/pA3oSczuKk0bN35V7On4oa6wdo277Hqp7NoX8KvdOs9Eu02SMPOR1m6j0t2jue+fgrXumKN+mZSmCrTGGGtvhuuI2m11RDVWcbJ5j0Nti+cja6uqM3bK3umQrTsa7OrhD96xpNW6uvfuRFm8p6VugYvqUxt9WJJCt3b3u3nsW8THqHNtOWru5bLddoOnrD0Ruu0bTYLh/sbbKNFo0Wqs1AafjNyNOJdrbTPNRDx2Tb5y1ERbZGXlGvS16AvAUlDUbn+oq1/glbFpvKeN9Eqbo1qfSMKJBahIPNzcPz29IKTFiDRaW30IBcGbILwApQzrLd0g7OQzbajGrEgmHtvaNL//7x2e8vWYwlih5lrj75dD+hju9bItaqh04/gCZMsaE3mhXVb4VoqyYmf1T/0HiZOctTc5BagiEN0sGWtNE3vAi5Cjzi94whK5aZNiDbSpS0vpLam210DS2LuBSPpdyHhAfty5j9w8rgqMFm/CdUeOCF/3XsFSXCoe0HaETl3XwMDTesNtH0dGve8pd9bPrY8lHz2Ftnb5dt1uF7GES7zNC+GRiiqtmG6bkeF7CDIERP90OrbU/bWV3RrsZ800OX7U7nW3YQsLLxUfnjgHmLrhN6tEvnyqlscYXH+BFWmW1FyA9ctk0de8dOoNaGrPxg9I55qLTRskd5kMzZoO1DGXVotbC2gOrpOcRdR1pQCmDchuSFHYeag+OKjOOT5b/2FeZ3jCrdIzqkynBE27b3/DtGq/CQHVF7la5stSfX7Mu2+jJK36jSm2xuGTf6i0aiYEC6AQ9O9+0/85HHW793nC0s4XP0sTxRKmdrGAbtWcp9U2BlFwMPPbafH0Z8p47YMO1llj5fQYMxTf/xWbN3ogHjHhQ92bpvEX/isbQvNpgPOpCvQU5PHDSgVNmcPgMpZ6ZaWfXAsb15oaZpMzMzTz311CHJ6yHJ62HJ64jkJbn8Gyaempr61re+Vamw6mGqqjabrA4zOw6cEJcfO4WJKfPqB2Ygdx6S5sDokrQOgERHiGMqHsvwQGtOmEdH0ygr+0W9J1N5cj6Ku3VWj485agGqGAU/TqA6LBJQLc9jzkGAocfmmaKipwE7O7RcDNUwrFlaQ6spyiLTLgHe+7x9Q3EG0mxX2S2ji7J132K7xWOpTdlgPuhgrsomUScbUKxsSp1916GworCKrfS06TorRuA4zpEjR377t3/7Xe961y9LXu+TvN4ref03kpfk8m+Y+L3vfe8HPvCBz3zmM08++SRtU1itVpnLw7iL5Weq2J+rXD3EtlvvKXqJkQVpHQCJryWOqXgsw4NY75z8OlqLcmN2tu/vH/3bYw22d3TLNlk466FheX7YVNSWqpON8ViFp8iSsTV30bopKn9ad6zlVq2pLln2MvrN5QD/9igylT60BIXlweSFa/eckOU7iu0Wj+W++cbyQRktV9QgtwCF8mDywm99P4qKVuJERJydnZ2ZmbnzzjtvvfXWD37wgx+VvD4ued0lee2WvCSXf8PEt9122/ve975bbrll9+7djUaDJ/u6XoDm0iLiO9PTV2XqMFYemPIhuRiF4WvtF7Uyt0yDyGNWcUzFYxkeVnNZVi5Il4IHn4fH6zD6yn/4jjkXrddgkbmqOYZqaYpvG0TasXwU23VcBlXA0GMhR+TYNTVdU8rosd0kbMT7fuJel2lA0oQJozc/t2n4/LVZ6bpvsd3icQeX8RrzQTdlFxOlFiQvJPLlvpG5fzqDGBrOSgJjs9msVCrf+c53brrppg9/+MOf/OQn75C87pS8JBC9a5fkJbn8GybeuXPnb/7mb+7cufM973nPN7/5TQqTWUQSYqgsqYi/dnBuc7EFk63uCQ3yTSkPKuH+xDEVj8W4ghK0qU5CLOeavsLWUDxpQcnuLvhw76lf/5pywkavYaGxoDVrLFhsB5Eehr7nh3bA7CSgawdmYPvIppZUjQWLES94/0t4e24OhipwyO0uzvXsOzqQa/Qwlj6C6cqSVlqcSQs7xabz4w3zoCuPHSen6GAwv9RVVGD4HNs+Jll7suwj6pbPfHDbtut1VvXsiSee+NCHPrR79+5bb71VAq1dErW4+2OSl0wxyq7/RslvueWWO+644/3vf/8HP/jBI0eO8HoILIxrVBzE/+d7SqKkwaQNmYXucbtDd8jqA1xEBfJh5QcyPIj5gRfh9RCy3dGHWj0HEe6d/uTo9DEV1aDmegHbrcwxIhreRWSYpDrRgK7p6R7beY8t8Gih76qIP6jie9IKy6golnsnlxMPvrgtNb3lCEImoNwZemLIjlOGEW907IBDjeTcdryqnJ/Qxmipzh79kZkulqJhH280EE1Gxes67XyKiAcPHrz22ms/9alP3X333TIsyvSlRL3eKVOMsuu/UfLf+I3fuP3223fv3n3DDTc8/vjjmsYqiLDpQ0RstXzUC6+4UFQSJQ9GzvWM+TIeVOabxYaV/ynDA40aH+7VVWj3IWT0f/Gwc01S70kipGp3jb34QouRujaipptEC/q2Ua01zLYe9Q3D8aPIycOg6SN+vYaffdKAfS1IV9gUQupc19Di1Qew/yEf9p+RrfvmjY4dbJQHjUGT/9k3oUJaSaSW2FReFpdr531fZ6ygbbO6kSYL8fP5/B133HHzzTd/6EMfkuk/ibr8mAy7MszJrv9Gye+4446PB6MTFAAAIABJREFUf/zjt99++1133VUqlagS9/z8fM0L2VQt1r92xoR8szvr9WamIWnJeFBZjBsbVv6nDA9inCTGT917NSi1ILd4bVFPjDThgfM7Jqu/NrZ0SkclgqnnshQIW29Vaw3NjvzRAC0lDFVGvemItQbiF4/jpi+e7JrAzUe0/olpyC/3TCCbH8+WeyeO8UVhP+N9kvoOmDDa7MlUIWNDHhtLx2xHqzIXxaXZiHq9/sQTT9xyyy233nrr3Xff/RHJa6fkJbPRMv0qufwbJr7zTqbyf/VXf/WGG2548skn6dF1HGfWtBiti8vfO8l2ZOxOutuLC/CAKuVBJZwgB2Xnwdp1AKJcVf4Rq3ga8VA9X1YGxprdEwZMlaFw4Zrk4vZRC6Zw+OvHF6Ipspaqq40qejYrwhTxNuAYKrq4xFiKALF2eB4h7yb2Lcl4r84mkuRK8aDy9e81OOhDZgmiui7FGVas1dUZQ8GXFD722GM333zznXfeKVN+b2H5rl277rzzzl27dt14442Tk5Nk6NkSXxY9BWi1Hl1CNqUyrg+y5FFTxo/KxleGB5lchofeXLk7V2FTsizwUBi9UNCiN/6/L5ketvxG3WgxeLqu2/S1KGZyXGYmPWyFluvgv3uqtTVtQ7Is471kv0FmI2RybsTjB5J18d35Okw4iXwFMo3ukUryTICh6Ubru/lc7qOPPvoLjIoYZWkYKxh9ZIFhtGtMG0weX8HoGvVTZeMrw4NMLht3AmiC6tIRRiOY9uacG7LHSmcqTHlaqLMsUAyscoRRn609QlY32jp4Arelprcla4mojNHqisqVtdjr7EEj87Vl8jg0hXC+MyADtuaYzTMNFhuQbfZlGl86qmKgOyvrXCnv8NFHH73pppt+oUe5Hl3BKKLdOjyLXSNVKGmbRk9BwZbxozKMynhQmVw27t25CsvbXMVopErzreuHFuCe47eNnTRDRMM1kLmnaFcijEamwHWWXN3+8OEK3N+E9ExfoSXjvdb5DZxioHMIhR0cR5vLkGFUtBHthySqPLgpVYPR1pYxpSvbHMy3/u65qs8SrdtrsSljizB6xx137Nol5Zje2uZ+9+7dN91009TUFCVd+H4UDbOcI+3ANCZG6lBUN6fPQcmR8aOy8ZXhQSa/5HFXIouvXP/gNHts9k8/8GMHXfTRXdYr6JoMowGbr0cbza8eq8B95yCNicIc26b3DeJBZevfGUaTCmF0IKd8/tmKF6gs2UPYEviRRx658cYbf4FRjtEgCPQQfT9ESx8/73enmlBQt2TOQ8nrwFCbH5ViVIIHGU5IB4lXozsSIqN/L9JWm4drcNCEh7zrv3TmGQ0xUH1t1nXaHD5LEm0F+OuPn4V/XoCD/o4JBQp1Ge8l3lU85nqRhJwYe1U5P4EOZPUve9NVyGr9bA1dozddv+enLfQ1ewWj5JISRnfu3Pk2NPd33XXX7t2777rrrptvvvnAgQOkR4OA5XTbtouWXjztJdIq5LQtuVkYC2T8qDim4rEMD1L5ivPWgQfaFJ3UZ4PsPguhMq0tE0rXlANDzd95vMaqS7hawyeMstky99FzCOnF/pEWTJYHJyIGa8UHJePLzG5U/1Jst3jMPl1pFj0xV7Y+KFufMGZBdhlSta6h5eFTHtv912LpTjwF9uGHH77xxht/gVHCKNVMaLpomG5gG5mTdjfbbLy1NT8H44GMHxXHVDyW8qASnMjxEO11wZL2leiatXaYP1a+qqDDqAqPhj33P/u9OTappKIb+aMBoqP/yXersM+Hw9r1mbNsH74J443iQds+aMe6eJalOunA6DykqvDgfP4ComdYLcauiBi94YYbfoFREaMNBzXdDmwjfcLpYdMfra3FxQij5TZMsw3mmzLQaJCXrptYBw+cBL2k/aKIaVrBKAG0N1fuOTQ9OGIOTiAUp7cfnP3LQ4bjoYVLFNdfmKtjb5Hto3DNcAseRpgItxSkbRVjmrbijDIOZXKuXOMHG6wP2pWtQkqFUnl7SoFs+dAZ9PxGtEykvT9QEAQPP/zwTTfdtGvXro997GNv4dhozZ8m40ebDssQ9sPgH39U6y6GUPKuzs3Ag2VRR4rHMr5TJpeNO+U9rU6BrpTcl53fn7XgyyGMzl6bmoXU3ECm+YyNlnoWQw9CbH7nFHYXWHbmjpEm28yz5GzOrle7IX77qCKwjA+LQ3PFH5DuhyThR9sYHasQRh86+wuMXoTVNTHq+37Lc1lUHHhfeLoOOReK1o78LAxJa8LJ+E6ZXDbuPCYTFVnEIbZzMlfhG+GnN6/CIRtSs6wgSlHZVNDvOcqWNvoBgo74d19rQVaBkrE9XYMii+82j0rXc8p4L5lcitEVP4a+uGriJXKO0avSLchVHjqLftAkPcrrUZI/umvXro9+9KMXDeDb4A8ZRo1ogQl69j3P1llBlJy2ozC3Th1tGd8pk8vGnRORqwCI7K3s/ES+3J9XYHQGkqe3T7qDJe9fTp5pRAn7UEb8dOYUpK2ucZflEWeWIVUfHJ4R9b94zJ8PLqRGyOSrTeQaNDoQdb7Ig8rkjPVNazBWuQijUf4oX9R65MiRG2+88c4773wbYnT37t3ECq/Bj7J5RGvfi00YqkFOubo4BwWbD1/sQMZ3yuQbHXfp+Vk2eQSpOcifv7Zgd2W9LSOvfD9agA3HQrzuvucg5fdMeN35ha7kAiSrA8MLsabzPwlz/E++T8X68k6kynhQmbyN0fEqw2i+evhcpEcjjPLC00eOHLnhhhvuvPNOImLeBtrzop/YiVG2vwdjoUL0zMJxg9WiytQZRsfkdQuvGA+6yvN0jv4a+Emf3p5SIVOFyeWtI3VIWt2F5f/vpxj4Lny1jLDnxUQa+8YdKM70jyxBstEjr9PE70e3ueI8qIwf7c7XuzI6jFevzqiE0SBUMOLPqCSq53mHDx++4YYb7rjjjrchRmX8qO4hq+bhmw/P+N1Di5CtbS3MvApGJe4Wp58ucs9WzGMcD8LaPfoiqTMpflLnEkUTCmx1Z89QGZL2wAHnE0dqiAHkfmpD9nR/GvtLJpQubE3VIaV15UwR6eKxnPdafW5In7f50ZXfwBtHB7I6oDJ5G6MTNYbRQu3IeWQYjXJg+dbnhw8fft/73vcLjIrck8qKmjjo6d+sYH9yEbLVTfkLUJLXPVgBKDldnBfnAI3LZbw46eOVT1ft7YoktkfwYGYOpnw4gKzMRL4GBb+/4G1Nn1d9hPu+V4EDs5sz2F80YOw8s6Qps6sotwXC80FKlBot+isXySUYXQ2Soh/zqvVBXxWjrutyjF5kAt8ef3TqUeLwFT3wDAs97ftN3JIqQ64ykD0HRak/esV40BWGm1QSV1synGzLV+FQAEdw4IHF7kMqTGHXnhYkzxwru3DXkWBHbgkys1Aqw7jSPW52T/ow4YixS1sF/kx4UNlv6Nk7CwetrUPzMKnCuPPYNGreYhitZ+JrIIvF4m233bZ79+6dO3eKazwoT5mymGU5yxuVi1cT7yWTU0wjfkpZySTp/FeSir3zIx/5CP9IvO/OnTt379790Y9+9CMf+UgqlaLF9a1Wa962WkGAQeupKsIDS33jzjtGzkARZXynTC7DQ5yIfDUeVJofLNFlU6dc+NABd0u2DLlFmKhBqQmFVveYASVNxnvJ5DFTvvqnhO+U8qMSW9A7WoFJuze9wL6YVe59vun7imtHS3YctmgHEb/yla9cddVVt912G/dH+QoQvoSDSy7zoPOCpK9lckIkoYqDLPYsiZiTaX9CM/+U/4qPf/zjd9xxx4c//OGbb775q1/9quM4iqI0m001jFJIA/1ryziQrCUK6tWps5D3ZXynTC4bdx6ni4psHR5UOu4SjP7zMxq8q2iydI1SDQ60oFCD1DIreZeryngsmXwVlB03I/NxkaO97kaudKmYD947ZvQVLSgtQ7YGQ4u/++jLGAa+zfblJYAuLi4+8cQT7373uz/96U9TRnrnQHLs8o9e8wEHh3jNXbt2bVS+0QZwjcu/SHd8//vf/4lPfOJXfuVX3vnOd37rW99qNpuaprFyXyzH2XNNI3s63M6WLJe35aYhZ8j4TplcNu4b5UG5X9uJhzUh9IdfU2BLVmOF1MaVrod0yFVheK4rOQ/pRf588ICJLiGTr3kDyEv3QxJth8iPigDlMGUdccC9Kq3BZLkrW+3dN/uh7A89Vv+IFXWk9Uye5z3//PPvfOc7b7755rvvvpvrJG7EaXT5n5d5ELsav51MTvqVIziGMC7nB7Lm8RvdcccddA7d8dd//dc/9rGP3Xjjjddee+2PfvQjem5Z6ncYoGuZiP/3dxpsa6Xs/EBhHnLS/GDR1yLlwtfLczjSuMhGfH2crD/unde8+zET+nMqpGsw1uw+oCWy1a59s4kRhlEZVtaXd95DxnfK5NJnYMK7aqQGU7VEURlMzu5IHT3DVARboasoCis8jWhZ1uc+97m77rrrve99Lx9LPtgx9HD5azuIXY3fTibn9p1W5d2+8pIt0pO1it+ITqDb7dq16/bbb7/mmmt27tz5V3/1V61Wq11YjilRRL1ZRvx48TzbHys/D4UKFHRp3qeMH43MI1dYq3F6h9kUMdB5vmzcxW+Jx+89ZAOrnpotQ6GSGFd6MtWe4aVEFP3x87gyI+X8qnJ+Ah3I+E6ZXGZTIG9tGV2ECQUm9N7M4qZCZe80qztKxdY0TZubmyPl8fDDD//FX/zFv41e/27l9bsrrxXB5f6/cr3f5ReiO25Uzr8eO+DXiR3w07j896LX7//+7//Zn/3Z1NRUrVZjiyxsm0JJP8BArz+l4/a957tyy4nSEuTZ1rTSvE+ZG7aCxTgeBJ7nUnhQ2bjHYMP/HPyvhT+uf9iGwhJk5iFf6U3X+1LNnrzGisxLYhepfOU38KvTgYzvlMllvjmM6j252e6iBgdtyC1vnsBPfs3X1AbDaVQGglbr0vBQfTJe2582qqLpKCJTL/9fPrnFL+VEL5mcnh/+LxFD3Jnmcn7ArxM74GQwyXmugmVZhmFYliVuRswqDyAGrvbX36vBcKOr1OgZr0LeZuVt3yAeVDbuMdgIf9bgPU+4vcUFGL0AmaW+TGMgq/WMuTBuiX7JRXyn8NxcJJdgdKM8qOivtBsa3TExrEFpdmtOh4ccyC1tOYC96YX5xYVWq2UYhq7rhFEy+pRRykeXBjKIXnxQL/NAvBq/ES0H4JWIRTndjks4srkkdkDX7/yXN5t/RHDXNE1VVYqTyO2hrogqJ7ifHvoR5DExpbManbmwd5TN0ayZ9ymTS/GwQR5UhgcBlKuTQYznH6vBv36kAnkXUhW2YUpahxKyBXe5qgwrsmtJeS9ZnqgU6yzTlqXc5pToGaj0ZSt92TJLyBqa2zZpwGgD0nrfuHNtcv5/eNJl1dN8JcBlxFpUWxktkxWtl+0DpCiKrus0flxpMbctDGlPwc5Paf81K3rxOkr0Xc/zDMOg50S8Gm2pSgZXrOBO2xOapklbYfMdtNjiOMuinTMty6JSlYR1rmsty6KqomvKg+oFdCw3RIMtlkW2UbtromUuuvhvHjl19aEqq/S0bw5Kld4Jc8eQ+4bxoBI8iJ6reHx1qQb//rs6yx3ON7flzkPBhXHsL7LJRqnNlehLKe8l40dlvoRkfyDIaTCy2DPRBJbs3OrLmwP7F95dLB+cweOsyCpbSYjR0gLXtX3bkO0DRPuvUW0EEVUcNJTYz0HMq2KTbuaIIT6BVLi4Lxtdk/ZpiX1FxDrtUSRejeBOBoF0JP+U7/oSM+WiHC2F1fFCtt2PabPttRzEqot7nrdvGz8N6TnIW31sI8zF7jH1HdngDeNBJXgQcSke33xEhy+eRNi7lBgztuRmExMBTOKmUrOrqMhjl4tUsahWrwgPKlv33Z/yINdgBVjGliBZHkiqrDhZrnJ1/uzfn2F1VnwH62qjYjVMR0VDuk86+aZ8HyDasoLwwaFGyX50jqqqtHUQ13lcg9q2TTtfcTDxDTC418hvRIkvpClFgJKWpW00SFXT88OfojAMTdPUdZ1iIJk8ZJvrsLJeHttxxrYwOOdj6ejMrZmzvaUK2zosqV87ZcPoWcgt943qRCTx4eMmXjbunHjiXyHrLzuf+7t0wqqJX/GDY3IRl+Lxr31Zg8eq2Hvf2Z4JZyA92zsRdo2HUcXkhpQDkuhR0TcQ+U6ZnH6q2Bq6o2zd97Ysdk0acGAeJua6h+YHh5TeAyEc0uHQ4mcmTj35/UVkG565583ls0sXMCohQ2Aiy8hrsHPdydFJG1yQvhRNOQGXarNzZBCn43meoiimyVZ/87vQMdl3vsSK347wZ9t2bLtB0oWEdQ5oftC5LzxdsFMeRjX7WWsC3dCWFtXGoaNnP7v/Ebj/LKt//WWEfcbVo9VE+izk5lkiqeBrEUB/NjyoDA8iEsTjP/+BAy9beM2DZ7vH3cToXHfJSWS1vtFZ/qyIZ7cxJMGojPeSyWXPQIe8ve57WwG7x1QoTkNpri9bGRiNqmkWlq7OfPdgLUrXbmgXLpy44DVVNk5tbHTuA8RBI27tR5AiFctPcF1X13VeqIfk5FBqmqYoyn+lY/nJ9CSwfM3IrVzdim3lDPJBRQ1Kn5AyNk2Texec2lxzX3jyMUzTNAyDK34mtALP9NkP94xAWUbEKuKPDbz9UQuSC/AowrC1ee/SlvFlKC6xRcxvEA8qw4OINPF471Ebag5+pLCUKAVdo4uQ0buStf7hc6wGxAoW6QsUwrern618xM+BfEPGe8nkMhshW/fdP2H3ZMowdAHSC71TRleh3r339LXJU49quMDK+dtYWTINhW33RqsjojCIKkQQCcX3AaIIiYwv/yimQckoi7ghcNi2bRiGqjJfgjDNVSlhmsdJK+Bk0RhhNwZQkquqats2XSQWDMn2hV9b7gfohq7tWc26tjDrtlQbsRxgsYa3TM1CutaX8wdTSu//396XB9dZXHu2LFmSxRogLwR4GJA3vEpGtuyADUmKStUkNTVVM5mq5K+pmqoweVOT9xICL0vVVKaSmbzJq5d5LF6077ItO2Abk0zYIWSFEJKwGLwgWbIlXd3929ee6e8nHbW/e/tasuUFWxeX+G7fb+mv+9enz/n16XN2p1jLcGVzhNGi0+5U58b7XZK758KDqvAg41I+/uUxg/me+W9/YZf3crEHqiVbtmNEbHrq18RcMFVdyLa59QdV2WSqfd9s10RV08gNT46xJ8fYbpP1J/626d3vvh5o2LDj6vnUuG6IDECRb77odTIpYnnSIagoh1WMUASeYHLJcy5sKVIoAUGE7CMU5vN5ijWJEyhfW9Fy27Y1TSO/LZwMyQ15DFjTrUhOF5aLDAiWNqYZuh9FRxI5/XgYioSSP3nHqnnszzXdtqDue5KsZXTRduxtF/QTJl+hnkXxE5T9Pkt/UBUPqiqXcSkfn9ACxr3cf/oNX9jPq7p11pJduGPk6pZjgieXxs2F5EFVcTFZ/0fXtJxc3myU/TTBurJsz8kHnh45Hq00eVlzNJ/WowlfTHZWnvPkGfMAEeVOghDMPyUABoghdJGOGrY/AZckJaCm67ppmjLThMEA0asqp6FC1YAerMoLryo3eWI8yJ8U6XyjEN2e6eaSItNYMvGOwz/92G8qWjMiXF53smy3dUOL8HEuyo8q+32OeNBp46nAb1iGJh0bbsB4yH877LGOd1lHavWuhIiFu4Oz1g9IiMYPFPyWkh9VYl3BgyrOr+icYD35yv6sSHL3+Am2k781NJbyBA+KJC+kxmWzWcMwhoaGTkx9hqXPVNnl9v+33nrrvffey2ZFtDlSUQRNa/BsfvTJ31ms3/lkh8X25lh7EPP1meziqOXnzB9UgRMCX+yA7U5dvy3Lmjjr9q/a8151d/KqVuehV8S6LuMeP6rxJQPHWJ91ffvYggHOmnhF91AcmlPz/nnnQRU6hog/2mtU9qbKuvPsiRNX9fFjY4m8IxZCwQqB9x4ZGfnhD3/4/2Me3S19VkafVdEHx5ff37Vr127evPkHP/gBsgMEQTAZhT0b2mbi/45x1pn+RGuO9SREJIjIHy0Ox2ifO9msMnDPxh90ljwo68rc2GVU9nDB43YfYV2ZRdsSrWKi5Iw7PMf5I783WKfBOoxrez3Wk6/qHVVitKiirXJEiMpxK4wbyfYqniednhs/vyPLeo2qrnHWlijbfur+53lOS7u2CAFLxJBhGF/84hcROk/lH6TyJ/q4l9fX1y9fvnzlypVf/vKXoTZgadTJ+dxND3F+XdtH1zWnRJ6tPpu1jqts1ovFg7KO8NoB65p+vaJpoqxtjHXkb20/cVTkOuCMW57DzTdSXOxa3s2rnxhjP0tUi1TP0zaTfKzit1TlMkAJdsI+6xCk0gLxbzImCkaw8vzOHOs2q9pPljWfqmia+O6fOffz3DbJKLYs680337zjjjvWrFnz4IMPypgjBzZ5wwYVXjYHDz744Nq1a6urq999913XdQ3DEGunAeduPsX5xp4j17Ylq/vyNd1p1qT0D5b7Wj4m+Ur9hV9V/a4qp8tjB6ybl+9KV7W/f822obJmizWnvvxqRmRJFRi1XZ/rXsA37j7FdvEFPx2u2HtCBE1WYFTFb6nKVe9WUD7JgxaU01AxWIde3TIoMNqa33fC5YHGRWpusVEEtOWhQ4fWrl27devW22+/vWHqQ17DMS9jKr88DlasWFFXV7d69erGxsauri6opGK6F2v3psH5f3vu1MLmxNU9etnOY9S5MlDQ8vRT0YPC81X9riqX7yAfl3dz1j5c1vSH65pOsKaQPf5Rf5KL9bJIHzUE8+vxJ/5iVLelWGu6vH2wum2aH43VVcVvqcpVc4qKB1WdzzpN1pataTm+sG2ctTlvJzMi2fcUVw8lrL+//+abbwbmMNeTNCVhSSWX2cHWrVs3bdq0evXqlStX9vX1gXMQiY0nlSG7/a082ynWkNmT7y8c8KlbAZRpHUyyWS8kD1re6rCmE2Xtf63uTbPm8DOdx1Nik4vI1cBCrpkihbU3YYR1PSdYr71o5+hVIs4CCbDTDlT8lqp8tjyo6nzB7TWnr2o6Ut2VYW18JH0yDLzJvXZRNlvP8wYGBlavXo3ENzIECaCX8VxfW1t73333ffazn73pppteeOEFWnEVGp3HvTD187/mWEu2aoctlkP7g0uNB13UNsqaE6xzmO02WDff8Uefu5oI8sE5s3gukeYht7mb+4+Hxli3dVOLVSPi1ZwGTfpagt8S50yxaLRfXtZLJm8SjVQVD6o6v7zbZDsTAqM9GmvjqfSg6QZG5HAutoxoWiKR2L1792233bZixYrGxkbCJcXGh3ydUgEut//fe++9dXV1q1atWrly5YEDByBHeZQGlntcN4d++WaCdTnXtPKavpOs1bjUeNAbuocWtOfElpBdRtU+Puxwro+MRK/BRnlgB5wnRrh+4h0jvLltsGI/r+7irC/FOker+jI1ewLWyVmrt6Db/sQu7XzzoLKOIh9Xtkywdn1RV6qsNc0eG3lV0ICaZQqfINM0YdofPHiwtrZ2dfS53DB4pvehGBAUkwze0KHHLcNOuKm3TnLWnGKdOuv8cGGzHSeeznpf/Gx50G1OZR8XGz06TpYPpCu6xsofH7phZ4q1/OmqvsyCZn5Dm/+/3nE5T/DMYUtsBeLMxv5rN8ut5HDO/9/vcfaTI2V7OeucYE3DVU0nqtsnWGtK+B3vypfvTir5UQWvOeWwPOmzXN6RXCh8lhOquUbGpXwsNlh3GtVdKdaWZttGn8oKc9UwBAto2zbWfp555pklS5ZgN9uZ+vRy+70ERm3TmfDSb5yYwmjXkcoWh2xTeXK7EDzoTr28xxErhZ1jVXtyNbtzFS2Jyp0T5a2DbHfAdmQ+t29sUGSuTXMn70W5wxj3vJC7OS7chC09yPp8a/MfWa+5qDNT1XSqZufgoqbBBS1DrHeCDWSE76aaH8XbAljTOriIKj0HedLFrv9us6I7yTqzFS3JJw47gZvLWwF8O8AIHjp0aNmyZdjUe7lh8EzvUwKjru2lguxvjk1htPsoMIqemsRoROCzLrFAChEb/1Xd70X9hmX5Ih+znvzC3dbCvhxrOcVaRyt6swv6dNaRqRbxe70bej/62ZgwhY10mDd8IU2FXe+7np3JRa5cwky208+e9K9tGV7QLdwOKrrSVV3jlW0nKnvGRBCbDpG/i8wa2U9UBijqNMllzJIHld9HPhYxcvss1j3BurIVHZnvvz7iebl8lBuFFtAPHTq0fPlyBGI4U59ebr+rMBq4PPDCDM+/8j5nLWmxnaHnWFWrOw3N0w0Pkq/U+DhT1e+qcro8dsD6kxW7s1U9abZtiP30KGubWLDPYXst1skXPnniB+9kdR5YyVOex3MiRZxI+c5cYS0Z3BNy1BP/HU9z/p8PpljbIGsbZz0W6zXL2sYWtY5XCvaHq3gv1bsVlJ+BB429En2dxKjYG55d2Jl9+IWjQaCJkRalEYMcPXjw4LJlyxD26HLD4JnepwRGechzXP/l2+4kRnuPV7d5KoyqZI2q31Xl1HGxA9Z9inWMstZRtm2YPTnCujILBgxh5HTy//DUoOhQW9N8J+dpIrGIJ8hFlgs04b/lcEPjtvBfz6Rd908jfOmuw6z5GGvOsU6PtaQrd5y6qtWo7BQYnaaZoiGIcACqOWK2PGjslehreUeSdZsiX2jkTvb9V4Y4N8VKaIRR+MhRzoYrMI6zCqMigX3INW4+8we9rDXD2vOs76NF7b5s119IHrS6L1khOjHBujIL+/UF3Wm28wR7/MM7+0d/n+c8M2GPJ4XayQ0e6iJnqJjrwygmjZjlDc+3DM5HJnLcd5ve0x58aoztyLG2kHXolc0j1S1jFZ3GNEAjCmlBh5j6sYErbioil0N7YmF7ojxKQBqtfyKFlDLmGYEydlDVnmLi6QnWkqwxG62wAAAgAElEQVRomvjJm2kemtipQd7K+/btm48/GrPrgVGdW0/9OgOMlvUP1nQEk374U5budNyRqZJYfFBVv6vKY91HX6/vSF/dky/r1dges3yvyZpHqrcdW7o73fPHYxFEEzwIollR7DuMpkmxXh9kHJ4RIVdSXDdPJkXaO+4PeiH/lz/wv+2wWBev6HeqOgYXtH7IOkZU/Kisl0zOI2fFg9LLxA7EGli7LgiBnYmF28e3v2vzwOSh8HKnvUoDAwOLFy+uq6uDUDnT9HhZ/V5ajhrc3vtackFblrXlFuwamsTo1HYRGY6yfJX9hlX9XqI81oP4uvCfB2taM6xXZ+AxnzhS25/8u6OcmyN/GRw+JeSmyzWRr94S0lSESGLRbDnd07QpjAdjox7/5lu8Zle6qvODJW3vXNf8EevNs3aDtWuCZuu3qgacmv5cTevJ6m3HIo6p2L74KDNVkf3yp6vqpB6p9n1TrHHK2YD8TPM5xDDUCKOUi3EqNkSOB6FlOd97eVzw3H3+Dd1DLDJ8yfaVZYqS/54tD9o5wroT0cxpsF3Bwqd4RX+ObT/GOsfL9mSv7jKu2eaVbbNu7Br+0RujPBA+r1gbIwuYkDmJUWz9xuaeSY/xgJsh/8Dj338jW/3Y+2JL+0G+sO3Udf1WWfMYe2KQtZ6q6E1X9qajrDQTSh5UtV9egVHVvu8ZYnQ+F2MMo7qe5yF3LPu/vzohMNrrfqJrkLUJfqaobqbkv2fpD1q5y17Qo5d1awu6NLZjlP3r0Yqdg5/cnbphNy9vstguzgYyf9P9fufvDdvkQ9kUVhywbwcW8GkYpR2S8q40sVWbZzgfPj6a/vprPut1WFPuU2062zZW1Zm+blf2qt4xEf25ZUSMlW5HtS9eXV58rVW171uFUewJmc9pWyhHEUhCNw0e8sCxf/y7NHKIXd/5EWvPqGzcEvz3rHjQyl2ctZnlzanruzN/05+5tnWkcvtH5duOX7fNFABtHb9z79H941HS71zWz4s5nUCJmk+uk4Uho2gF6OZpCFsuD23DmHBN65jNv/lG9todx9jjZtluvnAPFzlK/uUd9uThhbuylT/zWY+t9ActyY/SFD99IPndnLbveyqvSGyun88NTmp10dw3Iu+v2HvvPPEXg7VbrEu/ruM468gXcIKTIkO2K2T+W1VeVOkUF7Zai/rcq/u0ipYRtuN4WdtYWbfGOi3WcpJtP/zvnp340zDnXujxlMsNrk+GKcDuMcTgwIYzoY/S5t3Y9kjOPT3tG6YIreA5Cc1y24/wO3vSbIfPmmzWlGXN46x9vKwnWdGfq+jTCt5ZxYNOlk+DMjbpTynyRGmhdVRyFJMA9JMDBw4sWbJkPn895a8XO/RdkVibB27nkSg3eGfumrajrENH+8sIQw+q+E5VuXwH+ZjtPMU6Jsq6E6ztpMiW3ZNnnTbbYdY8ffTRV0YTE8I2MrycpYk0YZG7/aQcpZgdiMohMFoYWwYo/tDmvnArEsxpyHXuBlrID+b4qt7UjduGqraPXL3LWTTgstYEaxq5pi+t5kETC9uT5R3J6AUigGJ1NAZN+qrYdlIao1C0gdErMHk9fA4RYb22tnbXrl2IBiAw6oUilHNg7xvmFS1p1p6+quVDwqjMjGL2V/HfqnIZl/IxaznBmgdZx0nWn1zQM17TPrK4L7nhgLP/Q54UBns6bX8ktlf73BRBO4TVji3gwCiiCMJTmxXuqXUcxzTNISMU48+1QlPs2PY4txybc+1PDv+n301saH77mieOVnRqFf1OZY++qCOp2hevKlfK0al1YYhPMWtE+75niNGlS5fOY/Q0jIqI7AH3zZ+P86qmJGtL1jR/wLqi2J1TcgESFHvtVXynqlzGpXwsfC9701V79Kv6Up9q+eAL/e81/8UQUY01PqynB3lWYCpvOVGMKq5pss6JFRma2Nm0AhrJWgQZ1DSNu5oDV32bGyk/2r1uhqMfcH/E4vzpLP83L3llOyfYkynWnC1rSir9QduL50lXYVS171uFUcR6gBw9ePDgPEZlOep5njmJUf35FK9qTrDWxKKmw5MYnaLrzwcPWt2RZdvH2ZMn7/iZ8Z1j/L3I1ZonTxxJvBFouggmY3MeeNxOcCuR5x7FvIjbRcSPYqsrxSSinZZyBARd1wV2bZPbttBSXf7qoP9ffzl4V+uf2ONvlm2bEMsYPRrr08QaRluyvCV9VWuGtXzEWgdZ2xBrP1HWOVLefaqiZ3Rh7xjbcYQ1H2cdw/i6sHdsQddJ1jHMdh4Vl0yVV/SMlnWOsPYTn9qpVTyhLWjnFU3B8tZk+/tRQJK8cDC0LCsMw2QyuX///jvvvHPdunVYCyU3Z/LJr6+vl13xY+VkfMgHdE7sgPadUu4ETLWq/Emqcqpk7IDi58/woLGx8b777tu4ceNtt9327LPP6rqOvfbCk913NUM/NMqv+ae3WBdnuznrdGv2pKr6E6LN24Ym+6hjuKxzZNHuZGXf+GQ5Oq5juLz71GQHtZ8Qvdk6iA6q6k/UDJgiZVJHQvwdcNjukLVa7F/Tm9qP//3L2V+OC4Ep4huFGg+tMEpeQHFZoJBYlgUnYMdxCsnRIAgm+VEKOxML+EahYOCmadt2yvM03/PDIBRaBR8J+Stp3nucNz6TW7Zv/BM9H5V1HBce/12J8s5MZXueNems2RD/WkxR+1aLtdni3/Yc26mJr+1OWYfL2h1xQpPOdkSXtFplHa4ob7PFtTu1irb3WdsRtmec9Q1+qvfP3zmc/VA4mYuYOZ7npdNpx3H27NmzevXq+++/H4myi6ZEAtQIYYSAGATpK50ZO2hoaKDNepSTifz/iVencwDBwvLYbemrPE5mcrx27dp169Zt2LBh/fr1vb29MEBEzAFh1HuGnv/FoL76//zu+pZkdctE5WPvVXQHonlbLdHmOzXRyFFflHf5032BvmuzT+uLJl1c0mKWdbjlXf41LZmaptFFT75//WN/WL7j1/9+759/9Jvxvg/9Nzk/GgVNiXbL5V0jp5sGfClPozijnRS5XA7xjuRZnWZIMdcTP0qbYPCG8jIjBYJLBmKh3+HcDx3uW8IfxYvGScAzFn9rxHvqr+kdv53455cmfvSL5P84mHzkVePbr+jffkV/+GXt4Ze1b72U/+aLuW++mPvWS/mHX9YeedV49DXzkVeNh1/W/uGF7N8/n3n4Ze3br+iPvmai/Fsv5f/hhew3nkv/3YujD72S+C+/Tj/06sijr32492jipBv4PMhmsxTOaf/+/TfffHNjY+PatWsbpY+8I1QqblSVy+eojmVc4pxN0YdAuWHDBpyDX1XldJ9zPMBTGhoali1b1traSp2d0z3u2b6lvTuu/8+XRx75nf/tP3iPvjqGfkF3fOul/Ldf0f/xV9Z3XrfRU9RHj7xq/OOvrO/+2ik8/9HXzO+8bn/rV95PDvO9Of7rgB8OeMZxua9xJyPm8tDmgRU6hq1rumHpDjen9kjCJAIPatu2ruukfRL2sIIo5Ch0VVj3sv0E+YTIg5ZlTc/++QihAbftbF4fde2k2J/p29xN8iDFueZxS+fCs8rAZho/EDimf67HHZfbznQJfnI9UWjZxctNy9YjFcPkXhQHVowSEw8QoUpEcgLT/O1vf7t48eLGxsb7778fmCAJRDNp6XIZSaWPSeBB4tL9STDHTlCVUw1jB3T5DA82btxYX1+/YsWKW2655e2336ZJM5HRXMfioW15/pDFBzkf5zwprGFP/PP8eIM7ruggkapZ6jX1sVAlOM/b9kQulc0lAyMvesg1eeooNycEMEKuW2FO92wnssKBwWi7OSUyoNriRwhNcE9hGE7yo7Ckpi4X/0esLCv6nKYoGJynDTOV1h3NjqogZv1AKMH56F8mCgiWdF0t8AXvFXriX+BGVbcC2/At3TO16XLXCh0T5b6lT5d7duiYONkzNd8KhDehK5qbh3bgmNlsPq+JSMoYP6Zpjo+Pf/WrX12xYgUsp8L5uq6ujgpjmgCBbIYHMoJleUlb/GLKgKpcBUH5/jM5/tznPnf33XevXr36S1/6EhR07OeONi8HwnoIXdFPorM87hmeqQW2IdrTd0TvoJtCzzXyvqWHTiQMpgrFr64l/nn25PmBKw58h3sJ7iW5NRF6+VDcmlshz1pRQP4ocJ/h8bTOI3Huiyj9U58S2QfIkQ0BVoUclcUnuWPCziL2lOYOn7t5J5d1hJO0x7mpcystCAURRtDltua6OZMbhhhJjsbtnDkl7wwuVhO0QPzL+6EdqbN6KI5zXpD3Qz0UoteO/hl8ulwLxIUut31uh8KJwLRDPW1nk54dMWuCWtM0DYmzksnk17/+9VWrVt029bl16nNL9Jkqvm2q+NZYOZ2Ag79VfOg0/H771IduGzvhjOV0Ag7o8hke3HHHHcuWLfvGN77x7rvvAga5XC6dTkfxggPxN3C5q3EjxfMTXnos5wVapLZZUYNbU92Udf28L9IHohzdZEbdoQVi6kIHWdEcJjrUC3KOl7HE5iMrgoQ39Vd3eVLnE1qYi2ZHAfRA7JcvjP07jS7fp0CCJDdZTMxCB0VqC9rLhnf2PM+27ZNOOhMKWisKa80DOxSyXnCxusvztp9yvJQfZgOe8cKU7SVcR3cd3XMNzzV8zwx8i/75nunYmm3lbSvvuQYPHeGXFTqBb7mOTuWhyETg8sCJXpJzJzCyppE2Pd0TwaqinG6oIaIhDw0NDQ8Pj059Tk19TkafqeLRqeJTsXI6AQdjig+F4huZ+uA+cjw+nIPfVeVUjdgB3X+GB4lEYnR0FL1pmmYymZxMWBXaXuDbkQD1zDx3ctyzLU8IzMC3Jtucu2hzy8y5ju57JpWHge25BvrCdfTJvoi6yfdM19FHDbGaaUa4FJAIfZE5IhSBYG2P25bvux7GScBDw7ERUYZSSaHjQB/FDHf6adKup+8goUAzTb7k1G+IsmmadugE3Aq4ZnHXDrltcH2Uj2VPjboZTYhWX3DGNudZnyd9QQwhtHGM91LFB4UuYts2LpQyJQidQqwmhFwsJkTrCn5GjEvcGSopxXmERwItV5DaXbocv8p/odeX+IsFElkS4HK6BCfQPWPlsbRM9JVOm+EBZnbOxaD1PA8ZfIQWFOi26+Q90SM5Let6pjiINi9Mdaz4P3hxBCGkd8GkivipcNqUf0IPBobGDVMYEsKccEPXEzlKOXd1M9Tz3MpwJy0icwlFQTwXkTcxe8sTOO4G3VKEV/Hh3yzqJuQoVp+wBEptRJM+VQv5geT7Ah+maWqaZhgG2VUQxvAEUOVJEmmrpTDb1F5UV8Sqlesq546RQ4OjGkXzJPm+T3BHu+BBqnLwHaiDYRigGNE+sXZQtc9s20HVPsglomlaTFLguXLMXqrYHLbDueeLymazRXlQ1fsiJ5Hc3XhTYTPJGJVhKnMBJIShjKNRQFrBB940Tcg/z/OoyRzHQYVigbGBAOSUiUGNwE1BlkkVObs8SdBPKEY91U1VjnahvIaFsh/VKJEnabbtoMojlc/n6SkYJBhdF6wdzjFfFISdjDnbtnO5nOp9C2NkoyWnMUqiVIYpGiWWH4jkEOm2sKtIpQCqwjC0bRu5DUj0QkpRK5O5JnO0lmXROgJmSYyi2eZJwotQJakOqnIaeI7jGIZIQYb2lSeHmeRJmm07gNCmp5M4kNPtgQdEO5/vdkBD4YmYedECZ9EOkOsY56RDqt6XLCQAjJzuBUZlHJDORPAvzAOEPqC5hmgpEnjgrczoI89TGAa094jUOCoHdosmS4AqfBpNG2lUpfMkQXzSSMDLY8HstB0H+CGi2/ToI09S+LFoO6ApYpiebTtMPZxTO0A5wVf5bpZlZbPZs8gXNat2wCA593xR9F4xeUzlsfelckxllCFjGqPkFoUrgdFCjgA3QjJMDDKarKk1aem/6BRPQhS3gmQFcElxlBUGPAskKD0CA9SyrJnkSYoNUOLUYuU00GWFEpVUtUPRcqrk2bWD3D7oFGoo0zSz2SwZiCifeb6o2Puq2mGu8kWhekiDgZFPUfppqsEsB6lB52OKh407yY/iAlmaYm6lu8vZ3KBk0PWyFUK4gbTDDYF1AiL5U5OchkiXZRueTvXBeJKzdcEInXmeJHkahRqKwRMrlxN14jWp1YrnQ4oCSiKXCG6FFjiLdijaPnRPaE2U7YRqdZ7aQTZkIbCoJrNth8IxLLc5qWHy8j0BlFQCIUfxzvLMC5QQZ0R4wrBGY2H5nh6Jn7DwGpNDMR2U1Bo8l0Q66aAoR11hOQHZVE+6BFMYyiEkUA3LsihPErUvTWGxqZ/K4daAu6H7gVRVO6jKVfJY1Q6qcnpfIMMwDOoIiJXz1A5zlS9qJjwoOVrgZUkHlWXfNEYLpakqD1Bp7gAS0bIsalBY8TSPUzmeSOop+awQ5shVgGpM6wuFNiCuKpEnSXhSRhwZGU+4hMrhlyhXz3GcbDaragdVOTiUmbdDifYR0UOnEo/LY/u8tgOJNxreZ5cvqjQPWogHkkoQPfR0gVHSn9BniPWfz+dVfRnjcomzVGH3AvCg+bxYE83n85Mek9ExzQxXyAG6T7hq6joUIRgfKFfxwReeB1XhpBQ/Su+GV4LBbhgGuhbSjrRGLDbK8MXLw4ovaiSdbx4UmjiZ/EEQDAwMfO1rX/vqFfb5yle+8tBDD+3du1fuUNLjS/DBMbtbxYurymfLg6r40aIJ2PHQ6RgQ5GwCkwivipkIGiH4OcJuDNOk5ALWxPNR4BNcSErxXPGgoLfGx8dBD/34xz9uaGhYvHgxIuVeOX/XrFlTW1t79913f+9738O6KIxiFR98sXjQM+KExhisi2l9lCAl64Wy3kM8qHwLXAVffyqP8V401VL53PKgMB6hAR85cuSG6HPvvffKPnhXwvHGjRs3bdq0ZMmS22+//f3330fX8MjLvSg/ihMuIg9KeIBuCuxCcJI4O02OwkiEcS2jzXGcGA+KX+kBZHqjXKZRZN6LysmYiO0NOGseFPoNHEpefPHFmpqa+vr6z3zmM+fo1v6xu7wh+mzZsuWuu+567rnnMMuHYXhp8qCEh0I+WF5ImsQoJCpmBFnRxNRPVh4ZvDF0ypSy/GAoBvJVRNRDc5grHtQwDAwkzvm+ffuWLl36wAMPrFmz5kqQnfI7btq0afPmzbW1tbfeeuvBgwehcQEBRfngi8iDlsYJAY/4ROGHL+OMhKiKByW2CAol0QJ4MA0LmSsBrU3tJT+OGAfIY1qKwHox3Y0WJ6neyOQOix50Juf8wIEDy5Yt27x58xUoR5cuXfr5z3++rq6utrb24MGDvu+PjIzIxgB6lqb4i8WDlsYJ1EsoJ8CJ0EdhZxEdRVO5iiOA9gmvC4IOUELwjfn/0YMLeU2iBfAT5K6sB8v6MY0fmQelOjiO8/Of//yWW25Zt26dvA9EtRnjMitHfibM9V1dXTAlc7mcPDdCWIAnphmSuv7C8KCl+WAYvnGMkiAEAogfvQR5UFr9k3UsmQV85plnrth4+Pfccw+23S1dunRgYAC9SbPZpcODqvxiZeyCkcArTNv1+E6EvGEYhWuG5G1wUXhQanRYXaRjQSvASLvC45SUwCgkqLwPE+YIWhUKAOxrVflc8aAqv1jIddgqZMZAq1byo5caD6ri+cBIQHd5+umnr9gYuSo5eqnxoCq/WJg3Mc3kNIzSSCrU/0jJvbg8KInPmICHEgyx+tRTT915551r166tq6sDF3Pl/C2BUQSZk3dQkoI3c79YSNxCeUzlRPhAHqvKcRpVAKGQstlsoV2EWX16ri/Kj0LVo6UmmN54tkwfXBgeVNZB5TecxyjGoQqjpKERZ0IafKHvHDpXVY5fi+6LPyMeiKKBaKQexC4POdgMgRuYFBhV8aM0LABNmTCSK3TBeFDYejQXoA5Qkog+m5/r6+vrYzbTpcaDEo0Q84sFX04SkEhJgVHqYMIvDohIukR40NgUTzzfvM1UWo5esjyoyi8W8zaZaAKjhXoA5oJLjQclCYohRH6fNHNxzue5p0I5emnyoEX9YtGVtNZD1t5kLB0SosS3qzj8C+APquJBi5Zj0od+cyVzT+vXr9+wYcO6deuQ5w5TKnRQqG00ySJOAgAhj3yUz3ZfvAonKh4Uz6U9m7QfrhQ/Sl7ugClhVOXnd779QUlMkiEvt2OhHyQUF2D0wIEDV2wcZxmje/bsIYyq+E5VOU2yJLZK74svgZNZxQcoxY/SqijqRLrqGf38yIEKTgBz5Q+q4kFV5TGMLlmy5MqMh79+/fqNGzfW1dUtXbqUMArAkfSZYXwAEEwABm3PUuFBVa7iQVXxAUrxo7L/kWzj0zAiAx+81/n2ByXxGTOSVOXAKGTtlZz7JoZRdB+thV46PKgqPkChXXQaP0rQJNc9mb4ifvTi8qAqfhTVA0b3799fW1t7ZeZnuueeexobG+vr65ctWxZbr1fxnapy4Ps88aAyiQmBjTgJsT2i+Gl6fz1sEUzZ8tR/SfGgKn6UqIogCIBRBMK9claYiHsqxCgWvoG2WJwEVfwEgME0TTjmQq+lvySwZF68KE7IRIvxoDQ/kwVsGEY+ny/Fj+Ia0I0yV4oH0/IAzRo0iRBHII8MUmfP2h80NsUTD6oqn1+vp9HY2Ni4fv36ZcuW0c47cneKuQHB+5aGPfoU0+ls98WXxgl0DF3XZxgfgOBOptv0Wiit11McG4wY6KAX0h9UtuIh8Evvi49h9K677roy5WhDQ8OmTZvWr1+/fPlyGaOqOACq8tnuiy+Bk7OID4AtQzR4YPwwOBeTZMaQCoLgUuNBaaxDaYafK9Z5sZnJsqzXXnvt05/+9NatW1esWIGw9pAxcjz5GYa7p9NISp3jgVwH3EquYUNDAz0RO0Do6wwPGhoa6uvrV65cefPNN7/++uu2bSeTSTiAF+VHLxYPCu87cIiwk9Cz+CvHASC1M87hg2L1PO9S40HpTTBPIVg1NJBcLoegFe3t7Q0NDdjShIxeMRw0NDTIe4BmcjxDiJzxNBnidLJcScophU0EM6mbfM7KlSs3bty4atWqlStXbt++Hc2FuLAkgGi2RDgC0EbUsBeGB6XNlWBP6enwNSH+m/zvJn1K5PMo3IO8FYY0FSwPkNpKFGkQBCrei0aMbYt8X3gW1A5YaeTWil9VPCh+LcqhYDXF9/1nn332xhtv3LJly913343+K8Qo4eMCHxRiFDWUZaqMudlWb8uWLWvWrNm8efOqVasOHjw4NjYGlp4MiaJxZKH2wV5BuC4V36kqny0PCj8Q2YrHslGs32Vm6bR4+ARQitdMtBSWAeDoJe+1h0vHRY8PilY+dOjQHXfcsWHDhi984QvIh0Sblqj7qeQCHxRWADWMlaOwrq5uttWrra3dunXrkiVLbrrppueeew6yQO7pWJxUEkyxOCVUHuPFVeU4jR5E/qAqHlTGNOwNUATEf8sm+Gk+zjTFkyGPOpGdhVuApCS7ClfBhTZ26zmPi0kLHrG4fKhnIpGAg88nP/nJxsbGxYsXy3ILuiC2zMt64YU8lp8u100u37BhA/0027o98MADyMW4du1aCk2MpCuXFA8qdx8tvGP3OaZuGe6nYRQSlPRZ2lBCkhWmFrQETCKkAND2dhpq0HzBexHtShO967qIm0V7klAVSHvZppPLVfFBEfkHvWIYxvPPP79p06b6+vq7pE9t9FkSfXB84f/KT5eqdhfKC3+dbQ3r6+tvueWWLVu2vPzyyzCVUqkUekTFjxZilxSq88eDkjSkPcAQ8CqATnJPMhBlGUlcP3AjS8oLz4Oq4oMi1UsQiMSh6JLDhw8//fTTvdKnL/r0n9UH1577Xzwc95Gq1rsr+si/4pzZVra7u/uZZ54ZGxvj0Qc6OuwHGvb4iYQLpaaQRZeK71SV0z1V/qAgB2kqp+rBqsFggA0nVwMMP7yiRGxHmDWYx0mCQoaRpzPZWXjGue+Lny0PqooP6rouoRMvRtIXLBVUVZL9sPNm/pcuP8cDPJFuQsvOaE/UGejBOTOvIc5EOAwAJQgCXdchTS9NHhRJEyj7AF6cmoKwB7tIyY8SwBGwRMYu5K4Vfcj/Dw+AAp7L5SillYxpec29dDlGLeownyeJjAFk7y3Kd2IOlUf+xfUHJb2R7GyCIOEnFsOBVkfJ7IFkVfKj5M9HTBOeQUYVyknLxAOwg1vew4+riPeSdVDoEjQLyO2LFqfJiOhcQjaqQR6KRctBrFANS+eLmis/yDlvh5jdrfL7VJXToiKaCJH0SuRJmqt2UPGgpCWSAkkVI44oppuKPXd0EpBB8zuhU56nLhYPquL5VOU042MsnjFf1Fzxf3PFB2PEotswZeFNVe+rKkfnXjo8KJGYMSCq+FGRi1EFUIwnUmMJ4yreC1ukCfE0rElMxpxCVOUxTUWuHmBXlOcr5Pap5jPMF0UPivGCs+X/5qodyJnmEt8Xr8KDigfFPA6AyjMn4UE2zdEp0xiVhTAukG18Et2xW1xIHrSQK8E7FC0njM7nSUIrwZyKQYf4b1LhcHLRctmyoX3xKjyoeFBM8RBYsiFLtgp1HGoyLUehxpKeixCKdAuCL8VXJ3DM50kiTX9u+eCPy754QlKsHVQ8KFaVCFowiyETY9wRps1JjJbgRwmdF8wfVMWDYpzN3A9StS6l4vlU5SRXZsX/FcZJjak6NJWryj92++JnyIOSNkgEE43tmAQFfCdzg6v4URoZ4CbRmnRr4p5it4blqGkacsDJOsdM/EFVPKiK51OVz+dJQr9cXH/QmHUhAxRAQuLjTCYTQxGWSTFvT8fNg8FFPGgJfhRQo238hdKedAv5buQuTVhHLWP+oCqeT1VeqPdAY1Ht+1aVz3Y/ON56rvhgcphHK11RPKiMB2Aa4g+a67Q+ipmOZiicivmdGCjCou/78zzoPA8KPJAxHfMHJS2xkActwYvLXiaEXbEWKkflj2YAAAWcSURBVEtggBXWOqFT5kfniv/DQws5IxXPpyonYYzJYp4HhaFN6riK91WVy4Y/CEdYOSpeXOUPOkMeVFYFgT04Ccnl8XUmArKKH50r/i+mqZCQxkEhdlXlsh7jui4y7pFzGmkItDBBD5rnQdEU59gOMqYhIIHpM/KgEJMkH8koj5FZwu9JtpRle0iVPymbzcoMFFHcsg4q40ZVTgNdVijRakX5TsytsT21gCC1NS0Nkx5MQ3PO+b+5aoePS3zQGHSIF5e7jwQcWhuGASmQmI1VeIjZ5SRKBEZJ5uMWWJKCpz2RWKRbwIcKA4VGwNz6g5bY9w32p3CfONoLdaO3IB0Akw7qDOzKwKVyep0Z7gefK7/YK5AHlX02SLekDWrUESR6hF1P0p5UARKEhE4SxSTqgGDKkxQT3Wfk/+Z5UOxfuNJ4UBVOYroliZggCARGiYuKhcNV8aMkh+U8SbKSO8+DUhNRnFRV+5CYJ/kBPkvF+6rKPy48qKodCvfQg/2cxCgaVDbeIUfRWPl8Xtd1MqtJjhLfKWsqhfujqbfIa1DXdU3TIL9llwD4O1JX0YMo5xVpmTSusBIre13Q+FPlQ0e1Sfuh6qE+hXExiQw+T+2g6jNUjCY07GXLZDLEyOAEUgGRW1s+H9Ooqh3g94iAOXIjqNoBy0iInBxrcJJl0DVniAdMI0hGF+OtcEPLssATT/uUxDBKHD4UhRg+yB9UXmMl36iY2xU1t/yecmvK+77l9qIbmqap6puibqyAmlw3GhJE+sZuSEZV7Ibnux3Q7BhatChtmqbcDlQuZwPECYTRWLXRzSXaAY76UNhg1uCGqnZQlaPms8UDeBtw9TCt5PdFv9M+OSVGSQElowp3Ufn5qcoLd0fEvG6RGzhGYZBZA5uG3B9JypKiHON3Ce5yu5NsIKcZGiHw5fF9X9M0CBX6ifqMrpJlnup9VeWqdsBT8DqwB/Cy9KaQoCTwIKXo17NuB3kDOuw/vLiqHQplJE1ZcpwEaj1VO9BV9LJyD5IJJYNEidFC3RTNofLzU5XLHUwvQIMGYgAzr/wrQY1kYWyXD+y8mAYiyxt6hCxBEbiKOhg/QWHAvtPYdIElSrk76W6q91WVl24HWQ7J1SPN3rIs1G2u2gHtQwIIogvTa2F4L7CBsXbADKN6X1U5oFlIp6A+cr9TOygxKkeSoPchHZSgQ1Ag3kuGGvxL0D2yEMJVYHnAGdF95GfF6kAyjzasyc8iiYJZiW4oi6jCTSxAoaZpseqBvoWSFxsJwJPqfVXlst8ktT61A+5ZyFWjwWObxuakHfBoDHXcEM7jqnaALkGtisFTYl+8qh1QLuusdE9Zb5GFhRKjsbvQ9UV1TaCtELhQOzBoZJGOasHmja0JkYCk+Z3eAToWEZPyDWUgyrM8lZPAkO9G+q68KoHJCEtWMBblkTDn7SC/bwwf1D6Eaeo5mkmLTv0qDlGWXnRPcuMoRCHNcrquy61NkwlW74r2uwonFFNc7gjqWZri5eopMRq7BUmpGHZJN1eVyxuI5QfT3CcXQu7GKDSABvXBXIDWJOiQih2TQ5j6SYrLb4TXoRahW8mtj1/lq+jXWAWobjQa5aswJ6ragXZNyJdgIQN3k9uH6nnu7UBwh0RENWLPInEgzyQYVPQ6qn5XlcfWL0k9BXZlnocaZEYYlcc6NRNugaFWyB1QOezWwr+5XI5Sz8soVHEoeBzpK/Qy0LIxv8sKEw0qTLJy61OvxHQJGm8xk58a63y0Q+H7ojVi7SNPDqgnXvlc2gGDh/CHIU3tTMKYXh8VI0IXSJgtHgrbFs9VcWTCN68QPWdXQm+Cy8mMpXI6wAn0dYYHdMPY5apy1VuoHqc6f7bldH9cSNU7YzmdUPoAty08hx4UO2G29Z+r8wtrGCvBg6jasV/paxiG/w8aHSgDX1J7qwAAAABJRU5ErkJggg==;" parent="1" vertex="1">
          <mxGeometry x="590" y="1620" width="320" height="320" as="geometry" />
        </mxCell>
        <mxCell id="P1Te4osSGadlrZcNZEam-27" value="&lt;font style=&quot;font-size: 20px;&quot;&gt;Metadata Repository&lt;/font&gt;" style="text;html=1;align=center;verticalAlign=middle;whiteSpace=wrap;rounded=0;" parent="1" vertex="1">
          <mxGeometry x="640" y="1970" width="200" height="30" as="geometry" />
        </mxCell>
        <mxCell id="P1Te4osSGadlrZcNZEam-28" value="&lt;img src=&quot;data:image/png;base64,iVBORw0KGgoAAAANSUhEUgAAAOEAAADhCAMAAAAJbSJIAAABI1BMVEXf9v3///8AAACKyf7I7/7GjXpgt//19fV8fHzj+v/m/v/B1Nvj+/9NVFdVXmFlcHMgJCTR8v2qy9g9SE0mKiuOz/+uwMamdmY2JyF/jZGQ0v9NcI5TntyToqeKYlVrvP8hP1c2Oz1vb29Xf6DZ7/ZijrSIlptYaG5MXGIRGSBxpM9wfH/P5eupu8AcKTReaGuAuerk5OTBwcGXl5eIiIjE2N7Eg21pmcFOTk6ioqKzs7Pe3t6drbG+h3VOODDz8/NCYHkVFxg0Y4ozS14mOEZ5wv5BQUGgcmMZGxwtMjRAeqpZqewaJS94rtwXKzwOGiRIib+u0d6HoqwnHBhyUkdjRz0ZEQ8yJB8qUXAtQlNFZH4zYok7cZ4jQ105U2ml2f645f6sImWxAAAOPElEQVR4nO2dfUPayBbGI1JrSHhxgdSUIqVE7ipBsDVXRLaF6qq0dWu3tVt7u979/p/iBuYlITOBSTIpgzfPX4IS82Nmzpk5c+ZEWiN0eNIrpURRoXdySN5iEEneN043lw1FaPOUJ2H/atk8FJX6/AhPlg3joxNehP1lk/jqJR/Cw4tlg/jq4g0XwiN0vUJuWfrVI2wWjngQnvbAxUqaujRtedWGjL2wjegmhHa0bqnS8pT2aOvTGHSrsPbUTfgKfFuDJfKRhOn0n+C2XnEgBMOwrsnLJNwiCH8pRRqILsLHYDaTVUQjLE7vazMhTAgTwoTw/45QVWVJVkNMHVaDUFatQbOpN5sDKxP0YitBmLH0LJgAXmV1K/PgCGWjWncte+pVI1BfFZ9QVbKepV0x0AWFJzRaKVI588EQmgOfQNaAmVFkQtnQci6oz399djejZrBdVmBCWWkVHKLtncvLy51t542CznZdYQlVQy+6muzLk0cTPfnitjg6i1UVlTDTdlvQ15e/PQL67fK16/1se7FzjJMQrvE7AQwf4jPzIxfIDuKbMu58dX4zypuLGGMlfDmJ+YyqASchtoeouvC+3rr5poy3LsZU01gi4Vq/Vy82A+LZFnS2gz4idfnaxVicb1XjJVx7oyzsRV4puotv+wuFbyK3VU21FMmfMWZC+3UgqaZ7DvoZWlCannxxecdx1T8kGzfh4yB8stHuuJrm9tI7Ame76q3rb3Ntv64qEqFs5l17xZ/n8z3yWNVSy6QjCkSYUdx74V8W8U0Z3c04Vqg9VRxCWXFbUP8B6BmObotDnVoIQyhbjo/f3mHkm8htVWkdVRhCAy8jPjN1UFdXdaxqjuL9Y/cWKtukVK2iheAtzcXPF7aqVwNyKMZLeHhy1KSPf69M6CY+7wRrQNiMyKp2yEaMlfBwsrjIsSwt5Dawo1+DjEC3dqA9JXfyYiUEqSatBVPjiVQ4174NCYj9RpXoMT9jfWgtJjT0aE1oNyLopzpxaUFWwGYeuAlWN0gKOkaywwhGePkkrKBbzBPLbUEIqVHRMGoRlxaEUGpyImwuxdIwEMpafd59M6tO/i9BCCVJn3fjzCJNqTiERmfenTOqQ7mwMIRSploazbv7hboqUaN64hBKGWOgt2yB+623gGDTZuFLGAfvwJcgRS01+VEf0CPgAhHac7eMLQnedAYIrosH8CW0uRZ8CfmnP/vM8IUinMqAhOCVrIGXcL6pQkJ4SRURzrleQpgQJoQJYUKYECaECWFCmBAmhAnhQyOcLg/Drw99FojiEMpStZWfCNx0PQ8EtxWL4BVe48OXaI0/fTGg5pwIQ5hRstHCNJMkcNpOniiEqjaOyDcRZXNNGELLm8wdTlkyS1AQQrk6777ZNVrO/iHLzgyfkLf4+4df/9oOq7/ADqmwu2swUeF1+P3DS8H3DxFhmEQMoN9eP3TCJwlhQig84YqMw+0dJrm/hyfwvS+i29L8PDfu0VdX9unO9teZ3wmbTxMwF2Mbt6D3N7qomQrqINjS6d9Qt573C2T6pSCEQVOGzMy0+EzG+6mWuKsn2QySi3GBPqXNvk87YiUKoY2oFxkLn42yCv5Y08k0KmR12pkLYQgncYxBlUkzJ2Q1522FGnITiHBSMoFNPh/6+SdKkroYCWFCOFeGqTXzHVv/IgSr0tVfzNNR//TwscCEhuY+6R5S41entKp1QhAqrajxc6CrI0qlUwEI1XZxwZ2z66JPdFU2QnmBE4uiTDt6B3VUIErzMRDKGaNdbcKZSNsMXDVovmSFc9FiL+JiQtXKzVyhyHb2i1UGvy4K1Q9KSG5RBD2yP08q2h/Yu9vtlp+G0HrN1vtnb5/vofs7DEZI24OhpNiHFdrEOtgtl9fDqbZhq1bbePcHvL0XgQip+4SFNq+OqsKSPQfHIfEwog357Dm8vZcBCH02mfIMJ/jYBK/fiAC4/vsGQoStuBmA0KJv9XKrcQpDBef7YbuouxE3Nm7A7fVOmQllC46S432g47Pp6xHlAG8YyQqwpMNuFEDciBvvv4Fu2mcnhMkjDfQVl3eBxXLv3aqZ8FJAVKMSqQnX1xFh7R2431fMhBIDoVEdF0ILhnqiEqJuWrv5ML3eEU9COUj420+8CDegreFJOFM8QgBC4DA2H/MjVAcPnRBZ24dLKNo4jIFQKFsanJDJH8rL94cRCOOe02jLJox7XioAYcxrCwEIJYXWiCVe60MRCONd4wtBGGucRgxCOcZYmxiEnnipwTNeGoWwu98YDhv7XQ6EUnwx7/CE3QZYCaYOGl0ehHEpLGF5/8wZNmf75QdHWD4+cFuGg+vfHxihBzCVuntgbUgAplI/ag+JkAKYev4+GqEsGY7mlAD+OYTH0IimrnTT1MHm8cd3tSge37DarU6uA9QaKIwF8qMRdrvrdGrcgqW2LMsoDfRtBELZbM5uYY50fk+eoxN2j3crw++N4+t5gOPp4+FU7SoqoWyRcZgct3kblfB4CHcC7xreYL8zBkvg+XccCE1aImmIwvTMhOXKnvOP7rseQDwG2+ACaP36IzxhmwJIKyTHi/BpZeYfnXdnALEVhYASzFX+eBOa0CdRNsdQHzMUIYp0YX2gA4JbzKBwdARvgeK9Hw6APoDvrNCOK05z5/0yP+BWxF00hUIMON4e3uOjWNv9OkoLgJ1oJtYmh5Y3mlhuwCYsFXEy8d014SYkD+BZvBFh2dTCqzmebUP4BWYHloZN3Nk1xU3YRgY/tefgOt6ovtaJnpSGCLv3AEJTZdkJ89mIZQogctPnkVZPiwkNHlUwEeE1WPYBb+Qg3nXxGCy0ScCY957o7iQkYRcSAlPtQiTdBEqGmwCu0P5hdwg54OWJ6Ybm/a8HE8B4954MnoRlaGlGcNcg4wm5Q3IZA8I0lVgJ1QGH6grYlqLxRkUsEG4C5eHE6y1UpamHVr4wS7g+RDevqV5Ex4oi440TjaLvHw7x1Ini8eUICTXE/uE+NpoQUYKLXBdgwQvIYf9wb1j5PlFlCIwa7aEGYUTO2srHuMkgojGYpi92NATodhORCSWTXuGDVyyHtj7cRf+kjlrRUtptBS3YZt1EdEKJ7gzIQuP8CNeJVpyEhuA9yXgMzuRrRiD0bssAFS1OoRp6FAMjXnm3mlXCikZvQ1Uh87DrWuBHswUiXD/Gi0QPog9gtH0LVcnPnqQc5bgB+sbadpFFHWlO9FJ2nmDnzUeNuH9oDPRcFinXCvj021CE685Sv2pN97tkVVJ0wg/yIbSb0bZmSJbE8yyCf7wUW9RUrqpZhqm0nWdkkhnFHPYt8KqcI95cQsfc2DY1m8tlnaCt203wI4xJ86L6LsQZUQBXlNAHkQa4qoTl/XMS8L5L+1OBCaG3rVDu2kbsVjwbaecN6h8ShAGyoNGdyPGYGhk+pnxIv3G7GSt32G98uK9c++zCIcDaDcjzDpCrP1XGULQ2kKaZXNMxLBBTP6NtMwHG691G5f7sfljZPfY/lOEQ7oUgVM1mp1gfQxU7usVtSoMriBzQzAdinGwmTrYT5+yiYkJw3mJ0EoRQ1bwLqPqAHyIq4bobKSnKOTPzn+nVxi8DEKoaecTzih8iOrv2PdKxIHyg5BmYz/YO2QllhRbwpVXlDCl4/nA0p5suFmrCDXgoKMjZNYNeLonl+XpsQkV5vkcAdPKFPoI+1g9AaNJj9kVuPlNFJ7kjHLHETQhGYeriMTshzmRvIIFpBq9Mdsl5oOl56JGID1jC04ee09xs0cSKbaunWm+ANwacTiPYQpWVzqICwj6aunoTgJApItxu5SMJdf37cK2ITgHfoIPOwU6rLybMNPnUtJi0InVWHRSwt8aZ0OTFlwp1ohv10R/oGlfe+iZi7K5hNcIBwrlMyntSnQehtwRbVFUCDcYatDF/o4+X+l5ADpaGFjKOoAD25nc4Bm8+og+PyeItHDIVrNa4xEEYscFqbkAPrb3/gVeQY6KLLiTEp/Oe+rehZCgcZDnhbEZCBIiHYOqCUmGIdU5zd90FuoY7mJwyhtyxAysYIRqCzzFgh1YlanHWF702YolT1pdbsgGWGbvsDYjLREx0QuVbPPOmn/Llln45i6iPS3U9zdCGsIc6XpA+BFkIZY3WiJSC/3wYTc3cSv/zlBEQVsGYKEcdgiyE9COW/JaHBOO05t5/WYbghmsI0qqYsRLKJonYMmOMqE6rCv5j99SyT+gJe8E/8A316TaGjdBG9JRTGw/iBIR1E23ExvfvtGkqmqe9xW6+5DsE2QhtmUpVh4+71atKHEaGIEynJ1mKew2fHlp7j+dp84YgM+FPFSDcggmBZ3TAZ06u9Oa8HioyIR797mg46QULfl5QfMI/EcPesRfw/VsM2Js/BEUmTKexeRuhcyXISThe8MWCISg04dYvv2KQ4T52ErWNdy4vuGgICk2YTn9y0mfPK/vT2oG1jZtvjpM4odecXR3CdBqPxVTq4O9vb3+8/fYc86UuGIag8ITptn/hz96hP9MKEW598nv4WYDC0EIT2srT1jb1xV5wdQi3/iSascDkJFaG0Lap+sxoLG2+ZLOhq0O49clZ29Q3+y+ZnOBKEaKq8y9OT08Pg+KtFOGq19VPCBPChDAhTAgTwoQwIUwIGQnXjsD8nV9qJSdCsHo68mVgJ3wFlijVZQJKBCAKSBEPkAlB2AcRgzrfx6xEJNz6BM6KF8hMmeCEpz24jNZUlUv2QXCpW+mtWbVhoKYXYmlIEMKBaOsqFy3dMLy8TyTDaYFhh+Es4eFFSlRdhG3CWcK1/rJBfMUa4V5EuHaybBIfBQmQzidc6/N8RBgvjcPaURrh2unmsnkIbQaKAC8ktO3NSY/zo9AiqNA7Yd6Doet/Pzc0SeV1iskAAAAASUVORK5CYII=&quot; alt=&quot;Policy - Free security icons&quot;&gt;" style="text;whiteSpace=wrap;html=1;" parent="1" vertex="1">
          <mxGeometry x="660" y="2140" width="260" height="250" as="geometry" />
        </mxCell>
        <mxCell id="P1Te4osSGadlrZcNZEam-29" value="&lt;font style=&quot;font-size: 20px;&quot;&gt;Policy Enforcment&lt;/font&gt;" style="text;html=1;align=center;verticalAlign=middle;whiteSpace=wrap;rounded=0;" parent="1" vertex="1">
          <mxGeometry x="670" y="2410" width="200" height="30" as="geometry" />
        </mxCell>
        <mxCell id="P1Te4osSGadlrZcNZEam-30" value="" style="endArrow=classic;html=1;rounded=0;strokeWidth=7;" parent="1" edge="1">
          <mxGeometry width="50" height="50" relative="1" as="geometry">
            <mxPoint x="720" y="1500" as="sourcePoint" />
            <mxPoint x="720" y="1570" as="targetPoint" />
          </mxGeometry>
        </mxCell>
        <mxCell id="P1Te4osSGadlrZcNZEam-31" value="" style="endArrow=classic;html=1;rounded=0;strokeWidth=7;" parent="1" edge="1">
          <mxGeometry width="50" height="50" relative="1" as="geometry">
            <mxPoint x="750" y="2010" as="sourcePoint" />
            <mxPoint x="750" y="2080" as="targetPoint" />
          </mxGeometry>
        </mxCell>
        <mxCell id="P1Te4osSGadlrZcNZEam-32" value="" style="edgeStyle=segmentEdgeStyle;endArrow=classic;html=1;curved=0;rounded=0;endSize=8;startSize=8;strokeWidth=7;" parent="1" edge="1">
          <mxGeometry width="50" height="50" relative="1" as="geometry">
            <mxPoint x="970" y="2240" as="sourcePoint" />
            <mxPoint x="610" y="-30" as="targetPoint" />
            <Array as="points">
              <mxPoint x="1160" y="2240" />
              <mxPoint x="1160" y="-30" />
            </Array>
          </mxGeometry>
        </mxCell>
        <mxCell id="fgWm4qZZ9KspV6PaIqnZ-1" value="&lt;img src=&quot;data:image/jpeg;base64,/9j/4AAQSkZJRgABAQAAAQABAAD/2wCEAAkGBwgHBgkIBwgKCgkLDRYPDQwMDRsUFRAWIB0iIiAdHx8kKDQsJCYxJx8fLT0tMTU3Ojo6Iys/RD84QzQ5OjcBCgoKDQwNGg8PGjclHyU3Nzc3Nzc3Nzc3Nzc3Nzc3Nzc3Nzc3Nzc3Nzc3Nzc3Nzc3Nzc3Nzc3Nzc3Nzc3Nzc3N//AABEIAJQAsAMBEQACEQEDEQH/xAAbAAABBQEBAAAAAAAAAAAAAAAAAQIDBgcEBf/EAFMQAAECBAEECg0HCQYHAAAAAAECAwAEBREGBxIhMRMUFRdBVGFxk9EWIjI2UVNVVnSBkZLSIzOUobGywTQ3QnJzdbPC4VJioqPT8CUmNWNkg/H/xAAbAQEAAwEBAQEAAAAAAAAAAAAAAQIDBAUGB//EADYRAAEDAgMECAUFAQADAAAAAAABAgMRUQQSEyExMqEFFBVBUmFxkSKBsdHhM0JDU/AjBlRi/9oADAMBAAIRAxEAPwC9ZXKhMSGEVolXC2qadSytadeadY9YFo2gbV43JUypqnyjTYSGUEj9JQuY+tbhYmpSh8fJ0hiHurmVCVcrLuHOVLNFVtJCNJh1aFqbWoOvYly7Hr7kQlZQqttdv1oiNGDwoOtYrxqSIkZQntpdvNAubI/3aJXDxbkahDcbiN+dRXJWXdIJl2glIslIToTBMNCicKBcbiK8a+40yMtovLt6f7kT1eFf2oFxmJTbnUTaUqQQZdrT/dh1aFf2oQmOxKLxr7nqYQxA5hCqobecWqizRs6gm4ZUf0gPt5I8TpDBZVRze8+i6Px3WWq13EnM3NpxDiAttQUlWkKTpBEeMegPgAgAgAgAgAgBCLwAiRbRAESpptK80312vAEp7YaDblgASkJFgIAdAGfZau9aW9MR9hjfD8YXcpn1r354+0U+COuluNJdXnkBf6N/BHi9L6ytTLw959b/AOLPwrJHaqoj+6vOnmQ1Us7OCyUlQ7uw0XjToxJEhq/5GH/kT8O7Ff8AG22lzQMFzVKGHkpcXLJUlPy+yWBJ03veODGtxDp1Xb5GWFWFIUqqeZRguS3XSoJO0NsC4/7Wd1R7y6mj/wDVOZ4qaett4amjYwmaMvDDqULl1ZyBtUNEXzuC1vrj57AMxHWU3+Z9Fjn4fqy7vIy2PqD5UjeZQ+0ppabpVFJGNe3K7cbQzPhekjN6HpUPFuJsPSwk5Qys9Jo0NpmUnOQPACCNHPePDm6KfWrdp9LF0th3p8fwqepvnYo4KRTrfrK+KMOypbfQ17Twnj5L9g3zsU+SKd7yviieypbfQjtPCePkv2DfOxT5Ip3vK+KHZUtvoO08J4+S/YN87FPkine8r4odlS2+g7Twnj5L9g3zsU+SKd7yvih2VLb6DtPCePkv2DfOxT5Ip3vK+KHZUtvoO08J4+S/YN87FPkine8r4odlS2+g7Twnj5L9iJ7KdigjN3Kpyb8Ocr4oqvRcqd30JTpLCL+7kv2IN8fEt77k06+vWr4odmS2+hPaOF8XJfsTs5T8U3tuRT1D9ZQ/mgnRktvoO0sL4+S/Yu+Bsbs4o2aWel9p1KXTnOy5VnApvbOSdFxq9o8McM0Lol2nY1zXtRzVqiluGqMSTPstXetLemI+wxvhuMLuUz7rj7Rd58ESsSD86FbA2V5mu1haMpHsZxKaxte7cg5NEqJcKTLHl7ZPXGKTx12qa6T6bEJ00Sf1CV/xJ6406zEneZ6Ei9wu41R4uffT1wTExXI0JLCbjVDix95PXE9YiuNCSwbjVDix99PXDrEVxoSWF3HqHFz76euHWIrjQksG49R4uffT1xHWIbjRksG49Q4sffT1w6xDcaMlg3GqHFj76euHWIbjRksG41Q4sffT1w6xDcaMlg3GqHFj76euHWIbjRksG41Q4sffT1w6xDcaMlg3GqHFj76euHWIbjRksG41Q4sfeT1w6xDcaMlhFUWfXo2sfeT1xC4iFe8lIZE7jnNEqINhLH3k9cZ68dzRIn76EKW1JVmW7a9tI4Y6koiVOdaqp6WAVKbyhoUCQoyLgPtHVHg9LUzex9R0RXqtPNTa2F7IgE69RjxD0yhZa+9aW9MR9hjfDcYXcpQEbGQXFuJDYOkhQueQR9e6RqrRFPiGwvTarV9ieWqjksVKl3W0BVu1BFoq5kbqZlLIsrV2JyJ+yCc8e17ExTQg/wApbUntyA1+bIsXmvYmGhB/lGpPbkSpr026LB9oOjkT239YpowtXyL55nJu2+hF2QTnC+1fmTF9CG/MpnmtyDsgnPHtexMNCG/MjPPbkHZBOePa9iYaEN+Yzz25B2QTnj2vYmGhDfmM89uQdkE549v3Uw0IL8yc89uQdkE3xhr2JhowX5kak1uQdkE3xhr2JhowX5jUmtyDsgm+MNexMNGC/Mak1uQdkE3xhr2JhowX5jUmtyDsgm+MNexMNCC/MnPPZfYeiuTigVqfaDadarD2DliroodyF2rNvVOQ04hmuB5oDgFkxKQQJ38yiyTL3chOyCbOjbLQ5QExOjB/lGpPbkect5CiSpxJJNyc4aTG+ZiJSqGOSStaL7HrYEdbcx40SflNpOWWDcK1aCfDHgdK0zbFsfUdFV6ttTvU2aT+bPPHjHolJyxBtzDsql0kN7dbCrazr0CNoOJSUHrybYYWReUeASLJSH1gAe2LpI45Nd6bhu9nhc65R/6QvridR1xrvuG9lhbij/0lfXDUdca8lxN7PC3E3/pC+uI1HXGu+5CMn+DjNKlkoVtlKQstCbVnpHhIvcROo8nWlpUnXk4wytwlyUeKj+lthen64jUcNd9w3ssLcUf+kr64nUdcjXkuG9lhbij/ANJX1w1HXGvJcN7LC3FH/pK+uGo6415LlVxRg2iU7EuHZGVl3EsTry0vguqJIFtR4NcWR7sqrY6IHueu1Sxb3GGeKPdOrrjHXedumgDJvhrib30hXXE60hGRLi72+GeKPdOrrhrSDIlxN7fDPFHvpCuuGtIMiXEOTjDR0bTe5fl1dcRrPGm0kXk7w2tKEmUeCUagH1aPrhqvGm0bvb4Z4m906uuGtIMiXE3uMM8Ue6dXXDXkGmlw3uMM8Ue+kLhrvGmh49Ho0jRMqLUnT21IYNMWspUsq7YnXc8wi7nK6Gq3MpEotDUpIlLZCjcZ1gY5jIpeWMBOG5IJFht9r8Y2g4l9CULme6MDzhIAimJhmWRnzLzbSDoznFBIv64klEVdw9RAQVLUAkAkngAiBTuMsybHd/GVYxKu+xpBDSj4FnR/hSNHLG8nwtRp0zfCxGmnsvMTTWew626jwtrBHtEYnMqKm8kSSDmq9R8MAOiCAgCi4579MH+kOfyxo3gcdmF3k+UyoTNNwfNvSbqmnlKQ3siTYgFQBseDReM4Wor6Kd8i/CpSEYPp60JU49NqWRdStlGk8J1QXEOquw9VOjYVSqqovYbTPGTfSjqiNd9iezIbqKnBlMUb7NNpSNZ2UezVDXfYhejodyKvuPdwlTV2GfNJSkWSkOiw+qGu6xPZkN1I+w2meMm+lHVDrD7DsyG6+4dhtM8ZN9KOqGu+w7MhupFN4UkZaVefYfnEOtNqWhQdGggX8EWbO5VoqFJOjomsVUVa0NFwHPP1LCdOm5twuPKQUqWdas1RSCeXRFZURHqeZGtWpU8hX532f3Sr7xi38PzMpuI0SUALRB1XjAxKTlk73JL09r8Y3w/EvoShcld1EHnGX1fKBWKjWHaNhaVZQ6l1TezzK0gnNNiQFEAeu55I2SNEbmU6mwtRKuOiXyazFWcEzjGsPTizpLLSjmi/AFHV6gIjUpwoQsqJsYh72UKoJo+DJsNHMW6gSrQvqzhb7L+yKsSrjOJuZ+05smlFRJYLbbfR21QKnnhqJChmgcnagRMjquqTK6rzypjJxN0hxUzg2svSixqYeV2p5LjX6wYnUReNCyTIuxyENFx9VZWsNUTFEmyt5TqWtnllgkEmwJCSQecW5olY20q1SXRNpmappgNiEq5gfDGJzqOgQUXHHfpg/wBIc/ljRvA468LvI8rvePNftmvvRTD/AKiHfPTItSCXaW42gggXAAKuHRHOfSaiNQSxBKTrBtA0RapVAUbgDUBqA4IghEoJAsEAEAc9S/6bN/sF/dMWbxIZTfpu9FPdyZ949M/9v8VUaz/qKfORcKHCr877P7pV94xb+H5mU3EaLJ/NnnjAxKRlk73JL09r8Y3w/EvoShcld0Yg84quIMAUOtuOTC2FS04s5xmJdWaVHwlOonl1xdr1Q1bM5pWxRMe4XcAok+iryQ0JYeULjwAhR0c6VeqL5o3b0oaK6N+9KKc+VF9+s12g4ebsl1RC3kpNwla7JvzJTnn1wioiKpMKIiK405TapaSLUk2klprNZbJsNA7UX9kZepzItV2mdGhY7xSs7tz6KTJHXLsq0nmSnXzqV6o1zMbu2nTmjZuSpZcPYCodCcbmGZczM2jSH5g5xSfClOoHltflijpHOMnTOdsLOUgix1RQyESSk5qvUfDEklHxz36YP9Ic/li7eBx14XeNysoU5gqZQhJUovtAAfrRTDqiSIds9MikMsAtLTTjZz0IuDe1+ERgfQd1UXYOcupm7rYS4V3HASIgu2ubYQ2PgMQbhY+AwAWPgMAFj4DAHNU9FNmydA2Bek/qmLN4kMpv03einu5M+8imczn8RUaz/qKfORcKHCr877P7pV94xb+H5mU3EaLJ/NnnjAxKRlk73JL09r8Y3w/EvoShcz3RiDzhIkCEX1/bEA8hWGqavEKa8ptZnkozASs5o0Wvm6r20RbMuXKXzrly9x6+sHqipQLRIFgAiAFoAomOe/PB/pDn8sXTgcdeF3lmqMmxPyjspPNKUw6jNVY2I4dB4DyxzoqotUPRciKlCsHJ5Sy2Epfn2jcFC9n7f2xrrLYojV3VI15NKYtRK6jU1Hwl+/4Q11sWyeY3eypflCpdMOqGuthkW4b2VL8oVLph1Q11sMi3DeypflCpdMOqGuthkW4b2VL8oVLph1Q11sMi3AZMqSTZc7UVp4Ul7X9UNdbDJdS4yMmxISbMpKNJaYZQEIQnUAIyVVVaqXalNiFQV+d9n90q+8Y2/h+ZzzcRosn82eeMDEpGWTvckvT2vxjfD8S+hKFyV3RiDz6VPJfps+48tbdVWhBNwnY9Q9sRRbnpx43CtYiOgRVvX8Ee5VR8sL6P+sRlW5fr+E/9dPf8C7lVHywvov6wyrcdfwndh09/wejJsussBt+YU+sHuym0WQ8/ESskkzMblS2889dLqClqUmruAE6Bser64ii3O5uOwqIiLAi/P8HXTpWZls/bE4qYztV0ZtvrMSiHNip4pqaceWnnWv0O2BxiEga/VEhEKZi/PTizDDimwpGzLSog6U6tIiU4XHZhk2nTjisPUHDUxOSqQtd0IRfgzlAZ3OIzjbmdQ73LsMzTN4gsD2QziSdJAOj7Y99vRTKcXI+Zd065Fpk5/gXbmIPOOd9p64nslni5fkjt53g5/gNuYg84532nrh2SzxcvyO3neDn+A25iDzjnfaeuHZLPFy/I7ed4Of4I3KnW2yA5iebQTqzl2v8AXFHdGwt2OfT/AHqaM6YnelWRKv8AvQk25XzqxJO25/6xfsqPxcvyZr089P2c/wADXKhiFptTicRThKAVAHSNEVf0WxrVdXd5GkXTjnyI3JSq3/BqmDqm9WcNyM/NBOzuIIcKRoUUqKb+u148CRqNdRD6Vi1Sp4avzvs/ulX3jGn8PzMJuI0WT+bPPGBiUjLJ3uSXp7X4xvh+JfQlC5nujEHnCQBV8Rv40bqObh2TpDslmDtpsrK87TfUoC0XRG02mrdOnxHl7bym+T8Pf5n+pFv+XmTSK6htvKb5Pw9/mf6kP+XmKRXUNt5TfJ+Hv8z/AFIf8vMUiupLLTWUczLQmafQAxnjZCguAhN9Nu3Om3JCkfmKRXLJiB2qt0txeH2pV2ezhmJmScwi4vexGm2rTFG0r8RRuWu0rQm8oiCguSdAVputCUuAgch2T8ItRhrSJF3qeZPv1sYtoO74kWwp4plUSqFXVe184lR1eqC0yrQ3gRmb4TtysJCcEzAHjmb+9GcHGdkm4pbSA4gJTfZANA/tc3LH2WalKn54rcyrTeRrUEJK1kBIFyTEq5GpVV2FGsc92VqVU5peoS8w4W0LIVqSCLZ0YRYuOR2VPkduI6OngZnVKp307jpJslR4QI6HLRFVDiYlXUXceVTJVicZU/MDZHVqOdc9zHm4aGOZqvk2qp7uPxU2GkSKLY1EtvJaMo5swylWc00uyFRpgVWjmdyLsOfpVu2ORUo5ybTsmfyZ39RX2R2S/pu9FPOw36zPVPqaRky7x6ZzOfxFx8XLxn6HHuOFX532f3Sr7xi/8PzMZuI0WT+bPPGBiUjLJ3uSXp7X4xvh+JfQlC5nujEHnCQBWcQ4uNFqG0xRalOdoF7LLt3Rpvov6oujKpWpo2PMlanm74ivNis9FE6fmW0fMN8RXmxWeihp+Y0fMN8RXmxWeihp+Y0fMQ5Q1W04YrXRQ0/MnR8yVjHJfBCcO1VC06kqbtnRGTzJ0vMYcoCQCoYdrIWDco2udfPa0MnmNLzPAqGIDXcY4XvTJyR2GZV+UptnX8EWy0Y43gblXeezla7ypj9uz98RlBxnbJuKBMzTUq2Fuq027UDWeaPrpZmRMq4+CgwsuIkVI/exCmXeq5Ds5dHClpJ+cHh5442xSTKiy8Nj0Xzw4Vqtw+1/ev2JJmRYfbCCgIUkdqUixTHXLho3tpSlN1Dz4MfNC9XKta70XvOZubfkVhmeups9y9b7Y52zyYdcs27uX7na/CxYxuphtju9v2Hu0yXeUXGlqQF6TsatBi7sHG9cyKqVsZM6SniRI3trS49x6WpjCUDRfUkaVHwkxZ0kWFYjSjIcT0hJnX37iQvNzEm640sKSUKGjmjRZWyRKrFrsUxbBJBiGtkSi1T6ml5Mu8emczv8VcfITcan3se44VA77zJsbbkq02/vGLfw/Mxm3miyfzZ54wMSkZZO9yS9Pa/GN8PxL6EoXJWgmIPOOFdXkW1qQuYQFJNlDToMRmQ7W9HYpzUcjN43dmn8aT9cRmQt2ZivB9PuBrdPGuaR9fVDMg7MxfgUmmahLSuYH5hKM8XTyiJqiGMWEmmrkbWhFu1T+NJ+uIzIbdmYvwL/AL5ksrPsTmdtV0OZls4jgiUVFMJsLNB+o2lTpNyNJi1EOcBexuSbxFAUbHPfpg/0hz8I0bwOOzC7xmVq3YVM5wuNnZv74ikHGehItE2GcSsiQsPzag69wcIRH08GG26km1e4+LxWP+HRw6ZW81O4aI7KVPKqpMbPjgDtvUv+sUrl2dxrsft7yBxCXG1IcQFJI7kiLOajko7ahVkj43I5i0U85UtNySiZBWyNHRsSj3PLHBozQLWFaovdY9duJw2LSmJSjk77k0nJbEovTKw6+TpUdITzRtBhUauZ+1VOfFY/OmnCmVid1yGdkNiDj0orYzmnOQNShGM+Gyor4lpc3wmPzq2KdM23YvfU1bJn3k03kDn8RUfNTcan2Ea/CdG7riccooW12tjVIGY2e5z7g6ubREZP+eYxnLdJfNG2jTGamJScsV1YdlBbSmfav9cbwcS+hJcz3RiDzjmXIya1FS5RhSjpJLYJMRRDduKxDUo16onqo3c+QGuTluiT1QypYt1zE/2O91DaEgNO1Jbokwog65if7He6kj0vLPWLzLLmboGekG0TSpnHNLHXI5UrZVITISKjmok5YnhOxJ0fVEUQ163if7He6k7LDDAIZbbbHCEJA+yJpQxklkk43KvqtSW48I9sDMLjwj2wBRccd+eED/5Dn8sXTgcdmF3jcrXeVMft2fvCKQcZ3ybii8A5o+0bwofnL+JQiSgv/wBgqEoqotUJfn9Wh4af1/6xmnw79xrxpVN5FeNDLcF7wIIpj8me/Zq+yKS/pu9DfDbZmeqfU0jJl3j0zmc/iLj4ybjP0KPccKjbK+zpt/wlX3jFk/R+ZlNvNDlFZrZA0knQIwMSmZYVqbw/JKSQDt5saeHXojaDiUdxbwrSQdBHBA4FFgQVfEWA6BiOo7fqss45MZgbzkulIsL20euLtkc1KIatlc1KIeZvS4R4o905i2u+5Ou8YrJNhEkASj3L8udENZ6kpO4uFKpcpSaUzTZJCkSrKChCSq5APL64zVaqZOcqrVSpKyTYSUorVKP3Ubn5cxprPNNd4b0uEuJvdOYa77jXeG9LhHij3TmGu+413nh1HCdIwvjLDG5DK29sTCtkzllV7Wt9piVe5zFqdEEivXaX+tUuVrVNep88gqYdtexsUkG4I5QRHK1ytWqHe5KpQpYyXMJGamvT4SnQBmp1R1JjZE7+ZyLgYF/ansgu9ez5wT/uiJ69JdfdfuOoweFPZA3r2fOCf90Q69JdfdfuOoweFPZA3sGhqxBP35Eph16S/NfuEwMPhT2Qc5k1acUM6uz6VW0qCR23KeWITHSp3r7r9x1GDwp7IN3r2vL8/wC6Inr0t191HUYPAnsgm9dLq0OV6fUg60gJFx4IhcdIqb+ZKYKFFqjU9i8U2Ql6ZIsSMmjMYZRmoBNzzk+GOVy5lqdaJQ8lSaMMcIcK3DW9okJbuc3Ys7Xqte8Wq7T8jCYtsimzRvpVfSYzMClZZe9yS9Pa/GN8PxL6ElxWntrg6RqMQefUBoESQVevUitVKpbLSsSuSDOYE7XS0CM7hN/96osioibUNWOaibUODsWxYCL4zftw/IiGZti2oyw5eGMVLVdvGLyE6gnYRDM2w1GWG9i2LPPN7oRDM3wjUZY9/DdMqlNZfRVquupqWsFtSmwnYx4IhVRdyFHuRV2IeE7hfFa3VqRjN8JUokDYALDgETmb4S2oyw3sVxZ55vdCIZm+EnUZY8Gp0qq03GWF916yuplyaVsZWjN2Ow0xaqKx1EobwKirsQ0s6jY25Y5D0SmqwzigqURjB4AqNhsI1RtqMsZZHXE7GMU+eL3Qw1GeEZHXDsYxT54vdDDUZ4RkdcOxjFXni90IhqM8IyOuIcMYpIscYu9AIajPCMjrj14bxQoJ/wCbnwocIaFlf1hqMsMjrjWKBiNqZaL+MHloStJUjYR2wvqgsjLDK65cydBtr8EYmhTdkKcrTTQtppZKjbSe2NhG9P8Aj8znm3mhSXzR54wMSkZZO9yS9Pa/GN8PxL6EoXJXdHmiDzjwJyfrCX3ES8mypsKISvPGkesxWru49OOLo9WIrpFr6fg5Uv1pGa5tNg2V4wdcPjL6XRv9i+y/Y62Z6uOj8gZuNfyg64VcEh6N/sX2X7HfPPVFBb2nLNugp7e67WMSubuOfDswbq6z1S2z8HLtqucQa6QdcRVx06PRn9q+y/Y7Kc5POFe3pdtkDuc1V7+yJSvecmKZhm00HKt6nbEnGESCi4479MH+kufhF04HHXhd5bze2jXHKeopS11LH4WoIw9IFIJAImk2PL3Ub5YrmOZ9hN08oPm7IfSkfHDLFcVfYN08oPm7IfSkfHDLFcVfYN08oPm7IfSkfHDLFcVfYN08oPm7IfSkfHDLFcVfYidrOPkaOx+QCvSUfFDLHcmr7EcvP43cmEF+hSKWisBxQmk9qknSe6J1RVWx3FX2LtLzGyKzSLaNEZGiFSV+eFr91H70dH8K+pzzbzRZL5o88c5iV3KPQ5qvYacZkBebYcS+0n+2U8HPaNInZXbQeDL5UaS00lutU6pSc8kZrzWwdrnDWU6QbeqNdJ37VQosLKjZjKdhdztkt1EK/YD4ojSkI0WkCcpuGyq2x1E+H5AfFDSeNFp1NZUcKtJ7Vqo8vyA64aUg0Wj99bC/i6l0A+KGlINFob62F/F1HoB8UNKQaLRd9bC/i6l0A+KGlINFob62F/F1LoB8UNKQaLQ31sL+LqXQD4oaUg0WlYxNjei1TEeH6hLJnBL095S389oBRBtqF9OqLtjcjVRS7GozcWTfSwr4qpdAPijPQf5G2q4N9HCviql0A+KGg/yGq4N9LCviql0A+KHV3+Q1XBvpYV8VUugHxQ6u/wAhquDfSwr4qpdAPih1d/kNVwb6WFfFVLoB8UNB/kNVxE/lLwo6BdqpBXAdgHxRHV3+Q1XHLvkYZBtmVIH9gPih1d/kNR50s5SsKN6UMVNSzwBm/qGmGg8ajhuF25yvYvmcVPyTkjJiV2tJsuiy1i4JUfr9vJeLPo1mRDNyqu80aS+aPPHOQTq1GAOKoACyhrItEogINXa8A0CJoQNzUhd80adeiFCRHCUJKk6CIUA828AhQB6hAgPUIAPUIAPUIAPUIAPUIAPUIAPUIAPUIAPUIAQ9zewhQAhIIv4YUJECUk5xSLjhtCgHZoULGBAxpZWCVawbRAPTlwA0m0QSf//Z&quot; alt=&quot;Frontend Icon Set for Front End Developers&quot;&gt;" style="text;whiteSpace=wrap;html=1;" vertex="1" parent="1">
          <mxGeometry x="260" y="-450" width="210" height="170" as="geometry" />
        </mxCell>
        <mxCell id="fgWm4qZZ9KspV6PaIqnZ-3" value="&lt;font style=&quot;font-size: 23px;&quot;&gt;Monitoring&lt;/font&gt;" style="text;html=1;align=center;verticalAlign=middle;whiteSpace=wrap;rounded=0;" vertex="1" parent="1">
          <mxGeometry x="1230" y="50" width="210" height="40" as="geometry" />
        </mxCell>
        <mxCell id="fgWm4qZZ9KspV6PaIqnZ-7" value="&lt;img src=&quot;data:image/png;base64,iVBORw0KGgoAAAANSUhEUgAAAOEAAADhCAMAAAAJbSJIAAAAgVBMVEX///8AAADOzs7Hx8ff39+6urrn5+fb29vk5OSYmJhzc3P09PRlZWWlpaVBQUGFhYU1NTXs7OxHR0f5+fnU1NR3d3fLy8tOTk4PDw87OztUVFTAwMAsLCwYGBiNjY20tLRra2uWlpYhISFhYWGpqamJiYkLCwseHh4mJiafn59ZWVmWRmpvAAAG20lEQVR4nO2d63qiMBCGpYrFolXEM/Vsa+39X+AuIDATEhKESGjn/bHPlkDIZ2AymRzodAiCIAiCIAiCIAiCIAiCIAiCIAiCIAiCIAiCIP4YvUXXRBa9mvTNlpapLF/qELhvWkYh++oCZ01rkDCrrHDTtAQJm6oCnaYVSHEqKnxpWoCUqsaGFDYPKSSFf0th0DMEJ9CksC5Htzo9TQpfayldHbySwhKQwmYghWX4iwpfN+9S1nO3uowC9Cr8sFT4rC6jAK0K/a2SwnkNOsTorcOLisCJXv9Hs6VxFfALsgwGu4so9NC97S4KBs1oW2rHeb3xTNHiGqX9eLJMTFY4SDJb5yWmkdltrop745NlnbvJnwYr7Ga5Hdg00GFYMk/5KLnmftxghZuC7N5AWoBSMuN2jg+Yq7APcrMGOM2FDS1qbDyQYEdH9Cr0xm9yLvzc0BAB02Si2PMSptxAwvQJCteWCgNubrBkhQpRrB4+2itPu0J3paTwjZubBy++4TR/AtLGMAUmxEF8vXW4U1IouO8BnNLHSYMv0eU/IGGrvw7/W/VXOaI2GxTtihT20RgXfgJGIOUZ72ElYGHXoNGz8ROA7wQTn2FLq4CHW0OD2Q/fK38e18/sfE9BryHwEoxvD93QZrw7gf0StwCHz/DfoR2bkuP/M7zAjnw3MLILazB5eo1VGFXVvV81xs+l9ZGWNLRGWWsRCV7Zu/fJ+rBIDpqqMKqN1BeAZhX1NSLHJ3HbIodtFVYpdFX1KvT3IzldTlaR8zVM//Shl4Z8oLA9+o7/G1mmr9xPq1fh2VKB47aF03JOoKpg+4d+ETfsJr7Nx/bdX8t3l/X6NLBgYg65nHZMcaCJjKxMBprCc2U8A+0KUSdHjM1mtGCFoCYQh+Yc8CtOOAJ1W5quLQfP4/EczwvfOuRPL6DCETofvAhrrndkmC3db1bWNmryUHW4V1HW8J4/3CyNUugP0+txx71zzHI+owTo23/xHlKzFGbN3ppNmiYpW09wieimJimEFnPBJt6lLJl6QraMG1o2SSFsPYe51NnnZjnPeQcwanFqwtK8KEzfTX952Kk/Kd4TxjP44x96Fc4tFRKrAo9tVW+amRq+oTHKpzmBYx+qN/XTN1FQfL11qDbrO2nCYSdpLL4Nyz76ZQ4KwRANCt3RQE7a9MEYMP+JE9DrvojHkU2ypSAiP5KfrIpRClOJgjD4Q5ilsNO/DZfDm3RMkI+TefNB9tQaprAKaBhg6vMOt1zhACrMCqBZoefIqWs6TSMK8U0FbKsvZeHcLPUFzR17ktALMs/Wb0yh4vjhUZIvDxTzPzen0JkP5QyKJtSI+ERy+o0p1AcO9EdRUlJIChUghXVisEJ3FthByfmW/uc05RznbKpCb5C0kGe7RBuBpnTEY2lmKvRQsb7Vl1bjAVLfWIWLk4U5q/YD8RCWsQrhQN89Rj9RXHncDoVwkZw18y/RJPcPtVpshcIeuv0sKaPaCvlWKMSbEUQ9wmjIgRNz8rLlkf32KETPaDLJZ5yWF4LG7C+tUcjsJ3Hv1a8tTiWiUyd+SxSy+0ncFYY1+87mMoUntkYhu3bmrjCaCMSa03YqZCemBV4/xAudFXbQs50KfywxrPPWToWo1AysqWmnwqJxxN+hEHcOMOycr3YqLJqzz0a826mQcWkQbC7tVFgQ3s+F9NupMNcgZuSGZVqqEHeeAPnuU0sVdo4ChfmoW1sVCnar43QPW6vQ5Y208fYawAqjAeJHYm3PGuWGEvOODXfgkNM/xNPjokO4hY36Jzd0KA1yPTGa6DPt/jXIn9Nh5nTHT/EMNjbxekwHhibjR8GDaw+zeYpPjXn3wAu1GohmKLj9lKTv6DrJEccTn+Vnh8CksSePW7j7+frLui53uTnA2mjr2JM6pLAMf0vh79+R7qawHOg53DQpNBNSSApJYfP8foVVZ7J6atNJm2P14BT5jKLArwkcqgo0ftv5qpvOd0x/E2vpsXlq6/GaYF5qKVWhyP7DFAX/Q+zHs65sY+pBHBm/V0PTBayM9El7ZM67SdhShTV8KaZRikb7Yyp/RqVZPKnAkktLjeMmFyjYnq8tqCwhmjRdyHK4C4ja17Au4IruwnTbWjTLRo13syXW0RPJb59hEGq7RsrQu9t5Jer6CJ2xTkB9H6Gr5aN/9dNn1148zrWGfm39+NXNaIaRBrXegI6BBvVYq0DL2jUtiEXeSyqLYQZVx7c8jTKontqHS8rxbVC3ytfzPd2pOQZVFm16lBIbS2lGbSOJ8pjTc1T69MwD1LizVFVmWr67XdMOMARBEARBEARBEARBEARBEARBEARBEARBEARBEL+If9yghV/J3WcOAAAAAElFTkSuQmCC&quot; alt=&quot;System Monitoring icon in vector ...&quot;&gt;" style="text;whiteSpace=wrap;html=1;" vertex="1" parent="1">
          <mxGeometry x="1220" y="-180" width="100" height="140" as="geometry" />
        </mxCell>
      </root>
    </mxGraphModel>
  </diagram>
</mxfile>
